%FSLAX33Y33*%
%MOMM*%
%ADD10C,0.254*%
%ADD11C,0.635*%
%ADD12C,3.26*%
%ADD13C,0.3048*%
%ADD14C,1.1*%
%ADD15C,2.1*%
%ADD16C,2.1*%
%ADD17C,1.27*%
%ADD18C,1.699999*%
D10*
%LNhole_traces*%
G01*
X138372Y22600D03*
X47696Y29755D03*
X45540Y35075D03*
X78650Y5850D03*
X39887Y62150D03*
X39075Y2665D03*
X46140Y9285D03*
X80475Y53500D03*
X82025Y60150D03*
X38425Y66155D03*
X53625Y26922D03*
X130250Y3450D03*
X69947Y18520D03*
X77925Y10025D03*
X114450Y19925D03*
X72852Y42907D03*
X33590Y8135D03*
X82875Y59525D03*
X45204Y37159D03*
X47475Y28455D03*
X58873Y14600D03*
X29775Y4835D03*
X41300Y2565D03*
X42165Y26530D03*
X75900Y36842D03*
D11*
X119325Y34796D03*
X50875Y5375D03*
D10*
X13343Y68199D03*
X46645Y28105D03*
X53840Y1325D03*
X67258Y62325D03*
X103100Y45650D03*
X75098Y26900D03*
X135950Y44800D03*
X27050Y20105D03*
X116641Y23924D03*
X121400Y65496D03*
D11*
X44075Y48050D03*
D10*
X100375Y68360D03*
X49750Y18455D03*
X52900Y42500D03*
X22585Y18455D03*
X41425Y37375D03*
X141697Y27650D03*
X89050Y32929D03*
X129725Y35750D03*
X70912Y42575D03*
X83400Y21711D03*
X6200Y31915D03*
X32990Y32430D03*
X71912Y42725D03*
X107155Y20075D03*
X41490Y13000D03*
X47650Y35150D03*
X28365Y32550D03*
X105100Y15525D03*
X28690Y13650D03*
X9750Y6812D03*
X38490Y9900D03*
X79179Y23931D03*
X44250Y17755D03*
X93400Y25196D03*
D11*
X29550Y48850D03*
D10*
X93400Y20108D03*
X120101Y7249D03*
X111600Y10587D03*
X117025Y32565D03*
X57980Y19475D03*
X103927Y4075D03*
X49025Y15655D03*
X8625Y20500D03*
X38925Y18630D03*
X72362Y19325D03*
X10750Y64880D03*
X111630Y23171D03*
X107605Y36975D03*
X43839Y60550D03*
X98825Y2900D03*
X72375Y58785D03*
X106325Y3550D03*
X139358Y57304D03*
X66812Y32850D03*
X120650Y32775D03*
X51100Y33895D03*
X93155Y63579D03*
X71786Y4275D03*
X49750Y7586D03*
X104630Y20230D03*
X25775Y23755D03*
X28140Y29255D03*
X36490Y28700D03*
X66673Y15250D03*
X108655Y36975D03*
X21871Y15955D03*
X142492Y55120D03*
X16300Y63295D03*
X51250Y45936D03*
X87488Y31796D03*
X77117Y9975D03*
X27340Y28455D03*
X40195Y9805D03*
X93125Y38110D03*
X105150Y43375D03*
X69633Y51644D03*
X133500Y15658D03*
X40750Y9250D03*
X57550Y57475D03*
X98600Y10350D03*
X122230Y18800D03*
X30446Y10684D03*
X36875Y67649D03*
X44489Y58925D03*
X102269Y19916D03*
X28475Y25800D03*
X63650Y67585D03*
X74832Y37525D03*
X40050Y41897D03*
X39075Y14130D03*
X51000Y9625D03*
X4025Y22988D03*
X42340Y13075D03*
X100975Y10226D03*
X22075Y5025D03*
X19000Y18755D03*
X92150Y11775D03*
X95446Y19609D03*
X40497Y24402D03*
X54500Y17820D03*
X143050Y19125D03*
X66481Y65259D03*
X34390Y13200D03*
X102580Y45175D03*
X113940Y65925D03*
X4025Y18055D03*
X76912Y42725D03*
X80400Y18040D03*
X54275Y12300D03*
X49850Y32211D03*
X85625Y26725D03*
D11*
X117350Y48275D03*
D10*
X71786Y7586D03*
X52050Y39111D03*
X72500Y48619D03*
X74912Y42725D03*
X104150Y33975D03*
X18200Y25850D03*
X112275Y28146D03*
X62958Y41842D03*
X72509Y65094D03*
X60255Y23100D03*
X71786Y6480D03*
X67658Y35175D03*
X54275Y13730D03*
X100650Y4475D03*
X22075Y8900D03*
X72434Y24800D03*
X38125Y23425D03*
X9260Y26825D03*
X51325Y7215D03*
X45275Y59025D03*
X61588Y46200D03*
X88911Y25119D03*
X91620Y44100D03*
X54650Y26850D03*
X76625Y61000D03*
X111130Y38296D03*
X61300Y47075D03*
D11*
X20221Y58950D03*
D10*
X21685Y22455D03*
X93946Y27496D03*
X76015Y19459D03*
X90590Y38900D03*
X106075Y30150D03*
X122100Y66116D03*
X89050Y31796D03*
X114775Y2725D03*
X69308Y58975D03*
X66812Y39375D03*
X13880Y30858D03*
X110275Y10537D03*
X78412Y40750D03*
X75320Y18310D03*
X110736Y23271D03*
D11*
X8860Y48825D03*
D10*
X50630Y46475D03*
X50175Y2025D03*
X139175Y64355D03*
X28195Y41100D03*
X90845Y23646D03*
X126325Y40600D03*
X55675Y1075D03*
X11625Y19250D03*
X112825Y10537D03*
X28775Y40340D03*
X46843Y17105D03*
X71857Y49150D03*
X9125Y66630D03*
X93400Y24146D03*
X9950Y44390D03*
X47120Y30430D03*
X88375Y20996D03*
X88675Y43125D03*
X1600Y38700D03*
X132562Y30600D03*
X49819Y1450D03*
X14165Y35725D03*
X43189Y68340D03*
X105775Y42705D03*
X20891Y23105D03*
X139925Y56070D03*
X76818Y63501D03*
X38750Y36400D03*
X57475Y5600D03*
X13204Y63295D03*
X74002Y37560D03*
X45450Y7390D03*
X19000Y13800D03*
X40497Y34720D03*
X81925Y66375D03*
X13880Y33325D03*
X32490Y16950D03*
X35404Y38341D03*
X110630Y38846D03*
X39350Y64734D03*
X44195Y15680D03*
X56473Y17385D03*
X1125Y28458D03*
D11*
X60650Y48725D03*
D10*
X71496Y26750D03*
X20002Y9355D03*
X63350Y14390D03*
X27340Y39335D03*
X91450Y12400D03*
X7475Y23205D03*
X48299Y45375D03*
X114850Y14250D03*
X61300Y43525D03*
X40375Y64549D03*
X126040Y23275D03*
X126325Y30697D03*
X83025Y37373D03*
X34500Y27675D03*
X116475Y35646D03*
X116641Y26646D03*
X78262Y38150D03*
X136697Y8050D03*
X25200Y24240D03*
X69775Y30496D03*
X43040Y31305D03*
X119125Y12735D03*
X116450Y2675D03*
X8925Y38275D03*
X25025Y28255D03*
X140175Y10050D03*
X108124Y16650D03*
X103780Y16045D03*
X137122Y27058D03*
X48475Y21455D03*
X49425Y8425D03*
X93400Y23071D03*
X27890Y31913D03*
X94925Y12295D03*
X94900Y24646D03*
X98130Y38475D03*
X46796Y22955D03*
X129225Y51578D03*
X94125Y35146D03*
X94900Y32646D03*
X43219Y44650D03*
X71278Y57285D03*
X37840Y10379D03*
X104680Y45150D03*
X106511Y7975D03*
X105200Y45650D03*
X67750Y18079D03*
X123225Y62087D03*
X138982Y8857D03*
X26490Y30055D03*
X9050Y14119D03*
X110934Y13075D03*
X109730Y36996D03*
X47696Y21850D03*
X119438Y56650D03*
D11*
X3900Y42650D03*
D10*
X129425Y68201D03*
X126040Y14388D03*
X26527Y1950D03*
X127025Y68201D03*
X67083Y43925D03*
X141825Y17700D03*
X111175Y30646D03*
X105730Y45150D03*
X102050Y45650D03*
X43640Y36400D03*
X140750Y22722D03*
X105432Y9900D03*
X111675Y16550D03*
X20175Y16455D03*
X65450Y29175D03*
X93450Y29046D03*
X29225Y14780D03*
X42564Y32525D03*
X61639Y57600D03*
X67259Y64750D03*
X63480Y7350D03*
X110575Y59700D03*
X37840Y1425D03*
X58800Y2850D03*
X50775Y21145D03*
X41710Y9400D03*
X50253Y41650D03*
X127838Y64569D03*
X80319Y25831D03*
X38950Y63383D03*
X85550Y67890D03*
X7475Y18440D03*
X85900Y9725D03*
X32190Y60963D03*
X19550Y19930D03*
X77315Y23075D03*
X56975Y56850D03*
D11*
X146400Y53950D03*
D10*
X60813Y44049D03*
D11*
X116275Y54477D03*
X109375Y48223D03*
D10*
X22585Y22955D03*
X15445Y30450D03*
X36120Y58700D03*
X15788Y51925D03*
X12075Y19915D03*
X115765Y36196D03*
X29775Y15830D03*
D11*
X88385Y48089D03*
D10*
X25900Y9470D03*
X94825Y64569D03*
X36490Y32005D03*
X34140Y31875D03*
X52500Y5600D03*
X52335Y41925D03*
X44024Y33105D03*
X103100Y41975D03*
X65925Y51317D03*
X47850Y25755D03*
X38374Y2025D03*
X62100Y43950D03*
X113164Y15789D03*
D11*
X2120Y48075D03*
D12*
X5000Y65066D03*
D10*
X95630Y41310D03*
X41950Y7150D03*
X35850Y20100D03*
X59150Y17571D03*
X39500Y44225D03*
X122220Y36700D03*
X123637Y64410D03*
X71761Y5425D03*
X20002Y14432D03*
X64805Y19075D03*
X75425Y56925D03*
X27140Y17055D03*
X21871Y26955D03*
X67577Y33534D03*
X86860Y60665D03*
X10150Y18800D03*
X70960Y58225D03*
X33615Y10684D03*
X93891Y59550D03*
X37640Y35620D03*
X44400Y12600D03*
X30425Y66878D03*
X64800Y48000D03*
X142075Y7075D03*
X38365Y8825D03*
X70425Y11075D03*
X79512Y28300D03*
X30446Y12950D03*
X26490Y30755D03*
X10350Y43640D03*
X67750Y18950D03*
X83784Y36600D03*
X44250Y16355D03*
X53350Y59150D03*
X14500Y25200D03*
X35440Y14645D03*
X5738Y56075D03*
X73789Y42405D03*
D12*
X5000Y5000D03*
D10*
X63950Y19100D03*
X114125Y10537D03*
X52325Y1075D03*
X14343Y57500D03*
X9750Y5542D03*
D12*
X145000Y65000D03*
D10*
X61630Y17654D03*
X98845Y64475D03*
X71278Y60200D03*
X143372Y12683D03*
X93625Y37496D03*
X27968Y34905D03*
X67398Y24650D03*
X21650Y12777D03*
X40161Y4650D03*
X85675Y60850D03*
X50070Y16095D03*
X33640Y9990D03*
X111630Y24146D03*
X25125Y42844D03*
X3900Y36238D03*
X23275Y39049D03*
X32540Y37100D03*
X112175Y30146D03*
X71278Y59485D03*
X41625Y6075D03*
X25650Y16255D03*
X91205Y39472D03*
X71950Y16450D03*
X30325Y2675D03*
X46990Y18430D03*
X38125Y24550D03*
X50375Y43241D03*
X73818Y32320D03*
X107930Y20350D03*
X56725Y25037D03*
X143150Y52568D03*
X127589Y60525D03*
X33874Y7256D03*
X67062Y34296D03*
X89050Y29150D03*
X43929Y27815D03*
X26640Y32027D03*
X46575Y29105D03*
X33640Y41450D03*
X84400Y68375D03*
X44600Y22605D03*
D11*
X87310Y54475D03*
X83525Y43625D03*
D10*
X75900Y42825D03*
X32065Y13290D03*
X11300Y43490D03*
X98875Y42625D03*
X106630Y15575D03*
X111255Y15789D03*
X76696Y14635D03*
X39725Y32005D03*
X94400Y35796D03*
X68300Y34175D03*
X47425Y7586D03*
X94557Y62281D03*
X22678Y28774D03*
X94075Y64913D03*
X68808Y45975D03*
X35050Y44650D03*
X115765Y34996D03*
X64075Y41300D03*
X58250Y26337D03*
X65820Y63483D03*
D11*
X21050Y59800D03*
D10*
X56500Y27479D03*
X35400Y9350D03*
X71412Y40650D03*
X33640Y44650D03*
X129035Y14333D03*
X4050Y29900D03*
X94250Y25196D03*
X52000Y58050D03*
X106869Y11525D03*
X20002Y11892D03*
X95355Y11750D03*
X10450Y8082D03*
X33000Y11055D03*
X142492Y58889D03*
X37265Y14855D03*
X53251Y10156D03*
X97566Y37996D03*
X59700Y25737D03*
X93450Y31146D03*
D11*
X105722Y52177D03*
D10*
X78500Y31210D03*
X76696Y19325D03*
X39725Y41131D03*
X68325Y10875D03*
X96980Y38475D03*
X26625Y26415D03*
X50750Y2665D03*
D11*
X4211Y52425D03*
D10*
X103630Y45175D03*
X84544Y24496D03*
X112575Y22635D03*
X74412Y40650D03*
X19723Y15780D03*
X97725Y14375D03*
D11*
X19560Y53485D03*
D10*
X12812Y16972D03*
X40340Y16955D03*
X60175Y1850D03*
D11*
X8325Y41095D03*
D10*
X82875Y60975D03*
X132718Y35750D03*
D11*
X22625Y55321D03*
D10*
X42129Y14130D03*
D11*
X31115Y48010D03*
D10*
X43675Y16850D03*
X45759Y44650D03*
X34615Y32535D03*
X39300Y40450D03*
X97859Y68360D03*
X57750Y67174D03*
X103121Y58375D03*
X59150Y18346D03*
X49450Y15100D03*
D11*
X6050Y27225D03*
D10*
X103105Y15349D03*
X32990Y30275D03*
X107075Y22480D03*
X21685Y19455D03*
X5750Y14275D03*
X106580Y31375D03*
X84050Y21520D03*
X68113Y30496D03*
X110130Y43225D03*
X16662Y16972D03*
D11*
X64525Y46825D03*
D10*
X67200Y46000D03*
X114900Y37146D03*
X39640Y9250D03*
X67412Y37289D03*
X85250Y42275D03*
X104150Y45650D03*
X44025Y40350D03*
X32325Y41925D03*
X76007Y13096D03*
X69023Y0850D03*
X54275Y16082D03*
X51775Y13975D03*
X39700Y3000D03*
X68933Y49043D03*
X48850Y7050D03*
X65820Y66169D03*
X14203Y63295D03*
X35750Y8675D03*
D11*
X119475Y39625D03*
X128350Y30983D03*
X59575Y54450D03*
D10*
X53108Y26007D03*
X94145Y33975D03*
X71345Y52450D03*
X25585Y20430D03*
X54650Y28051D03*
X102950Y57250D03*
X95630Y38900D03*
X59450Y2400D03*
X124760Y32650D03*
X29775Y13150D03*
D13*
X77400Y56425D03*
D10*
X68050Y25163D03*
X27450Y22455D03*
X113150Y60824D03*
X109500Y38350D03*
X100023Y10750D03*
X43725Y5700D03*
X89925Y23646D03*
X53700Y17200D03*
X133197Y62987D03*
X31490Y13750D03*
X93675Y42995D03*
X102514Y57800D03*
D11*
X10750Y47325D03*
D13*
X79300Y56425D03*
D10*
X65250Y65094D03*
X81250Y15025D03*
X20187Y29455D03*
X98600Y9675D03*
X43775Y18630D03*
X42140Y30350D03*
X93246Y66025D03*
X84594Y25575D03*
X4385Y19225D03*
X143650Y21750D03*
X104875Y9400D03*
D11*
X87375Y42275D03*
D10*
X94480Y36646D03*
X149250Y27298D03*
X40640Y31923D03*
X45655Y10890D03*
X6749Y58275D03*
X30250Y61700D03*
X16808Y66875D03*
X49950Y13575D03*
X68050Y21775D03*
X79562Y45937D03*
X40990Y32500D03*
X137150Y55120D03*
X48048Y17105D03*
D12*
X145000Y5000D03*
D11*
X11728Y65740D03*
D10*
X70559Y68635D03*
X25025Y19605D03*
X20750Y3675D03*
D11*
X126250Y52568D03*
D10*
X70125Y21200D03*
X45501Y68951D03*
X49452Y63372D03*
D11*
X9575Y58484D03*
D10*
X117600Y10100D03*
X34140Y28550D03*
X46850Y7200D03*
X28050Y15675D03*
X108976Y41555D03*
X21541Y29455D03*
X73675Y64103D03*
X103630Y32089D03*
D11*
X34475Y47075D03*
D10*
X102075Y43800D03*
X137947Y15475D03*
X30840Y14294D03*
X70425Y12082D03*
X73408Y41075D03*
X36490Y10740D03*
X58375Y60325D03*
X64150Y38205D03*
X102630Y20475D03*
X28775Y37555D03*
X24325Y8600D03*
X103650Y59050D03*
X125350Y20775D03*
X76471Y25325D03*
X42140Y31305D03*
X50925Y32400D03*
X60255Y35700D03*
X67350Y30545D03*
X39650Y21550D03*
X49850Y36400D03*
X47998Y10395D03*
X45168Y64780D03*
X66325Y5550D03*
X79787Y40870D03*
X100425Y13300D03*
X25025Y31325D03*
X23225Y8470D03*
D11*
X44075Y51410D03*
D10*
X93975Y30675D03*
X36640Y14244D03*
X44940Y12055D03*
X108130Y36496D03*
X80875Y31766D03*
X50750Y30130D03*
X6110Y19450D03*
X22075Y8026D03*
X44400Y14980D03*
X108394Y11650D03*
X147122Y27125D03*
X73942Y23767D03*
X13204Y64270D03*
X48350Y25105D03*
X140718Y51253D03*
X63350Y15142D03*
X49625Y21276D03*
X56195Y21907D03*
X90545Y43424D03*
X51810Y34975D03*
X25200Y22755D03*
X29519Y42125D03*
X62950Y42575D03*
X19932Y8082D03*
X81412Y41800D03*
X122575Y64410D03*
X25550Y26540D03*
X118475Y10625D03*
X28950Y4475D03*
X53108Y28622D03*
X23550Y4050D03*
X34090Y16950D03*
X40775Y4950D03*
X37900Y65134D03*
X67409Y28666D03*
X121375Y62987D03*
X44215Y10761D03*
X106350Y10961D03*
D11*
X12564Y47325D03*
D10*
X51121Y39900D03*
X29990Y29860D03*
X3725Y27225D03*
D11*
X52676Y48225D03*
D10*
X93155Y64984D03*
X8625Y21200D03*
X34065Y14319D03*
X59560Y60325D03*
X38990Y32500D03*
X68825Y24800D03*
X94630Y38750D03*
X107280Y21250D03*
X126325Y34539D03*
X37640Y34905D03*
X34450Y5482D03*
X80675Y1650D03*
X14203Y64270D03*
X95836Y42095D03*
X13950Y66725D03*
X50925Y41375D03*
X37990Y32695D03*
D13*
X75925Y54615D03*
D10*
X115650Y29496D03*
X53108Y25137D03*
X105875Y10450D03*
X63075Y19100D03*
X49600Y30255D03*
X85075Y48200D03*
X68725Y27350D03*
X73775Y11450D03*
X29075Y3300D03*
D11*
X8848Y62350D03*
D10*
X76665Y17649D03*
X40340Y30755D03*
X76650Y1650D03*
X29840Y10990D03*
X49625Y2550D03*
X18200Y21875D03*
X109180Y36496D03*
X38075Y13075D03*
X46250Y36400D03*
X29140Y8384D03*
X120029Y67525D03*
X82275Y21805D03*
X17600Y28274D03*
X69424Y35723D03*
X52150Y38025D03*
X103925Y63675D03*
X77767Y24431D03*
X1725Y20525D03*
X42725Y10890D03*
X71401Y56574D03*
X47850Y30955D03*
X44500Y11455D03*
X47696Y26605D03*
X129725Y44800D03*
X90950Y67600D03*
X34177Y11055D03*
X46925Y40615D03*
X88911Y41375D03*
X73075Y68635D03*
X88251Y31796D03*
X66950Y35050D03*
X132718Y44800D03*
X116125Y16913D03*
X72412Y40950D03*
X94900Y30025D03*
X10800Y36025D03*
X15788Y53185D03*
X46596Y18987D03*
X7050Y39350D03*
X40575Y42575D03*
X96012Y10475D03*
X98520Y60809D03*
X114469Y62724D03*
D11*
X18800Y59075D03*
D10*
X106105Y19775D03*
X106275Y25725D03*
X46843Y12055D03*
X49075Y12600D03*
X26125Y27105D03*
X54730Y11525D03*
X82400Y29150D03*
X77505Y37975D03*
X28690Y5825D03*
X33000Y6857D03*
X125350Y18550D03*
X30140Y32195D03*
X115650Y2850D03*
X69200Y25475D03*
X89150Y56625D03*
X21685Y24326D03*
%LNhole component 9a6a617898d3f957*%
D14*
X123885Y3450D03*
X126425Y3450D03*
X128965Y3450D03*
%LNhole component 8d3a2affb6dbb62b*%
D15*
X123490Y45075D03*
X123490Y28275D03*
X98780Y28275D03*
X98780Y45075D03*
%LNhole component 4bb0c09cc5e8b9cd*%
D16*
X123490Y28275D03*
X123490Y45075D03*
X98780Y45075D03*
X98780Y28275D03*
%LNhole component 3d1b104ce7776bda*%
D17*
X65862Y41718D03*
X83962Y41718D03*
%LNhole component 3f08c77576248507*%
D18*
X82532Y13435D03*
X82532Y6435D03*
M02*