%FSLAX33Y33*%
%MOMM*%
%AMRect-W1650000-H1650000-RO1.500*
21,1,1.65,1.65,0.,0.,90*%
%ADD10C,0.0508*%
%ADD11C,0.508*%
%ADD12C,0.4*%
%ADD13C,1.016*%
%ADD14C,0.3048*%
%ADD15C,0.2032*%
%ADD16C,1.0668*%
%ADD17C,0.5588*%
%ADD18C,1.65*%
%ADD19Rect-W1650000-H1650000-RO1.500*%
D10*
%LNpour fill*%
G01*
X89900Y57450D02*
X89900Y57450D01*
X89900Y57450*
X94100Y57450*
X94100Y57450*
X94100Y56000*
X118900Y56000*
X118900Y57450*
X118900Y57450*
X123100Y57450*
X123100Y57450*
X123100Y56000*
X133466Y56000*
X134966Y58575*
X134966Y69545*
X24950Y69545*
X24950Y59375*
X27250Y56000*
X35675Y56000*
X35675Y57450*
X35675Y57450*
X39875Y57450*
X39875Y57450*
X39875Y56000*
X62200Y56000*
X62200Y57319*
X62093Y57353*
X62027Y57256*
X62027Y57256*
X61933Y57173*
X61933Y57173*
X61823Y57115*
X61822Y57115*
X61701Y57086*
X61701Y57086*
X61576Y57086*
X61576Y57086*
X61455Y57115*
X61455Y57115*
X61344Y57173*
X61344Y57173*
X61251Y57256*
X61251Y57256*
X61180Y57359*
X61180Y57359*
X61136Y57476*
X61136Y57476*
X61120Y57600*
X61120Y57600*
X61136Y57724*
X61136Y57724*
X61180Y57841*
X61180Y57841*
X61251Y57944*
X61251Y57944*
X61344Y58027*
X61344Y58027*
X61455Y58085*
X61455Y58085*
X61576Y58114*
X61576Y58114*
X61701Y58114*
X61701Y58114*
X61822Y58085*
X61823Y58085*
X61933Y58027*
X61933Y58027*
X62027Y57944*
X62027Y57944*
X62098Y57841*
X62098Y57841*
X62142Y57724*
X62142Y57724*
X62157Y57600*
X62157Y57600*
X62139Y57450*
X66400Y57450*
X66400Y57450*
X66400Y56000*
X76938Y56000*
X76981Y56082*
X76919Y56172*
X76919Y56172*
X76872Y56295*
X76872Y56295*
X76856Y56425*
X76856Y56425*
X76872Y56555*
X76872Y56555*
X76919Y56677*
X76919Y56677*
X76993Y56785*
X76993Y56785*
X77091Y56872*
X77091Y56872*
X77207Y56933*
X77207Y56933*
X77334Y56964*
X77334Y56964*
X77466Y56964*
X77466Y56964*
X77593Y56933*
X77593Y56933*
X77709Y56872*
X77709Y56872*
X77807Y56785*
X77807Y56785*
X77881Y56677*
X77881Y56677*
X77928Y56555*
X77928Y56555*
X77944Y56425*
X77944Y56425*
X77928Y56295*
X77928Y56295*
X77881Y56172*
X77881Y56172*
X77819Y56082*
X77862Y56000*
X88985Y56000*
X89013Y56116*
X88856Y56198*
X88856Y56198*
X88762Y56281*
X88762Y56281*
X88691Y56384*
X88691Y56384*
X88647Y56501*
X88647Y56501*
X88632Y56625*
X88632Y56625*
X88647Y56749*
X88647Y56749*
X88691Y56866*
X88691Y56866*
X88762Y56969*
X88762Y56969*
X88856Y57052*
X88856Y57052*
X88966Y57110*
X88966Y57110*
X89088Y57139*
X89088Y57139*
X89212Y57139*
X89212Y57139*
X89334Y57110*
X89334Y57110*
X89444Y57052*
X89444Y57052*
X89538Y56969*
X89538Y56969*
X89609Y56866*
X89609Y56866*
X89653Y56749*
X89653Y56749*
X89668Y56625*
X89668Y56625*
X89653Y56501*
X89653Y56501*
X89609Y56384*
X89609Y56384*
X89538Y56281*
X89538Y56281*
X89444Y56198*
X89444Y56198*
X89287Y56116*
X89315Y56000*
X89900Y56000*
X89900Y57450*
X70622Y68121D02*
X70497Y68121D01*
X70376Y68151*
X70265Y68209*
X70172Y68292*
X70101Y68395*
X70056Y68511*
X70041Y68635*
X70056Y68759*
X70101Y68876*
X70172Y68979*
X70265Y69062*
X70376Y69120*
X70497Y69150*
X70622Y69150*
X70743Y69120*
X70854Y69062*
X70947Y68979*
X71018Y68876*
X71062Y68759*
X71077Y68635*
X71062Y68511*
X71018Y68395*
X70947Y68292*
X70854Y68209*
X70743Y68151*
X70622Y68121*
X84462Y67861D02*
X84338Y67861D01*
X84216Y67891*
X84106Y67949*
X84012Y68031*
X83941Y68134*
X83897Y68251*
X83882Y68375*
X83897Y68499*
X83941Y68616*
X84012Y68719*
X84106Y68801*
X84216Y68859*
X84338Y68889*
X84462Y68889*
X84584Y68859*
X84694Y68801*
X84788Y68719*
X84859Y68616*
X84903Y68499*
X84918Y68375*
X84903Y68251*
X84859Y68134*
X84788Y68031*
X84694Y67949*
X84584Y67891*
X84462Y67861*
X97921Y67846D02*
X97797Y67846D01*
X97675Y67876*
X97565Y67934*
X97471Y68017*
X97400Y68120*
X97356Y68236*
X97341Y68360*
X97356Y68484*
X97400Y68601*
X97471Y68704*
X97565Y68787*
X97675Y68845*
X97797Y68875*
X97921Y68875*
X98043Y68845*
X98153Y68787*
X98247Y68704*
X98318Y68601*
X98362Y68484*
X98377Y68360*
X98362Y68236*
X98318Y68120*
X98247Y68017*
X98153Y67934*
X98043Y67876*
X97921Y67846*
X43251Y67825D02*
X43126Y67825D01*
X43005Y67855*
X42894Y67913*
X42801Y67996*
X42730Y68099*
X42686Y68216*
X42671Y68340*
X42686Y68464*
X42730Y68580*
X42801Y68683*
X42894Y68766*
X43005Y68824*
X43126Y68854*
X43251Y68854*
X43372Y68824*
X43483Y68766*
X43576Y68683*
X43647Y68580*
X43691Y68464*
X43707Y68340*
X43691Y68216*
X43647Y68099*
X43576Y67996*
X43483Y67913*
X43372Y67855*
X43251Y67825*
X127087Y67687D02*
X126963Y67687D01*
X126841Y67717*
X126731Y67775*
X126637Y67858*
X126566Y67961*
X126522Y68077*
X126507Y68201*
X126522Y68325*
X126566Y68442*
X126637Y68545*
X126731Y68628*
X126841Y68686*
X126963Y68716*
X127087Y68716*
X127209Y68686*
X127319Y68628*
X127413Y68545*
X127484Y68442*
X127528Y68325*
X127543Y68201*
X127528Y68077*
X127484Y67961*
X127413Y67858*
X127319Y67775*
X127209Y67717*
X127087Y67687*
X85612Y67375D02*
X85488Y67375D01*
X85366Y67405*
X85256Y67463*
X85162Y67546*
X85091Y67649*
X85047Y67766*
X85032Y67890*
X85047Y68014*
X85091Y68130*
X85162Y68233*
X85256Y68316*
X85366Y68374*
X85488Y68404*
X85612Y68404*
X85734Y68374*
X85844Y68316*
X85938Y68233*
X86009Y68130*
X86053Y68014*
X86068Y67890*
X86053Y67766*
X86009Y67649*
X85938Y67546*
X85844Y67463*
X85734Y67405*
X85612Y67375*
X36937Y67135D02*
X36813Y67135D01*
X36691Y67165*
X36581Y67223*
X36487Y67305*
X36416Y67408*
X36372Y67525*
X36357Y67649*
X36372Y67773*
X36416Y67890*
X36487Y67992*
X36581Y68075*
X36691Y68133*
X36813Y68163*
X36937Y68163*
X37059Y68133*
X37169Y68075*
X37263Y67992*
X37334Y67890*
X37378Y67773*
X37393Y67649*
X37378Y67525*
X37334Y67408*
X37263Y67305*
X37169Y67223*
X37059Y67165*
X36937Y67135*
X91012Y67086D02*
X90888Y67086D01*
X90766Y67116*
X90656Y67174*
X90562Y67257*
X90491Y67359*
X90447Y67476*
X90432Y67600*
X90447Y67724*
X90491Y67841*
X90562Y67944*
X90656Y68026*
X90766Y68084*
X90888Y68114*
X91012Y68114*
X91134Y68084*
X91244Y68026*
X91338Y67944*
X91409Y67841*
X91453Y67724*
X91468Y67600*
X91453Y67476*
X91409Y67359*
X91338Y67257*
X91244Y67174*
X91134Y67116*
X91012Y67086*
X63712Y67071D02*
X63588Y67071D01*
X63466Y67101*
X63356Y67159*
X63262Y67242*
X63191Y67345*
X63147Y67461*
X63132Y67585*
X63147Y67709*
X63191Y67826*
X63262Y67929*
X63356Y68012*
X63466Y68070*
X63588Y68100*
X63712Y68100*
X63834Y68070*
X63944Y68012*
X64038Y67929*
X64109Y67826*
X64153Y67709*
X64168Y67585*
X64153Y67461*
X64109Y67345*
X64038Y67242*
X63944Y67159*
X63834Y67101*
X63712Y67071*
X120092Y67011D02*
X119967Y67011D01*
X119846Y67041*
X119735Y67099*
X119642Y67181*
X119571Y67284*
X119526Y67401*
X119511Y67525*
X119526Y67649*
X119571Y67766*
X119642Y67868*
X119735Y67951*
X119846Y68009*
X119967Y68039*
X120092Y68039*
X120213Y68009*
X120324Y67951*
X120417Y67868*
X120488Y67766*
X120532Y67649*
X120547Y67525*
X120532Y67401*
X120488Y67284*
X120417Y67181*
X120324Y67099*
X120213Y67041*
X120092Y67011*
X57812Y66659D02*
X57688Y66659D01*
X57566Y66689*
X57456Y66747*
X57362Y66830*
X57291Y66933*
X57247Y67050*
X57232Y67174*
X57247Y67298*
X57291Y67414*
X57362Y67517*
X57456Y67600*
X57566Y67658*
X57688Y67688*
X57812Y67688*
X57934Y67658*
X58044Y67600*
X58138Y67517*
X58209Y67414*
X58253Y67298*
X58268Y67174*
X58253Y67050*
X58209Y66933*
X58138Y66830*
X58044Y66747*
X57934Y66689*
X57812Y66659*
X30487Y66364D02*
X30363Y66364D01*
X30241Y66394*
X30131Y66452*
X30037Y66534*
X29966Y66637*
X29922Y66754*
X29907Y66878*
X29922Y67002*
X29966Y67119*
X30037Y67221*
X30131Y67304*
X30241Y67362*
X30363Y67392*
X30487Y67392*
X30609Y67362*
X30719Y67304*
X30813Y67221*
X30884Y67119*
X30928Y67002*
X30943Y66878*
X30928Y66754*
X30884Y66637*
X30813Y66534*
X30719Y66452*
X30609Y66394*
X30487Y66364*
X81987Y65861D02*
X81863Y65861D01*
X81741Y65891*
X81631Y65949*
X81537Y66031*
X81466Y66134*
X81422Y66251*
X81407Y66375*
X81422Y66499*
X81466Y66616*
X81537Y66719*
X81631Y66801*
X81741Y66859*
X81863Y66889*
X81987Y66889*
X82109Y66859*
X82219Y66801*
X82313Y66719*
X82384Y66616*
X82428Y66499*
X82443Y66375*
X82428Y66251*
X82384Y66134*
X82313Y66031*
X82219Y65949*
X82109Y65891*
X81987Y65861*
X67321Y64236D02*
X67196Y64236D01*
X67075Y64266*
X66965Y64324*
X66871Y64406*
X66800Y64509*
X66756Y64626*
X66736Y64792*
X66544Y64745*
X66419Y64745*
X66297Y64775*
X66187Y64833*
X66093Y64915*
X66022Y65018*
X65978Y65135*
X65963Y65259*
X65978Y65383*
X66022Y65500*
X66096Y65606*
X66036Y65693*
X65882Y65655*
X65758Y65655*
X65636Y65685*
X65526Y65743*
X65432Y65826*
X65361Y65929*
X65317Y66045*
X65302Y66169*
X65317Y66293*
X65361Y66410*
X65432Y66513*
X65526Y66596*
X65636Y66654*
X65758Y66684*
X65882Y66684*
X66004Y66654*
X66114Y66596*
X66208Y66513*
X66279Y66410*
X66323Y66293*
X66338Y66169*
X66323Y66045*
X66279Y65929*
X66205Y65822*
X66265Y65735*
X66419Y65773*
X66544Y65773*
X66665Y65743*
X66775Y65685*
X66869Y65602*
X66940Y65500*
X66984Y65383*
X67004Y65217*
X67196Y65264*
X67321Y65264*
X67443Y65234*
X67553Y65176*
X67647Y65094*
X67718Y64991*
X67762Y64874*
X67777Y64750*
X67762Y64626*
X67718Y64509*
X67647Y64406*
X67553Y64324*
X67443Y64266*
X67321Y64236*
X37962Y64620D02*
X37838Y64620D01*
X37716Y64650*
X37606Y64708*
X37512Y64790*
X37441Y64893*
X37397Y65010*
X37382Y65134*
X37397Y65258*
X37441Y65375*
X37512Y65477*
X37606Y65560*
X37716Y65618*
X37838Y65648*
X37962Y65648*
X38079Y65619*
X38134Y65725*
X38037Y65811*
X37966Y65914*
X37922Y66031*
X37907Y66155*
X37922Y66279*
X37966Y66395*
X38037Y66498*
X38131Y66581*
X38241Y66639*
X38363Y66669*
X38487Y66669*
X38609Y66639*
X38719Y66581*
X38813Y66498*
X38884Y66395*
X38928Y66279*
X38943Y66155*
X38928Y66031*
X38884Y65914*
X38813Y65811*
X38719Y65728*
X38609Y65670*
X38487Y65640*
X38363Y65640*
X38246Y65669*
X38191Y65563*
X38288Y65477*
X38359Y65375*
X38403Y65258*
X38418Y65134*
X38403Y65010*
X38359Y64893*
X38288Y64790*
X38194Y64708*
X38084Y64650*
X37962Y64620*
X121462Y64981D02*
X121338Y64981D01*
X121216Y65011*
X121106Y65069*
X121012Y65152*
X120941Y65255*
X120897Y65372*
X120882Y65496*
X120897Y65620*
X120941Y65736*
X121012Y65839*
X121106Y65922*
X121216Y65980*
X121338Y66010*
X121462Y66010*
X121599Y65976*
X121582Y66116*
X121597Y66240*
X121641Y66357*
X121712Y66460*
X121806Y66543*
X121916Y66601*
X122038Y66631*
X122162Y66631*
X122284Y66601*
X122394Y66543*
X122488Y66460*
X122559Y66357*
X122603Y66240*
X122618Y66116*
X122603Y65992*
X122559Y65876*
X122488Y65773*
X122394Y65690*
X122284Y65632*
X122162Y65602*
X122038Y65602*
X121901Y65636*
X121918Y65496*
X121903Y65372*
X121859Y65255*
X121788Y65152*
X121694Y65069*
X121584Y65011*
X121462Y64981*
X94887Y64055D02*
X94763Y64055D01*
X94641Y64085*
X94531Y64143*
X94437Y64226*
X94366Y64329*
X94322Y64445*
X94137Y64399*
X94013Y64399*
X93891Y64429*
X93781Y64487*
X93687Y64570*
X93602Y64693*
X93449Y64558*
X93339Y64500*
X93218Y64470*
X93093Y64470*
X92971Y64500*
X92861Y64558*
X92767Y64640*
X92696Y64743*
X92652Y64860*
X92637Y64984*
X92652Y65108*
X92696Y65225*
X92767Y65327*
X92861Y65410*
X92998Y65482*
X92998Y65574*
X92951Y65599*
X92858Y65681*
X92787Y65784*
X92743Y65901*
X92728Y66025*
X92743Y66149*
X92787Y66266*
X92858Y66368*
X92951Y66451*
X93062Y66509*
X93183Y66539*
X93308Y66539*
X93429Y66509*
X93540Y66451*
X93633Y66368*
X93704Y66266*
X93748Y66149*
X93764Y66025*
X93748Y65901*
X93704Y65784*
X93633Y65681*
X93540Y65599*
X93403Y65527*
X93403Y65435*
X93449Y65410*
X93543Y65327*
X93628Y65204*
X93781Y65340*
X93891Y65398*
X94013Y65427*
X94137Y65427*
X94259Y65398*
X94369Y65340*
X94463Y65257*
X94534Y65154*
X94578Y65038*
X94763Y65084*
X94887Y65084*
X95009Y65054*
X95119Y64996*
X95213Y64913*
X95284Y64810*
X95328Y64693*
X95343Y64569*
X95328Y64445*
X95284Y64329*
X95213Y64226*
X95119Y64143*
X95009Y64085*
X94887Y64055*
X114002Y65411D02*
X113877Y65411D01*
X113756Y65441*
X113645Y65499*
X113552Y65582*
X113481Y65684*
X113437Y65801*
X113422Y65925*
X113437Y66049*
X113481Y66166*
X113552Y66269*
X113645Y66351*
X113756Y66409*
X113877Y66439*
X114002Y66439*
X114123Y66409*
X114234Y66351*
X114327Y66269*
X114398Y66166*
X114443Y66049*
X114458Y65925*
X114443Y65801*
X114398Y65684*
X114327Y65582*
X114234Y65499*
X114123Y65441*
X114002Y65411*
X72572Y64580D02*
X72447Y64580D01*
X72326Y64610*
X72215Y64668*
X72122Y64750*
X72051Y64853*
X72006Y64970*
X71991Y65094*
X72006Y65218*
X72051Y65335*
X72122Y65437*
X72215Y65520*
X72326Y65578*
X72447Y65608*
X72572Y65608*
X72693Y65578*
X72804Y65520*
X72897Y65437*
X72968Y65335*
X73012Y65218*
X73027Y65094*
X73012Y64970*
X72968Y64853*
X72897Y64750*
X72804Y64668*
X72693Y64610*
X72572Y64580*
X65312Y64580D02*
X65188Y64580D01*
X65066Y64610*
X64956Y64668*
X64862Y64750*
X64791Y64853*
X64747Y64970*
X64732Y65094*
X64747Y65218*
X64791Y65335*
X64862Y65437*
X64956Y65520*
X65066Y65578*
X65188Y65608*
X65312Y65608*
X65434Y65578*
X65544Y65520*
X65638Y65437*
X65709Y65335*
X65753Y65218*
X65768Y65094*
X65753Y64970*
X65709Y64853*
X65638Y64750*
X65544Y64668*
X65434Y64610*
X65312Y64580*
X45230Y64265D02*
X45105Y64265D01*
X44984Y64295*
X44873Y64353*
X44780Y64436*
X44709Y64539*
X44665Y64656*
X44650Y64780*
X44665Y64903*
X44709Y65020*
X44780Y65123*
X44873Y65206*
X44984Y65264*
X45105Y65294*
X45230Y65294*
X45351Y65264*
X45462Y65206*
X45555Y65123*
X45626Y65020*
X45670Y64903*
X45686Y64780*
X45670Y64656*
X45626Y64539*
X45555Y64436*
X45462Y64353*
X45351Y64295*
X45230Y64265*
X40437Y64034D02*
X40313Y64034D01*
X40191Y64064*
X40081Y64122*
X39987Y64205*
X39916Y64308*
X39868Y64435*
X39776Y64447*
X39738Y64390*
X39644Y64308*
X39534Y64250*
X39412Y64220*
X39288Y64220*
X39166Y64250*
X39056Y64308*
X38962Y64390*
X38891Y64493*
X38847Y64610*
X38832Y64734*
X38847Y64858*
X38891Y64975*
X38962Y65077*
X39056Y65160*
X39166Y65218*
X39288Y65248*
X39412Y65248*
X39534Y65218*
X39644Y65160*
X39738Y65077*
X39809Y64975*
X39857Y64847*
X39949Y64836*
X39987Y64892*
X40081Y64975*
X40191Y65033*
X40313Y65063*
X40437Y65063*
X40559Y65033*
X40669Y64975*
X40763Y64892*
X40834Y64789*
X40878Y64673*
X40893Y64549*
X40878Y64425*
X40834Y64308*
X40763Y64205*
X40669Y64122*
X40559Y64064*
X40437Y64034*
X127900Y64055D02*
X127775Y64055D01*
X127654Y64085*
X127543Y64143*
X127450Y64225*
X127379Y64328*
X127335Y64445*
X127320Y64569*
X127335Y64693*
X127379Y64810*
X127450Y64912*
X127543Y64995*
X127654Y65053*
X127775Y65083*
X127900Y65083*
X128021Y65053*
X128132Y64995*
X128225Y64912*
X128296Y64810*
X128340Y64693*
X128356Y64569*
X128340Y64445*
X128296Y64328*
X128225Y64225*
X128132Y64143*
X128021Y64085*
X127900Y64055*
X98908Y63961D02*
X98783Y63961D01*
X98662Y63991*
X98551Y64049*
X98458Y64131*
X98387Y64234*
X98342Y64351*
X98327Y64475*
X98342Y64599*
X98387Y64716*
X98458Y64818*
X98551Y64901*
X98662Y64959*
X98783Y64989*
X98908Y64989*
X99029Y64959*
X99140Y64901*
X99233Y64818*
X99304Y64716*
X99348Y64599*
X99363Y64475*
X99348Y64351*
X99304Y64234*
X99233Y64131*
X99140Y64049*
X99029Y63991*
X98908Y63961*
X122637Y63896D02*
X122513Y63896D01*
X122391Y63926*
X122281Y63984*
X122187Y64067*
X122116Y64170*
X122072Y64286*
X122057Y64410*
X122072Y64534*
X122116Y64651*
X122187Y64754*
X122281Y64837*
X122391Y64895*
X122513Y64925*
X122637Y64925*
X122759Y64895*
X122869Y64837*
X122963Y64754*
X123034Y64651*
X123053Y64599*
X123159Y64599*
X123178Y64651*
X123249Y64754*
X123343Y64837*
X123453Y64895*
X123575Y64925*
X123699Y64925*
X123821Y64895*
X123931Y64837*
X124025Y64754*
X124096Y64651*
X124140Y64534*
X124155Y64410*
X124140Y64286*
X124096Y64170*
X124025Y64067*
X123931Y63984*
X123821Y63926*
X123699Y63896*
X123575Y63896*
X123453Y63926*
X123343Y63984*
X123249Y64067*
X123178Y64170*
X123159Y64222*
X123053Y64222*
X123034Y64170*
X122963Y64067*
X122869Y63984*
X122759Y63926*
X122637Y63896*
X73737Y63589D02*
X73613Y63589D01*
X73491Y63619*
X73381Y63677*
X73287Y63759*
X73216Y63862*
X73172Y63979*
X73157Y64103*
X73172Y64227*
X73216Y64344*
X73287Y64446*
X73381Y64529*
X73491Y64587*
X73613Y64617*
X73737Y64617*
X73859Y64587*
X73969Y64529*
X74063Y64446*
X74134Y64344*
X74178Y64227*
X74193Y64103*
X74178Y63979*
X74134Y63862*
X74063Y63759*
X73969Y63677*
X73859Y63619*
X73737Y63589*
X103987Y63161D02*
X103863Y63161D01*
X103741Y63191*
X103631Y63249*
X103537Y63331*
X103466Y63434*
X103422Y63551*
X103407Y63675*
X103422Y63799*
X103466Y63916*
X103537Y64019*
X103631Y64101*
X103741Y64159*
X103863Y64189*
X103987Y64189*
X104109Y64159*
X104219Y64101*
X104313Y64019*
X104384Y63916*
X104428Y63799*
X104443Y63675*
X104428Y63551*
X104384Y63434*
X104313Y63331*
X104219Y63249*
X104109Y63191*
X103987Y63161*
X93218Y63064D02*
X93093Y63064D01*
X92971Y63094*
X92861Y63152*
X92767Y63235*
X92696Y63338*
X92652Y63455*
X92637Y63579*
X92652Y63703*
X92696Y63819*
X92767Y63922*
X92861Y64005*
X92971Y64063*
X93093Y64093*
X93218Y64093*
X93339Y64063*
X93449Y64005*
X93543Y63922*
X93614Y63819*
X93658Y63703*
X93673Y63579*
X93658Y63455*
X93614Y63338*
X93543Y63235*
X93449Y63152*
X93339Y63094*
X93218Y63064*
X76880Y62986D02*
X76755Y62986D01*
X76634Y63016*
X76524Y63074*
X76430Y63157*
X76359Y63260*
X76315Y63377*
X76300Y63501*
X76315Y63625*
X76359Y63741*
X76430Y63844*
X76524Y63927*
X76634Y63985*
X76755Y64015*
X76880Y64015*
X77001Y63985*
X77112Y63927*
X77206Y63844*
X77276Y63741*
X77321Y63625*
X77336Y63501*
X77321Y63377*
X77276Y63260*
X77206Y63157*
X77112Y63074*
X77001Y63016*
X76880Y62986*
X65882Y62969D02*
X65758Y62969D01*
X65636Y62999*
X65526Y63057*
X65432Y63139*
X65361Y63242*
X65317Y63359*
X65302Y63483*
X65317Y63607*
X65361Y63724*
X65432Y63826*
X65526Y63909*
X65636Y63967*
X65758Y63997*
X65882Y63997*
X66004Y63967*
X66114Y63909*
X66208Y63826*
X66279Y63724*
X66323Y63607*
X66338Y63483*
X66323Y63359*
X66279Y63242*
X66208Y63139*
X66114Y63057*
X66004Y62999*
X65882Y62969*
X39012Y62869D02*
X38888Y62869D01*
X38766Y62899*
X38656Y62957*
X38562Y63040*
X38491Y63142*
X38447Y63259*
X38432Y63383*
X38447Y63507*
X38491Y63624*
X38562Y63727*
X38656Y63809*
X38766Y63867*
X38888Y63897*
X39012Y63897*
X39134Y63867*
X39244Y63809*
X39338Y63727*
X39409Y63624*
X39453Y63507*
X39468Y63383*
X39453Y63259*
X39409Y63142*
X39338Y63040*
X39244Y62957*
X39134Y62899*
X39012Y62869*
X49515Y62857D02*
X49390Y62857D01*
X49269Y62887*
X49158Y62945*
X49064Y63028*
X48994Y63131*
X48949Y63248*
X48934Y63372*
X48949Y63496*
X48994Y63612*
X49064Y63715*
X49158Y63798*
X49269Y63856*
X49390Y63886*
X49515Y63886*
X49636Y63856*
X49746Y63798*
X49840Y63715*
X49911Y63612*
X49955Y63496*
X49970Y63372*
X49955Y63248*
X49911Y63131*
X49840Y63028*
X49746Y62945*
X49636Y62887*
X49515Y62857*
X133260Y62473D02*
X133135Y62473D01*
X133013Y62503*
X132903Y62561*
X132809Y62644*
X132738Y62746*
X132694Y62863*
X132679Y62987*
X132694Y63111*
X132738Y63228*
X132809Y63331*
X132903Y63413*
X133013Y63471*
X133135Y63501*
X133260Y63501*
X133381Y63471*
X133491Y63413*
X133585Y63331*
X133656Y63228*
X133700Y63111*
X133715Y62987*
X133700Y62863*
X133656Y62746*
X133585Y62644*
X133491Y62561*
X133381Y62503*
X133260Y62473*
X121437Y62473D02*
X121313Y62473D01*
X121191Y62503*
X121081Y62561*
X120987Y62644*
X120916Y62746*
X120872Y62863*
X120857Y62987*
X120872Y63111*
X120916Y63228*
X120987Y63331*
X121081Y63413*
X121191Y63471*
X121313Y63501*
X121437Y63501*
X121559Y63471*
X121669Y63413*
X121763Y63331*
X121834Y63228*
X121878Y63111*
X121893Y62987*
X121878Y62863*
X121834Y62746*
X121763Y62644*
X121669Y62561*
X121559Y62503*
X121437Y62473*
X114531Y62210D02*
X114406Y62210D01*
X114285Y62240*
X114175Y62298*
X114081Y62381*
X114010Y62484*
X113966Y62600*
X113951Y62724*
X113966Y62848*
X114010Y62965*
X114081Y63068*
X114175Y63151*
X114285Y63209*
X114406Y63239*
X114531Y63239*
X114653Y63209*
X114763Y63151*
X114857Y63068*
X114928Y62965*
X114972Y62848*
X114987Y62724*
X114972Y62600*
X114928Y62484*
X114857Y62381*
X114763Y62298*
X114653Y62240*
X114531Y62210*
X67320Y61811D02*
X67195Y61811D01*
X67074Y61841*
X66963Y61899*
X66870Y61981*
X66799Y62084*
X66755Y62201*
X66740Y62325*
X66755Y62449*
X66799Y62566*
X66870Y62669*
X66963Y62751*
X67074Y62809*
X67195Y62839*
X67320Y62839*
X67441Y62809*
X67552Y62751*
X67645Y62669*
X67716Y62566*
X67761Y62449*
X67776Y62325*
X67761Y62201*
X67716Y62084*
X67645Y61981*
X67552Y61899*
X67441Y61841*
X67320Y61811*
X94620Y61767D02*
X94495Y61767D01*
X94374Y61797*
X94263Y61855*
X94170Y61938*
X94099Y62040*
X94055Y62157*
X94039Y62281*
X94055Y62405*
X94099Y62522*
X94170Y62625*
X94263Y62707*
X94374Y62766*
X94495Y62795*
X94620Y62795*
X94741Y62766*
X94852Y62707*
X94945Y62625*
X95016Y62522*
X95060Y62405*
X95075Y62281*
X95060Y62157*
X95016Y62040*
X94945Y61938*
X94852Y61855*
X94741Y61797*
X94620Y61767*
X39949Y61636D02*
X39825Y61636D01*
X39703Y61666*
X39593Y61724*
X39499Y61806*
X39428Y61909*
X39384Y62026*
X39369Y62150*
X39384Y62274*
X39428Y62391*
X39499Y62493*
X39593Y62576*
X39703Y62634*
X39825Y62664*
X39949Y62664*
X40071Y62634*
X40181Y62576*
X40275Y62493*
X40346Y62391*
X40390Y62274*
X40405Y62150*
X40390Y62026*
X40346Y61909*
X40275Y61806*
X40181Y61724*
X40071Y61666*
X39949Y61636*
X123287Y61573D02*
X123163Y61573D01*
X123041Y61603*
X122931Y61661*
X122837Y61744*
X122766Y61846*
X122722Y61963*
X122707Y62087*
X122722Y62211*
X122766Y62328*
X122837Y62431*
X122931Y62513*
X123041Y62571*
X123163Y62601*
X123287Y62601*
X123409Y62571*
X123519Y62513*
X123613Y62431*
X123684Y62328*
X123728Y62211*
X123743Y62087*
X123728Y61963*
X123684Y61846*
X123613Y61744*
X123519Y61661*
X123409Y61603*
X123287Y61573*
X30312Y61185D02*
X30188Y61185D01*
X30066Y61215*
X29956Y61273*
X29862Y61356*
X29791Y61459*
X29747Y61576*
X29732Y61700*
X29747Y61824*
X29791Y61940*
X29862Y62043*
X29956Y62126*
X30066Y62184*
X30188Y62214*
X30312Y62214*
X30434Y62184*
X30544Y62126*
X30638Y62043*
X30709Y61940*
X30753Y61824*
X30768Y61700*
X30753Y61576*
X30709Y61459*
X30638Y61356*
X30544Y61273*
X30434Y61215*
X30312Y61185*
X76687Y60486D02*
X76563Y60486D01*
X76441Y60516*
X76331Y60574*
X76237Y60657*
X76166Y60759*
X76122Y60876*
X76107Y61000*
X76122Y61124*
X76166Y61241*
X76237Y61343*
X76331Y61426*
X76441Y61484*
X76563Y61514*
X76687Y61514*
X76809Y61484*
X76919Y61426*
X77013Y61343*
X77084Y61241*
X77128Y61124*
X77143Y61000*
X77128Y60876*
X77084Y60759*
X77013Y60657*
X76919Y60574*
X76809Y60516*
X76687Y60486*
X32252Y60448D02*
X32127Y60448D01*
X32006Y60478*
X31895Y60536*
X31802Y60619*
X31731Y60722*
X31687Y60839*
X31672Y60963*
X31687Y61087*
X31731Y61203*
X31802Y61306*
X31895Y61389*
X32006Y61447*
X32127Y61477*
X32252Y61477*
X32373Y61447*
X32484Y61389*
X32577Y61306*
X32648Y61203*
X32693Y61087*
X32708Y60963*
X32693Y60839*
X32648Y60722*
X32577Y60619*
X32484Y60536*
X32373Y60478*
X32252Y60448*
X85737Y60336D02*
X85612Y60336D01*
X85491Y60366*
X85381Y60424*
X85287Y60507*
X85216Y60609*
X85172Y60726*
X85157Y60850*
X85172Y60974*
X85216Y61091*
X85287Y61194*
X85381Y61276*
X85491Y61334*
X85612Y61364*
X85737Y61364*
X85858Y61334*
X85969Y61276*
X86063Y61194*
X86133Y61091*
X86178Y60974*
X86193Y60850*
X86178Y60726*
X86133Y60609*
X86063Y60507*
X85969Y60424*
X85858Y60366*
X85737Y60336*
X113212Y60310D02*
X113088Y60310D01*
X112966Y60340*
X112856Y60398*
X112762Y60481*
X112691Y60584*
X112647Y60700*
X112632Y60824*
X112647Y60948*
X112691Y61065*
X112762Y61168*
X112856Y61251*
X112966Y61309*
X113088Y61339*
X113212Y61339*
X113334Y61309*
X113444Y61251*
X113538Y61168*
X113609Y61065*
X113653Y60948*
X113668Y60824*
X113653Y60700*
X113609Y60584*
X113538Y60481*
X113444Y60398*
X113334Y60340*
X113212Y60310*
X98583Y60295D02*
X98458Y60295D01*
X98337Y60325*
X98226Y60383*
X98133Y60466*
X98062Y60569*
X98017Y60685*
X98002Y60809*
X98017Y60933*
X98062Y61050*
X98133Y61153*
X98226Y61236*
X98337Y61294*
X98458Y61324*
X98583Y61324*
X98704Y61294*
X98815Y61236*
X98908Y61153*
X98979Y61050*
X99023Y60933*
X99038Y60809*
X99023Y60685*
X98979Y60569*
X98908Y60466*
X98815Y60383*
X98704Y60325*
X98583Y60295*
X86923Y60150D02*
X86798Y60150D01*
X86676Y60180*
X86566Y60238*
X86472Y60321*
X86401Y60424*
X86357Y60541*
X86342Y60665*
X86357Y60789*
X86401Y60905*
X86472Y61008*
X86566Y61091*
X86676Y61149*
X86798Y61179*
X86923Y61179*
X87044Y61149*
X87154Y61091*
X87248Y61008*
X87319Y60905*
X87363Y60789*
X87378Y60665*
X87363Y60541*
X87319Y60424*
X87248Y60321*
X87154Y60238*
X87044Y60180*
X86923Y60150*
X43901Y60036D02*
X43776Y60036D01*
X43655Y60066*
X43544Y60124*
X43451Y60206*
X43380Y60309*
X43336Y60426*
X43321Y60550*
X43336Y60674*
X43380Y60791*
X43451Y60894*
X43544Y60976*
X43655Y61034*
X43776Y61064*
X43901Y61064*
X44022Y61034*
X44133Y60976*
X44226Y60894*
X44297Y60791*
X44341Y60674*
X44357Y60550*
X44341Y60426*
X44297Y60309*
X44226Y60206*
X44133Y60124*
X44022Y60066*
X43901Y60036*
X127651Y60011D02*
X127526Y60011D01*
X127405Y60041*
X127294Y60099*
X127201Y60181*
X127130Y60284*
X127086Y60401*
X127071Y60525*
X127086Y60649*
X127130Y60766*
X127201Y60868*
X127294Y60951*
X127405Y61009*
X127526Y61039*
X127651Y61039*
X127772Y61009*
X127883Y60951*
X127976Y60868*
X128047Y60766*
X128091Y60649*
X128107Y60525*
X128091Y60401*
X128047Y60284*
X127976Y60181*
X127883Y60099*
X127772Y60041*
X127651Y60011*
X59623Y59811D02*
X59498Y59811D01*
X59377Y59841*
X59266Y59899*
X59173Y59981*
X59102Y60084*
X59057Y60201*
X59042Y60325*
X59057Y60449*
X59102Y60566*
X59173Y60669*
X59266Y60751*
X59377Y60809*
X59498Y60839*
X59623Y60839*
X59744Y60809*
X59855Y60751*
X59948Y60669*
X60019Y60566*
X60063Y60449*
X60078Y60325*
X60063Y60201*
X60019Y60084*
X59948Y59981*
X59855Y59899*
X59744Y59841*
X59623Y59811*
X58437Y59811D02*
X58313Y59811D01*
X58191Y59841*
X58081Y59899*
X57987Y59981*
X57916Y60084*
X57872Y60201*
X57857Y60325*
X57872Y60449*
X57916Y60566*
X57987Y60669*
X58081Y60751*
X58191Y60809*
X58313Y60839*
X58437Y60839*
X58559Y60809*
X58669Y60751*
X58763Y60669*
X58834Y60566*
X58878Y60449*
X58893Y60325*
X58878Y60201*
X58834Y60084*
X58763Y59981*
X58669Y59899*
X58559Y59841*
X58437Y59811*
X71341Y58971D02*
X71216Y58971D01*
X71095Y59001*
X70984Y59059*
X70891Y59142*
X70820Y59244*
X70776Y59361*
X70760Y59485*
X70776Y59609*
X70820Y59726*
X70900Y59843*
X70820Y59959*
X70776Y60076*
X70760Y60200*
X70776Y60324*
X70820Y60441*
X70891Y60544*
X70984Y60626*
X71095Y60684*
X71216Y60714*
X71341Y60714*
X71462Y60684*
X71573Y60626*
X71666Y60544*
X71737Y60441*
X71781Y60324*
X71796Y60200*
X71781Y60076*
X71737Y59959*
X71657Y59843*
X71737Y59726*
X71781Y59609*
X71796Y59485*
X71781Y59361*
X71737Y59244*
X71666Y59142*
X71573Y59059*
X71462Y59001*
X71341Y58971*
X82937Y59011D02*
X82813Y59011D01*
X82691Y59041*
X82581Y59099*
X82487Y59181*
X82416Y59284*
X82372Y59401*
X82357Y59525*
X82373Y59660*
X82298Y59712*
X82209Y59666*
X82087Y59636*
X81963Y59636*
X81841Y59666*
X81731Y59724*
X81637Y59806*
X81566Y59909*
X81522Y60026*
X81507Y60150*
X81522Y60274*
X81566Y60391*
X81637Y60493*
X81731Y60576*
X81841Y60634*
X81963Y60664*
X82087Y60664*
X82209Y60634*
X82319Y60576*
X82413Y60493*
X82484Y60391*
X82528Y60274*
X82543Y60150*
X82527Y60015*
X82602Y59963*
X82691Y60009*
X82813Y60039*
X82937Y60039*
X83059Y60009*
X83169Y59951*
X83263Y59868*
X83334Y59766*
X83378Y59649*
X83393Y59525*
X83378Y59401*
X83334Y59284*
X83263Y59181*
X83169Y59099*
X83059Y59041*
X82937Y59011*
X110638Y59186D02*
X110513Y59186D01*
X110392Y59216*
X110281Y59274*
X110188Y59356*
X110117Y59459*
X110072Y59576*
X110057Y59700*
X110072Y59824*
X110117Y59941*
X110188Y60044*
X110281Y60126*
X110392Y60184*
X110513Y60214*
X110638Y60214*
X110759Y60184*
X110870Y60126*
X110963Y60044*
X111034Y59941*
X111078Y59824*
X111093Y59700*
X111078Y59576*
X111034Y59459*
X110963Y59356*
X110870Y59274*
X110759Y59216*
X110638Y59186*
X93953Y59036D02*
X93828Y59036D01*
X93707Y59066*
X93597Y59124*
X93503Y59206*
X93432Y59309*
X93388Y59426*
X93373Y59550*
X93388Y59674*
X93432Y59791*
X93503Y59894*
X93597Y59976*
X93707Y60034*
X93828Y60064*
X93953Y60064*
X94075Y60034*
X94185Y59976*
X94279Y59894*
X94350Y59791*
X94394Y59674*
X94409Y59550*
X94394Y59426*
X94350Y59309*
X94279Y59206*
X94185Y59124*
X94075Y59066*
X93953Y59036*
X53412Y58636D02*
X53288Y58636D01*
X53166Y58666*
X53056Y58724*
X52962Y58806*
X52891Y58909*
X52847Y59026*
X52832Y59150*
X52847Y59274*
X52891Y59391*
X52962Y59493*
X53056Y59576*
X53166Y59634*
X53288Y59664*
X53412Y59664*
X53534Y59634*
X53644Y59576*
X53738Y59493*
X53809Y59391*
X53853Y59274*
X53868Y59150*
X53853Y59026*
X53809Y58909*
X53738Y58806*
X53644Y58724*
X53534Y58666*
X53412Y58636*
X103012Y56736D02*
X102888Y56736D01*
X102766Y56766*
X102656Y56824*
X102562Y56907*
X102491Y57009*
X102447Y57126*
X102427Y57292*
X102331Y57316*
X102220Y57374*
X102127Y57456*
X102056Y57559*
X102011Y57676*
X101996Y57800*
X102011Y57924*
X102056Y58041*
X102127Y58144*
X102220Y58226*
X102331Y58284*
X102452Y58314*
X102595Y58314*
X102618Y58499*
X102662Y58616*
X102733Y58718*
X102826Y58801*
X102937Y58859*
X103058Y58889*
X103152Y58889*
X103132Y59050*
X103147Y59174*
X103191Y59291*
X103262Y59394*
X103356Y59476*
X103466Y59534*
X103588Y59564*
X103712Y59564*
X103834Y59534*
X103944Y59476*
X104038Y59394*
X104109Y59291*
X104153Y59174*
X104168Y59050*
X104153Y58926*
X104109Y58809*
X104038Y58706*
X103944Y58624*
X103834Y58566*
X103712Y58536*
X103619Y58536*
X103639Y58375*
X103623Y58251*
X103579Y58134*
X103508Y58032*
X103415Y57949*
X103304Y57891*
X103130Y57848*
X103117Y57743*
X103244Y57676*
X103338Y57594*
X103409Y57491*
X103453Y57374*
X103468Y57250*
X103453Y57126*
X103409Y57009*
X103338Y56907*
X103244Y56824*
X103134Y56766*
X103012Y56736*
X44551Y58411D02*
X44426Y58411D01*
X44305Y58441*
X44194Y58499*
X44101Y58581*
X44030Y58684*
X43986Y58801*
X43971Y58925*
X43986Y59049*
X44030Y59166*
X44101Y59269*
X44194Y59351*
X44305Y59409*
X44426Y59439*
X44551Y59439*
X44672Y59409*
X44783Y59351*
X44841Y59301*
X44887Y59369*
X44981Y59451*
X45091Y59509*
X45213Y59539*
X45337Y59539*
X45459Y59509*
X45569Y59451*
X45663Y59368*
X45734Y59266*
X45778Y59149*
X45793Y59025*
X45778Y58901*
X45734Y58784*
X45663Y58681*
X45569Y58599*
X45459Y58541*
X45337Y58511*
X45213Y58511*
X45091Y58541*
X44980Y58599*
X44923Y58649*
X44876Y58581*
X44783Y58499*
X44672Y58441*
X44551Y58411*
X69371Y58461D02*
X69246Y58461D01*
X69125Y58491*
X69014Y58549*
X68921Y58632*
X68850Y58734*
X68805Y58851*
X68790Y58975*
X68805Y59099*
X68850Y59216*
X68921Y59319*
X69014Y59401*
X69125Y59459*
X69246Y59489*
X69371Y59489*
X69492Y59459*
X69602Y59401*
X69696Y59319*
X69767Y59216*
X69811Y59099*
X69826Y58975*
X69811Y58851*
X69767Y58734*
X69696Y58632*
X69602Y58549*
X69492Y58491*
X69371Y58461*
X72437Y58271D02*
X72313Y58271D01*
X72191Y58301*
X72081Y58359*
X71987Y58442*
X71916Y58544*
X71872Y58661*
X71857Y58785*
X71872Y58909*
X71916Y59026*
X71987Y59129*
X72081Y59212*
X72191Y59270*
X72313Y59299*
X72437Y59299*
X72559Y59270*
X72669Y59212*
X72763Y59129*
X72834Y59026*
X72878Y58909*
X72893Y58785*
X72878Y58661*
X72834Y58544*
X72763Y58442*
X72669Y58359*
X72559Y58301*
X72437Y58271*
X36182Y58186D02*
X36057Y58186D01*
X35936Y58216*
X35825Y58274*
X35732Y58356*
X35661Y58459*
X35617Y58576*
X35602Y58700*
X35617Y58824*
X35661Y58941*
X35732Y59044*
X35825Y59126*
X35936Y59184*
X36057Y59214*
X36182Y59214*
X36303Y59184*
X36414Y59126*
X36507Y59044*
X36578Y58941*
X36623Y58824*
X36638Y58700*
X36623Y58576*
X36578Y58459*
X36507Y58356*
X36414Y58274*
X36303Y58216*
X36182Y58186*
X71341Y56771D02*
X71216Y56771D01*
X71095Y56801*
X70984Y56859*
X70891Y56942*
X70820Y57045*
X70776Y57161*
X70760Y57285*
X70776Y57409*
X70820Y57526*
X70940Y57700*
X70777Y57741*
X70666Y57799*
X70573Y57882*
X70502Y57984*
X70457Y58101*
X70442Y58225*
X70457Y58349*
X70502Y58466*
X70573Y58569*
X70666Y58651*
X70777Y58709*
X70898Y58739*
X71023Y58739*
X71144Y58709*
X71255Y58651*
X71348Y58569*
X71419Y58466*
X71463Y58349*
X71478Y58225*
X71463Y58101*
X71419Y57984*
X71299Y57810*
X71462Y57770*
X71573Y57712*
X71666Y57629*
X71737Y57526*
X71781Y57409*
X71796Y57285*
X71781Y57161*
X71737Y57045*
X71666Y56942*
X71573Y56859*
X71462Y56801*
X71341Y56771*
X52062Y57536D02*
X51938Y57536D01*
X51816Y57566*
X51706Y57624*
X51612Y57706*
X51541Y57809*
X51497Y57926*
X51482Y58050*
X51497Y58174*
X51541Y58291*
X51612Y58394*
X51706Y58476*
X51816Y58534*
X51938Y58564*
X52062Y58564*
X52184Y58534*
X52294Y58476*
X52388Y58394*
X52459Y58291*
X52503Y58174*
X52518Y58050*
X52503Y57926*
X52459Y57809*
X52388Y57706*
X52294Y57624*
X52184Y57566*
X52062Y57536*
X57037Y56336D02*
X56913Y56336D01*
X56791Y56366*
X56681Y56424*
X56587Y56507*
X56516Y56609*
X56472Y56726*
X56457Y56850*
X56472Y56974*
X56516Y57091*
X56587Y57194*
X56681Y57276*
X56791Y57334*
X56913Y57364*
X57045Y57364*
X57032Y57475*
X57047Y57599*
X57091Y57716*
X57162Y57819*
X57256Y57901*
X57366Y57959*
X57488Y57989*
X57612Y57989*
X57734Y57959*
X57844Y57901*
X57938Y57819*
X58009Y57716*
X58053Y57599*
X58068Y57475*
X58053Y57351*
X58009Y57234*
X57938Y57132*
X57844Y57049*
X57734Y56991*
X57612Y56961*
X57480Y56961*
X57493Y56850*
X57478Y56726*
X57434Y56609*
X57363Y56507*
X57269Y56424*
X57159Y56366*
X57037Y56336*
X75487Y56411D02*
X75363Y56411D01*
X75241Y56441*
X75131Y56499*
X75037Y56581*
X74966Y56684*
X74922Y56801*
X74907Y56925*
X74922Y57049*
X74966Y57166*
X75037Y57269*
X75131Y57351*
X75241Y57409*
X75363Y57439*
X75487Y57439*
X75609Y57409*
X75719Y57351*
X75813Y57269*
X75884Y57166*
X75928Y57049*
X75943Y56925*
X75928Y56801*
X75884Y56684*
X75813Y56581*
X75719Y56499*
X75609Y56441*
X75487Y56411*
X27216Y56050D02*
X35675Y56050D01*
X39875Y56050D02*
X62200Y56050D01*
X66400Y56050D02*
X76965Y56050D01*
X77835Y56050D02*
X88997Y56050D01*
X89303Y56050D02*
X89900Y56050D01*
X94100Y56050D02*
X118900Y56050D01*
X123100Y56050D02*
X133495Y56050D01*
X27182Y56099D02*
X35675Y56099D01*
X39875Y56099D02*
X62200Y56099D01*
X66400Y56099D02*
X76969Y56099D01*
X77831Y56099D02*
X89009Y56099D01*
X89291Y56099D02*
X89900Y56099D01*
X94100Y56099D02*
X118900Y56099D01*
X123100Y56099D02*
X133524Y56099D01*
X27149Y56149D02*
X35675Y56149D01*
X39875Y56149D02*
X62200Y56149D01*
X66400Y56149D02*
X76935Y56149D01*
X77865Y56149D02*
X88951Y56149D01*
X89349Y56149D02*
X89900Y56149D01*
X94100Y56149D02*
X118900Y56149D01*
X123100Y56149D02*
X133553Y56149D01*
X27115Y56198D02*
X35675Y56198D01*
X39875Y56198D02*
X62200Y56198D01*
X66400Y56198D02*
X76909Y56198D01*
X77891Y56198D02*
X88857Y56198D01*
X89443Y56198D02*
X89900Y56198D01*
X94100Y56198D02*
X118900Y56198D01*
X123100Y56198D02*
X133581Y56198D01*
X27081Y56248D02*
X35675Y56248D01*
X39875Y56248D02*
X62200Y56248D01*
X66400Y56248D02*
X76890Y56248D01*
X77910Y56248D02*
X88800Y56248D01*
X89500Y56248D02*
X89900Y56248D01*
X94100Y56248D02*
X118900Y56248D01*
X123100Y56248D02*
X133610Y56248D01*
X27047Y56297D02*
X35675Y56297D01*
X39875Y56297D02*
X62200Y56297D01*
X66400Y56297D02*
X76872Y56297D01*
X77928Y56297D02*
X88751Y56297D01*
X89549Y56297D02*
X89900Y56297D01*
X94100Y56297D02*
X118900Y56297D01*
X123100Y56297D02*
X133639Y56297D01*
X27014Y56347D02*
X35675Y56347D01*
X39875Y56347D02*
X56867Y56347D01*
X57083Y56347D02*
X62200Y56347D01*
X66400Y56347D02*
X76866Y56347D01*
X77934Y56347D02*
X88717Y56347D01*
X89583Y56347D02*
X89900Y56347D01*
X94100Y56347D02*
X118900Y56347D01*
X123100Y56347D02*
X133668Y56347D01*
X26980Y56396D02*
X35675Y56396D01*
X39875Y56396D02*
X56733Y56396D01*
X57217Y56396D02*
X62200Y56396D01*
X66400Y56396D02*
X76860Y56396D01*
X77940Y56396D02*
X88687Y56396D01*
X89613Y56396D02*
X89900Y56396D01*
X94100Y56396D02*
X118900Y56396D01*
X123100Y56396D02*
X133697Y56396D01*
X26946Y56446D02*
X35675Y56446D01*
X39875Y56446D02*
X56655Y56446D01*
X57295Y56446D02*
X62200Y56446D01*
X66400Y56446D02*
X75231Y56446D01*
X75619Y56446D02*
X76859Y56446D01*
X77941Y56446D02*
X88668Y56446D01*
X89632Y56446D02*
X89900Y56446D01*
X94100Y56446D02*
X118900Y56446D01*
X123100Y56446D02*
X133726Y56446D01*
X26912Y56495D02*
X35675Y56495D01*
X39875Y56495D02*
X56600Y56495D01*
X57350Y56495D02*
X62200Y56495D01*
X66400Y56495D02*
X75137Y56495D01*
X75713Y56495D02*
X76865Y56495D01*
X77935Y56495D02*
X88649Y56495D01*
X89651Y56495D02*
X89900Y56495D01*
X94100Y56495D02*
X118900Y56495D01*
X123100Y56495D02*
X133755Y56495D01*
X26879Y56545D02*
X35675Y56545D01*
X39875Y56545D02*
X56561Y56545D01*
X57389Y56545D02*
X62200Y56545D01*
X66400Y56545D02*
X75078Y56545D01*
X75772Y56545D02*
X76871Y56545D01*
X77929Y56545D02*
X88642Y56545D01*
X89658Y56545D02*
X89900Y56545D01*
X94100Y56545D02*
X118900Y56545D01*
X123100Y56545D02*
X133783Y56545D01*
X26845Y56594D02*
X35675Y56594D01*
X39875Y56594D02*
X56526Y56594D01*
X57424Y56594D02*
X62200Y56594D01*
X66400Y56594D02*
X75028Y56594D01*
X75822Y56594D02*
X76887Y56594D01*
X77913Y56594D02*
X88636Y56594D01*
X89664Y56594D02*
X89900Y56594D01*
X94100Y56594D02*
X118900Y56594D01*
X123100Y56594D02*
X133812Y56594D01*
X26811Y56644D02*
X35675Y56644D01*
X39875Y56644D02*
X56503Y56644D01*
X57447Y56644D02*
X62200Y56644D01*
X66400Y56644D02*
X74994Y56644D01*
X75856Y56644D02*
X76906Y56644D01*
X77894Y56644D02*
X88634Y56644D01*
X89666Y56644D02*
X89900Y56644D01*
X94100Y56644D02*
X118900Y56644D01*
X123100Y56644D02*
X133841Y56644D01*
X26777Y56693D02*
X35675Y56693D01*
X39875Y56693D02*
X56484Y56693D01*
X57466Y56693D02*
X62200Y56693D01*
X66400Y56693D02*
X74963Y56693D01*
X75887Y56693D02*
X76930Y56693D01*
X77870Y56693D02*
X88640Y56693D01*
X89660Y56693D02*
X89900Y56693D01*
X94100Y56693D02*
X118900Y56693D01*
X123100Y56693D02*
X133870Y56693D01*
X26744Y56743D02*
X35675Y56743D01*
X39875Y56743D02*
X56470Y56743D01*
X57480Y56743D02*
X62200Y56743D01*
X66400Y56743D02*
X74944Y56743D01*
X75906Y56743D02*
X76964Y56743D01*
X77836Y56743D02*
X88646Y56743D01*
X89654Y56743D02*
X89900Y56743D01*
X94100Y56743D02*
X102857Y56743D01*
X103043Y56743D02*
X118900Y56743D01*
X123100Y56743D02*
X133899Y56743D01*
X26710Y56792D02*
X35675Y56792D01*
X39875Y56792D02*
X56464Y56792D01*
X57486Y56792D02*
X62200Y56792D01*
X66400Y56792D02*
X71128Y56792D01*
X71429Y56792D02*
X74925Y56792D01*
X75925Y56792D02*
X77002Y56792D01*
X77798Y56792D02*
X88664Y56792D01*
X89636Y56792D02*
X89900Y56792D01*
X94100Y56792D02*
X102715Y56792D01*
X103185Y56792D02*
X118900Y56792D01*
X123100Y56792D02*
X133928Y56792D01*
X26676Y56842D02*
X35675Y56842D01*
X39875Y56842D02*
X56458Y56842D01*
X57492Y56842D02*
X62200Y56842D01*
X66400Y56842D02*
X71016Y56842D01*
X71541Y56842D02*
X74917Y56842D01*
X75933Y56842D02*
X77058Y56842D01*
X77742Y56842D02*
X88682Y56842D01*
X89618Y56842D02*
X89900Y56842D01*
X94100Y56842D02*
X102635Y56842D01*
X103265Y56842D02*
X118900Y56842D01*
X123100Y56842D02*
X133956Y56842D01*
X26642Y56892D02*
X35675Y56892D01*
X39875Y56892D02*
X56462Y56892D01*
X57488Y56892D02*
X62200Y56892D01*
X66400Y56892D02*
X70947Y56892D01*
X71610Y56892D02*
X74911Y56892D01*
X75939Y56892D02*
X77129Y56892D01*
X77671Y56892D02*
X88709Y56892D01*
X89591Y56892D02*
X89900Y56892D01*
X94100Y56892D02*
X102579Y56892D01*
X103321Y56892D02*
X118900Y56892D01*
X123100Y56892D02*
X133985Y56892D01*
X26609Y56941D02*
X35675Y56941D01*
X39875Y56941D02*
X56468Y56941D01*
X57482Y56941D02*
X62200Y56941D01*
X66400Y56941D02*
X70891Y56941D01*
X71666Y56941D02*
X74909Y56941D01*
X75941Y56941D02*
X77241Y56941D01*
X77559Y56941D02*
X88743Y56941D01*
X89557Y56941D02*
X89900Y56941D01*
X94100Y56941D02*
X102538Y56941D01*
X103362Y56941D02*
X118900Y56941D01*
X123100Y56941D02*
X134014Y56941D01*
X26575Y56991D02*
X35675Y56991D01*
X39875Y56991D02*
X56478Y56991D01*
X57734Y56991D02*
X62200Y56991D01*
X66400Y56991D02*
X70857Y56991D01*
X71700Y56991D02*
X74915Y56991D01*
X75935Y56991D02*
X88787Y56991D01*
X89513Y56991D02*
X89900Y56991D01*
X94100Y56991D02*
X102504Y56991D01*
X103396Y56991D02*
X118900Y56991D01*
X123100Y56991D02*
X134043Y56991D01*
X26541Y57040D02*
X35675Y57040D01*
X39875Y57040D02*
X56497Y57040D01*
X57828Y57040D02*
X62200Y57040D01*
X66400Y57040D02*
X70823Y57040D01*
X71734Y57040D02*
X74921Y57040D01*
X75929Y57040D02*
X88843Y57040D01*
X89457Y57040D02*
X89900Y57040D01*
X94100Y57040D02*
X102479Y57040D01*
X103421Y57040D02*
X118900Y57040D01*
X123100Y57040D02*
X134072Y57040D01*
X26507Y57090D02*
X35675Y57090D01*
X39875Y57090D02*
X56516Y57090D01*
X57891Y57090D02*
X61561Y57090D01*
X61717Y57090D02*
X62200Y57090D01*
X66400Y57090D02*
X70802Y57090D01*
X71754Y57090D02*
X74937Y57090D01*
X75913Y57090D02*
X88929Y57090D01*
X89371Y57090D02*
X89900Y57090D01*
X94100Y57090D02*
X102461Y57090D01*
X103439Y57090D02*
X118900Y57090D01*
X123100Y57090D02*
X134101Y57090D01*
X26474Y57139D02*
X35675Y57139D01*
X39875Y57139D02*
X56549Y57139D01*
X57943Y57139D02*
X61410Y57139D01*
X61867Y57139D02*
X62200Y57139D01*
X66400Y57139D02*
X70784Y57139D01*
X71773Y57139D02*
X74956Y57139D01*
X75894Y57139D02*
X89087Y57139D01*
X89213Y57139D02*
X89900Y57139D01*
X94100Y57139D02*
X102445Y57139D01*
X103455Y57139D02*
X118900Y57139D01*
X123100Y57139D02*
X134130Y57139D01*
X26440Y57189D02*
X35675Y57189D01*
X39875Y57189D02*
X56584Y57189D01*
X57978Y57189D02*
X61328Y57189D01*
X61950Y57189D02*
X62200Y57189D01*
X66400Y57189D02*
X70772Y57189D01*
X71785Y57189D02*
X74982Y57189D01*
X75868Y57189D02*
X89900Y57189D01*
X94100Y57189D02*
X102439Y57189D01*
X103461Y57189D02*
X118900Y57189D01*
X123100Y57189D02*
X134158Y57189D01*
X26406Y57238D02*
X35675Y57238D01*
X39875Y57238D02*
X56637Y57238D01*
X58010Y57238D02*
X61272Y57238D01*
X62006Y57238D02*
X62200Y57238D01*
X66400Y57238D02*
X70766Y57238D01*
X71791Y57238D02*
X75016Y57238D01*
X75834Y57238D02*
X89900Y57238D01*
X94100Y57238D02*
X102433Y57238D01*
X103467Y57238D02*
X118900Y57238D01*
X123100Y57238D02*
X134187Y57238D01*
X26372Y57288D02*
X35675Y57288D01*
X39875Y57288D02*
X56702Y57288D01*
X58029Y57288D02*
X61229Y57288D01*
X62048Y57288D02*
X62200Y57288D01*
X66400Y57288D02*
X70761Y57288D01*
X71796Y57288D02*
X75059Y57288D01*
X75791Y57288D02*
X89900Y57288D01*
X94100Y57288D02*
X102427Y57288D01*
X103464Y57288D02*
X118900Y57288D01*
X123100Y57288D02*
X134216Y57288D01*
X26339Y57337D02*
X35675Y57337D01*
X39875Y57337D02*
X56802Y57337D01*
X58048Y57337D02*
X61195Y57337D01*
X62082Y57337D02*
X62143Y57337D01*
X66400Y57337D02*
X70767Y57337D01*
X71790Y57337D02*
X75115Y57337D01*
X75735Y57337D02*
X89900Y57337D01*
X94100Y57337D02*
X102289Y57337D01*
X103458Y57337D02*
X118900Y57337D01*
X123100Y57337D02*
X134245Y57337D01*
X26305Y57387D02*
X35675Y57387D01*
X39875Y57387D02*
X57042Y57387D01*
X58058Y57387D02*
X61170Y57387D01*
X66400Y57387D02*
X70773Y57387D01*
X71784Y57387D02*
X75198Y57387D01*
X75652Y57387D02*
X89900Y57387D01*
X94100Y57387D02*
X102205Y57387D01*
X103448Y57387D02*
X118900Y57387D01*
X123100Y57387D02*
X134274Y57387D01*
X26271Y57436D02*
X35675Y57436D01*
X39875Y57436D02*
X57036Y57436D01*
X58064Y57436D02*
X61151Y57436D01*
X66400Y57436D02*
X70786Y57436D01*
X71771Y57436D02*
X75350Y57436D01*
X75500Y57436D02*
X89900Y57436D01*
X94100Y57436D02*
X102149Y57436D01*
X103430Y57436D02*
X118900Y57436D01*
X123100Y57436D02*
X134303Y57436D01*
X26237Y57486D02*
X57033Y57486D01*
X58067Y57486D02*
X61135Y57486D01*
X62143Y57486D02*
X70804Y57486D01*
X71753Y57486D02*
X102106Y57486D01*
X103411Y57486D02*
X134332Y57486D01*
X26204Y57535D02*
X57039Y57535D01*
X58061Y57535D02*
X61129Y57535D01*
X62149Y57535D02*
X70826Y57535D01*
X71731Y57535D02*
X102072Y57535D01*
X103378Y57535D02*
X134360Y57535D01*
X26170Y57585D02*
X51779Y57585D01*
X52221Y57585D02*
X57045Y57585D01*
X58055Y57585D02*
X61123Y57585D01*
X62155Y57585D02*
X70860Y57585D01*
X71697Y57585D02*
X102046Y57585D01*
X103344Y57585D02*
X134389Y57585D01*
X26136Y57634D02*
X51693Y57634D01*
X52307Y57634D02*
X57060Y57634D01*
X58040Y57634D02*
X61125Y57634D01*
X62153Y57634D02*
X70894Y57634D01*
X71660Y57634D02*
X102027Y57634D01*
X103292Y57634D02*
X134418Y57634D01*
X26102Y57684D02*
X51637Y57684D01*
X52363Y57684D02*
X57079Y57684D01*
X58021Y57684D02*
X61131Y57684D01*
X62147Y57684D02*
X70929Y57684D01*
X71604Y57684D02*
X102010Y57684D01*
X103230Y57684D02*
X134447Y57684D01*
X26069Y57734D02*
X51593Y57734D01*
X52407Y57734D02*
X57103Y57734D01*
X57997Y57734D02*
X61139Y57734D01*
X62138Y57734D02*
X70804Y57734D01*
X71532Y57734D02*
X102004Y57734D01*
X103136Y57734D02*
X134476Y57734D01*
X26035Y57783D02*
X51559Y57783D01*
X52441Y57783D02*
X57138Y57783D01*
X57962Y57783D02*
X61158Y57783D01*
X62119Y57783D02*
X70695Y57783D01*
X71409Y57783D02*
X101998Y57783D01*
X103122Y57783D02*
X134505Y57783D01*
X26001Y57833D02*
X51532Y57833D01*
X52468Y57833D02*
X57178Y57833D01*
X57922Y57833D02*
X61177Y57833D01*
X62100Y57833D02*
X70627Y57833D01*
X71315Y57833D02*
X102000Y57833D01*
X103128Y57833D02*
X134534Y57833D01*
X25967Y57882D02*
X51513Y57882D01*
X52487Y57882D02*
X57234Y57882D01*
X57866Y57882D02*
X61209Y57882D01*
X62069Y57882D02*
X70572Y57882D01*
X71349Y57882D02*
X102006Y57882D01*
X103271Y57882D02*
X134562Y57882D01*
X25934Y57932D02*
X51496Y57932D01*
X52504Y57932D02*
X57313Y57932D01*
X57787Y57932D02*
X61243Y57932D01*
X62035Y57932D02*
X70538Y57932D01*
X71383Y57932D02*
X102014Y57932D01*
X103383Y57932D02*
X134591Y57932D01*
X25900Y57981D02*
X51490Y57981D01*
X52510Y57981D02*
X57454Y57981D01*
X57646Y57981D02*
X61294Y57981D01*
X61984Y57981D02*
X70503Y57981D01*
X71417Y57981D02*
X102033Y57981D01*
X103452Y57981D02*
X134620Y57981D01*
X25866Y58031D02*
X51484Y58031D01*
X52516Y58031D02*
X61353Y58031D01*
X61925Y58031D02*
X70484Y58031D01*
X71437Y58031D02*
X102052Y58031D01*
X103508Y58031D02*
X134649Y58031D01*
X25832Y58080D02*
X51485Y58080D01*
X52515Y58080D02*
X61447Y58080D01*
X61830Y58080D02*
X70465Y58080D01*
X71456Y58080D02*
X102083Y58080D01*
X103542Y58080D02*
X134678Y58080D01*
X25799Y58130D02*
X51491Y58130D01*
X52509Y58130D02*
X70454Y58130D01*
X71467Y58130D02*
X102117Y58130D01*
X103576Y58130D02*
X134707Y58130D01*
X25765Y58179D02*
X51499Y58179D01*
X52501Y58179D02*
X70448Y58179D01*
X71473Y58179D02*
X102167Y58179D01*
X103597Y58179D02*
X134736Y58179D01*
X25731Y58229D02*
X35910Y58229D01*
X36329Y58229D02*
X51518Y58229D01*
X52482Y58229D02*
X70442Y58229D01*
X71478Y58229D02*
X102224Y58229D01*
X103615Y58229D02*
X134764Y58229D01*
X25697Y58278D02*
X35820Y58278D01*
X36420Y58278D02*
X51536Y58278D01*
X52464Y58278D02*
X70448Y58278D01*
X71472Y58278D02*
X72281Y58278D01*
X72469Y58278D02*
X102319Y58278D01*
X103627Y58278D02*
X134793Y58278D01*
X25664Y58328D02*
X35764Y58328D01*
X36476Y58328D02*
X51567Y58328D01*
X52433Y58328D02*
X70454Y58328D01*
X71466Y58328D02*
X72139Y58328D01*
X72611Y58328D02*
X102597Y58328D01*
X103633Y58328D02*
X134822Y58328D01*
X25630Y58377D02*
X35717Y58377D01*
X36522Y58377D02*
X51601Y58377D01*
X52399Y58377D02*
X70468Y58377D01*
X71453Y58377D02*
X72059Y58377D01*
X72691Y58377D02*
X102603Y58377D01*
X103638Y58377D02*
X134851Y58377D01*
X25596Y58427D02*
X35683Y58427D01*
X36556Y58427D02*
X44359Y58427D01*
X44618Y58427D02*
X51650Y58427D01*
X52350Y58427D02*
X70487Y58427D01*
X71434Y58427D02*
X72004Y58427D01*
X72746Y58427D02*
X102609Y58427D01*
X103632Y58427D02*
X134880Y58427D01*
X25562Y58477D02*
X35654Y58477D01*
X36585Y58477D02*
X44236Y58477D01*
X44741Y58477D02*
X51706Y58477D01*
X52294Y58477D02*
X69181Y58477D01*
X69436Y58477D02*
X70509Y58477D01*
X71412Y58477D02*
X71963Y58477D01*
X72787Y58477D02*
X102615Y58477D01*
X103626Y58477D02*
X134909Y58477D01*
X25529Y58526D02*
X35635Y58526D01*
X36604Y58526D02*
X44163Y58526D01*
X44814Y58526D02*
X45150Y58526D01*
X45400Y58526D02*
X51800Y58526D01*
X52200Y58526D02*
X69057Y58526D01*
X69560Y58526D02*
X70543Y58526D01*
X71378Y58526D02*
X71929Y58526D01*
X72821Y58526D02*
X102628Y58526D01*
X103620Y58526D02*
X134937Y58526D01*
X25495Y58576D02*
X35617Y58576D01*
X36623Y58576D02*
X44107Y58576D01*
X44870Y58576D02*
X45024Y58576D01*
X45526Y58576D02*
X68983Y58576D01*
X69633Y58576D02*
X70580Y58576D01*
X71340Y58576D02*
X71904Y58576D01*
X72846Y58576D02*
X102646Y58576D01*
X103853Y58576D02*
X134966Y58576D01*
X25461Y58625D02*
X35611Y58625D01*
X36629Y58625D02*
X44070Y58625D01*
X44907Y58625D02*
X44950Y58625D01*
X45599Y58625D02*
X68927Y58625D01*
X69689Y58625D02*
X70636Y58625D01*
X71284Y58625D02*
X71885Y58625D01*
X72865Y58625D02*
X102668Y58625D01*
X103946Y58625D02*
X134966Y58625D01*
X25427Y58675D02*
X35605Y58675D01*
X36635Y58675D02*
X44036Y58675D01*
X45655Y58675D02*
X53149Y58675D01*
X53551Y58675D02*
X68890Y58675D01*
X69726Y58675D02*
X70710Y58675D01*
X71211Y58675D02*
X71870Y58675D01*
X72880Y58675D02*
X102702Y58675D01*
X104002Y58675D02*
X134966Y58675D01*
X25394Y58724D02*
X35604Y58724D01*
X36635Y58724D02*
X44014Y58724D01*
X45692Y58724D02*
X53055Y58724D01*
X53645Y58724D02*
X68856Y58724D01*
X69760Y58724D02*
X70836Y58724D01*
X71085Y58724D02*
X71864Y58724D01*
X72886Y58724D02*
X102739Y58724D01*
X104050Y58724D02*
X134966Y58724D01*
X25360Y58774D02*
X35610Y58774D01*
X36629Y58774D02*
X43996Y58774D01*
X45727Y58774D02*
X52999Y58774D01*
X53701Y58774D02*
X68834Y58774D01*
X69782Y58774D02*
X71858Y58774D01*
X72892Y58774D02*
X102795Y58774D01*
X104084Y58774D02*
X134966Y58774D01*
X25326Y58823D02*
X35616Y58823D01*
X36623Y58823D02*
X43983Y58823D01*
X45749Y58823D02*
X52950Y58823D01*
X53750Y58823D02*
X68816Y58823D01*
X69801Y58823D02*
X71861Y58823D01*
X72889Y58823D02*
X102867Y58823D01*
X104114Y58823D02*
X134966Y58823D01*
X25292Y58873D02*
X35635Y58873D01*
X36604Y58873D02*
X43977Y58873D01*
X45767Y58873D02*
X52916Y58873D01*
X53784Y58873D02*
X68802Y58873D01*
X69814Y58873D02*
X71867Y58873D01*
X72883Y58873D02*
X102990Y58873D01*
X104133Y58873D02*
X134966Y58873D01*
X25259Y58922D02*
X35654Y58922D01*
X36586Y58922D02*
X43971Y58922D01*
X45781Y58922D02*
X52886Y58922D01*
X53814Y58922D02*
X68796Y58922D01*
X69820Y58922D02*
X71877Y58922D01*
X72873Y58922D02*
X103147Y58922D01*
X104152Y58922D02*
X134966Y58922D01*
X25225Y58972D02*
X35682Y58972D01*
X36557Y58972D02*
X43976Y58972D01*
X45787Y58972D02*
X52867Y58972D01*
X53833Y58972D02*
X68790Y58972D01*
X69826Y58972D02*
X71212Y58972D01*
X71345Y58972D02*
X71896Y58972D01*
X72854Y58972D02*
X103141Y58972D01*
X104159Y58972D02*
X134966Y58972D01*
X25191Y59021D02*
X35716Y59021D01*
X36523Y59021D02*
X43982Y59021D01*
X45793Y59021D02*
X52849Y59021D01*
X53851Y59021D02*
X68796Y59021D01*
X69821Y59021D02*
X71055Y59021D01*
X71502Y59021D02*
X71914Y59021D01*
X72836Y59021D02*
X82769Y59021D01*
X82981Y59021D02*
X103135Y59021D01*
X104165Y59021D02*
X134966Y59021D01*
X25157Y59071D02*
X35763Y59071D01*
X36477Y59071D02*
X43994Y59071D01*
X45788Y59071D02*
X52841Y59071D01*
X53859Y59071D02*
X68802Y59071D01*
X69815Y59071D02*
X70970Y59071D01*
X71587Y59071D02*
X71947Y59071D01*
X72803Y59071D02*
X82633Y59071D01*
X83117Y59071D02*
X93697Y59071D01*
X94085Y59071D02*
X103134Y59071D01*
X104166Y59071D02*
X134966Y59071D01*
X25124Y59120D02*
X35818Y59120D01*
X36421Y59120D02*
X44012Y59120D01*
X45782Y59120D02*
X52835Y59120D01*
X53865Y59120D02*
X68813Y59120D01*
X69803Y59120D02*
X70914Y59120D01*
X71643Y59120D02*
X71981Y59120D01*
X72769Y59120D02*
X82556Y59120D01*
X83194Y59120D02*
X93602Y59120D01*
X94179Y59120D02*
X103140Y59120D01*
X104160Y59120D02*
X134966Y59120D01*
X25090Y59170D02*
X35908Y59170D01*
X36331Y59170D02*
X44032Y59170D01*
X45770Y59170D02*
X52834Y59170D01*
X53866Y59170D02*
X68832Y59170D01*
X69785Y59170D02*
X70871Y59170D01*
X71686Y59170D02*
X72033Y59170D01*
X72717Y59170D02*
X82500Y59170D01*
X83250Y59170D02*
X93544Y59170D01*
X94238Y59170D02*
X103146Y59170D01*
X104154Y59170D02*
X134966Y59170D01*
X25056Y59219D02*
X44067Y59219D01*
X45751Y59219D02*
X52840Y59219D01*
X53860Y59219D02*
X68852Y59219D01*
X69765Y59219D02*
X70837Y59219D01*
X71720Y59219D02*
X72095Y59219D01*
X72655Y59219D02*
X82461Y59219D01*
X83289Y59219D02*
X93494Y59219D01*
X94288Y59219D02*
X103164Y59219D01*
X104136Y59219D02*
X110384Y59219D01*
X110767Y59219D02*
X134966Y59219D01*
X25022Y59269D02*
X44101Y59269D01*
X45732Y59269D02*
X52846Y59269D01*
X53854Y59269D02*
X68886Y59269D01*
X69730Y59269D02*
X70810Y59269D01*
X71747Y59269D02*
X72190Y59269D01*
X72560Y59269D02*
X82427Y59269D01*
X83323Y59269D02*
X93460Y59269D01*
X94322Y59269D02*
X103183Y59269D01*
X104117Y59269D02*
X110290Y59269D01*
X110861Y59269D02*
X134966Y59269D01*
X24988Y59319D02*
X44157Y59319D01*
X44821Y59319D02*
X44852Y59319D01*
X45698Y59319D02*
X52864Y59319D01*
X53836Y59319D02*
X68920Y59319D01*
X69696Y59319D02*
X70791Y59319D01*
X71765Y59319D02*
X82403Y59319D01*
X83347Y59319D02*
X93428Y59319D01*
X94353Y59319D02*
X103210Y59319D01*
X104090Y59319D02*
X110230Y59319D01*
X110921Y59319D02*
X134966Y59319D01*
X24955Y59368D02*
X44226Y59368D01*
X44751Y59368D02*
X44887Y59368D01*
X45663Y59368D02*
X52882Y59368D01*
X53818Y59368D02*
X68976Y59368D01*
X69640Y59368D02*
X70774Y59368D01*
X71783Y59368D02*
X82384Y59368D01*
X83366Y59368D02*
X93410Y59368D01*
X94372Y59368D02*
X103244Y59368D01*
X104056Y59368D02*
X110179Y59368D01*
X110971Y59368D02*
X134966Y59368D01*
X24950Y59418D02*
X44337Y59418D01*
X44640Y59418D02*
X44942Y59418D01*
X45608Y59418D02*
X52910Y59418D01*
X53790Y59418D02*
X69044Y59418D01*
X69572Y59418D02*
X70768Y59418D01*
X71789Y59418D02*
X82370Y59418D01*
X83380Y59418D02*
X93391Y59418D01*
X94391Y59418D02*
X103289Y59418D01*
X104011Y59418D02*
X110145Y59418D01*
X111006Y59418D02*
X134966Y59418D01*
X24950Y59467D02*
X45010Y59467D01*
X45540Y59467D02*
X52944Y59467D01*
X53756Y59467D02*
X69155Y59467D01*
X69461Y59467D02*
X70762Y59467D01*
X71795Y59467D02*
X82364Y59467D01*
X83386Y59467D02*
X93383Y59467D01*
X94399Y59467D02*
X103345Y59467D01*
X103955Y59467D02*
X110114Y59467D01*
X111037Y59467D02*
X134966Y59467D01*
X24950Y59517D02*
X45120Y59517D01*
X45430Y59517D02*
X52988Y59517D01*
X53712Y59517D02*
X70764Y59517D01*
X71793Y59517D02*
X82358Y59517D01*
X83392Y59517D02*
X93377Y59517D01*
X94405Y59517D02*
X103432Y59517D01*
X103868Y59517D02*
X110095Y59517D01*
X111056Y59517D02*
X134966Y59517D01*
X24950Y59566D02*
X53044Y59566D01*
X53656Y59566D02*
X70770Y59566D01*
X71787Y59566D02*
X82362Y59566D01*
X83388Y59566D02*
X93375Y59566D01*
X94407Y59566D02*
X110076Y59566D01*
X111075Y59566D02*
X134966Y59566D01*
X24950Y59616D02*
X53130Y59616D01*
X53570Y59616D02*
X70778Y59616D01*
X71779Y59616D02*
X82368Y59616D01*
X83382Y59616D02*
X93381Y59616D01*
X94401Y59616D02*
X110067Y59616D01*
X111083Y59616D02*
X134966Y59616D01*
X24950Y59665D02*
X70797Y59665D01*
X71760Y59665D02*
X81842Y59665D01*
X82208Y59665D02*
X82365Y59665D01*
X83372Y59665D02*
X93387Y59665D01*
X94395Y59665D02*
X110061Y59665D01*
X111089Y59665D02*
X134966Y59665D01*
X24950Y59715D02*
X70815Y59715D01*
X71742Y59715D02*
X81747Y59715D01*
X83353Y59715D02*
X93403Y59715D01*
X94379Y59715D02*
X110059Y59715D01*
X111092Y59715D02*
X134966Y59715D01*
X24950Y59764D02*
X70846Y59764D01*
X71711Y59764D02*
X81685Y59764D01*
X83334Y59764D02*
X93422Y59764D01*
X94360Y59764D02*
X110065Y59764D01*
X111086Y59764D02*
X134966Y59764D01*
X24950Y59814D02*
X58299Y59814D01*
X58451Y59814D02*
X59485Y59814D01*
X59636Y59814D02*
X70880Y59814D01*
X71677Y59814D02*
X81632Y59814D01*
X83301Y59814D02*
X93448Y59814D01*
X94334Y59814D02*
X110071Y59814D01*
X111080Y59814D02*
X134966Y59814D01*
X24950Y59863D02*
X58148Y59863D01*
X58602Y59863D02*
X59333Y59863D01*
X59788Y59863D02*
X70886Y59863D01*
X71671Y59863D02*
X81598Y59863D01*
X83267Y59863D02*
X93482Y59863D01*
X94300Y59863D02*
X110087Y59863D01*
X111064Y59863D02*
X134966Y59863D01*
X24950Y59913D02*
X58064Y59913D01*
X58686Y59913D02*
X59250Y59913D01*
X59871Y59913D02*
X70852Y59913D01*
X71705Y59913D02*
X81565Y59913D01*
X83213Y59913D02*
X93525Y59913D01*
X94257Y59913D02*
X110106Y59913D01*
X111045Y59913D02*
X134966Y59913D01*
X24950Y59962D02*
X58008Y59962D01*
X58742Y59962D02*
X59194Y59962D01*
X59927Y59962D02*
X70818Y59962D01*
X71739Y59962D02*
X81546Y59962D01*
X83149Y59962D02*
X93581Y59962D01*
X94201Y59962D02*
X110131Y59962D01*
X111019Y59962D02*
X134966Y59962D01*
X24950Y60012D02*
X57966Y60012D01*
X58784Y60012D02*
X59151Y60012D01*
X59969Y60012D02*
X70800Y60012D01*
X71757Y60012D02*
X81527Y60012D01*
X82532Y60012D02*
X82701Y60012D01*
X83049Y60012D02*
X93664Y60012D01*
X94118Y60012D02*
X110166Y60012D01*
X110985Y60012D02*
X127520Y60012D01*
X127657Y60012D02*
X134966Y60012D01*
X24950Y60061D02*
X43671Y60061D01*
X44006Y60061D02*
X57932Y60061D01*
X58818Y60061D02*
X59117Y60061D01*
X60004Y60061D02*
X70781Y60061D01*
X71776Y60061D02*
X81517Y60061D01*
X82533Y60061D02*
X93816Y60061D01*
X93966Y60061D02*
X110208Y60061D01*
X110943Y60061D02*
X127365Y60061D01*
X127812Y60061D02*
X134966Y60061D01*
X24950Y60111D02*
X43568Y60111D01*
X44109Y60111D02*
X57906Y60111D01*
X58844Y60111D02*
X59091Y60111D01*
X60029Y60111D02*
X70771Y60111D01*
X71786Y60111D02*
X81511Y60111D01*
X82539Y60111D02*
X110263Y60111D01*
X110887Y60111D02*
X127280Y60111D01*
X127897Y60111D02*
X134966Y60111D01*
X24950Y60161D02*
X43502Y60161D01*
X44175Y60161D02*
X57887Y60161D01*
X58863Y60161D02*
X59072Y60161D01*
X60048Y60161D02*
X70765Y60161D01*
X71792Y60161D02*
X81508Y60161D01*
X82542Y60161D02*
X86756Y60161D01*
X86965Y60161D02*
X110346Y60161D01*
X110805Y60161D02*
X127224Y60161D01*
X127953Y60161D02*
X134966Y60161D01*
X24950Y60210D02*
X43448Y60210D01*
X44229Y60210D02*
X57871Y60210D01*
X58879Y60210D02*
X59056Y60210D01*
X60065Y60210D02*
X70761Y60210D01*
X71796Y60210D02*
X81514Y60210D01*
X82536Y60210D02*
X86619Y60210D01*
X87101Y60210D02*
X110495Y60210D01*
X110656Y60210D02*
X127181Y60210D01*
X127996Y60210D02*
X134966Y60210D01*
X24950Y60260D02*
X43414Y60260D01*
X44263Y60260D02*
X57865Y60260D01*
X58885Y60260D02*
X59050Y60260D01*
X60071Y60260D02*
X70767Y60260D01*
X71790Y60260D02*
X81520Y60260D01*
X82530Y60260D02*
X86542Y60260D01*
X87179Y60260D02*
X127147Y60260D01*
X128030Y60260D02*
X134966Y60260D01*
X24950Y60309D02*
X43380Y60309D01*
X44297Y60309D02*
X57859Y60309D01*
X58891Y60309D02*
X59044Y60309D01*
X60077Y60309D02*
X70773Y60309D01*
X71783Y60309D02*
X81535Y60309D01*
X82515Y60309D02*
X86486Y60309D01*
X87235Y60309D02*
X98400Y60309D01*
X98641Y60309D02*
X127120Y60309D01*
X128057Y60309D02*
X134966Y60309D01*
X24950Y60359D02*
X43361Y60359D01*
X44316Y60359D02*
X57861Y60359D01*
X58889Y60359D02*
X59046Y60359D01*
X60075Y60359D02*
X70788Y60359D01*
X71769Y60359D02*
X81554Y60359D01*
X82496Y60359D02*
X85519Y60359D01*
X85831Y60359D02*
X86446Y60359D01*
X87274Y60359D02*
X98272Y60359D01*
X98769Y60359D02*
X112930Y60359D01*
X113370Y60359D02*
X127101Y60359D01*
X128076Y60359D02*
X134966Y60359D01*
X24950Y60408D02*
X43342Y60408D01*
X44335Y60408D02*
X57867Y60408D01*
X58883Y60408D02*
X59052Y60408D01*
X60069Y60408D02*
X70807Y60408D01*
X71750Y60408D02*
X81578Y60408D01*
X82472Y60408D02*
X85410Y60408D01*
X85940Y60408D02*
X86412Y60408D01*
X87308Y60408D02*
X98197Y60408D01*
X98843Y60408D02*
X112844Y60408D01*
X113456Y60408D02*
X127084Y60408D01*
X128093Y60408D02*
X134966Y60408D01*
X24950Y60458D02*
X32088Y60458D01*
X32291Y60458D02*
X43331Y60458D01*
X44346Y60458D02*
X57875Y60458D01*
X58875Y60458D02*
X59060Y60458D01*
X60060Y60458D02*
X70831Y60458D01*
X71726Y60458D02*
X81612Y60458D01*
X82438Y60458D02*
X85342Y60458D01*
X86008Y60458D02*
X86388Y60458D01*
X87332Y60458D02*
X98141Y60458D01*
X98899Y60458D02*
X112788Y60458D01*
X113512Y60458D02*
X127078Y60458D01*
X128099Y60458D02*
X134966Y60458D01*
X24950Y60507D02*
X31950Y60507D01*
X32429Y60507D02*
X43325Y60507D01*
X44352Y60507D02*
X57894Y60507D01*
X58856Y60507D02*
X59079Y60507D01*
X60041Y60507D02*
X70865Y60507D01*
X71692Y60507D02*
X76474Y60507D01*
X76776Y60507D02*
X81652Y60507D01*
X82398Y60507D02*
X85286Y60507D01*
X86063Y60507D02*
X86370Y60507D01*
X87351Y60507D02*
X98104Y60507D01*
X98937Y60507D02*
X112744Y60507D01*
X113556Y60507D02*
X127072Y60507D01*
X128105Y60507D02*
X134966Y60507D01*
X24950Y60557D02*
X31872Y60557D01*
X32507Y60557D02*
X43321Y60557D01*
X44356Y60557D02*
X57913Y60557D01*
X58837Y60557D02*
X59098Y60557D01*
X60023Y60557D02*
X70905Y60557D01*
X71652Y60557D02*
X76362Y60557D01*
X76888Y60557D02*
X81708Y60557D01*
X82342Y60557D02*
X85252Y60557D01*
X86098Y60557D02*
X86355Y60557D01*
X87365Y60557D02*
X98070Y60557D01*
X98971Y60557D02*
X112710Y60557D01*
X113590Y60557D02*
X127074Y60557D01*
X128103Y60557D02*
X134966Y60557D01*
X24950Y60606D02*
X31816Y60606D01*
X32563Y60606D02*
X43327Y60606D01*
X44350Y60606D02*
X57944Y60606D01*
X58806Y60606D02*
X59129Y60606D01*
X59991Y60606D02*
X70961Y60606D01*
X71596Y60606D02*
X76294Y60606D01*
X76956Y60606D02*
X81787Y60606D01*
X82263Y60606D02*
X85218Y60606D01*
X86132Y60606D02*
X86349Y60606D01*
X87371Y60606D02*
X98047Y60606D01*
X98994Y60606D02*
X112682Y60606D01*
X113618Y60606D02*
X127080Y60606D01*
X128097Y60606D02*
X134966Y60606D01*
X24950Y60656D02*
X31776Y60656D01*
X32603Y60656D02*
X43333Y60656D01*
X44344Y60656D02*
X57978Y60656D01*
X58772Y60656D02*
X59164Y60656D01*
X59957Y60656D02*
X71040Y60656D01*
X71517Y60656D02*
X76238Y60656D01*
X77012Y60656D02*
X81927Y60656D01*
X82123Y60656D02*
X85198Y60656D01*
X86151Y60656D02*
X86343Y60656D01*
X87377Y60656D02*
X98028Y60656D01*
X99012Y60656D02*
X112664Y60656D01*
X113636Y60656D02*
X127088Y60656D01*
X128089Y60656D02*
X134966Y60656D01*
X24950Y60705D02*
X31742Y60705D01*
X32637Y60705D02*
X43347Y60705D01*
X44330Y60705D02*
X58028Y60705D01*
X58722Y60705D02*
X59214Y60705D01*
X59907Y60705D02*
X71179Y60705D01*
X71378Y60705D02*
X76203Y60705D01*
X77047Y60705D02*
X85179Y60705D01*
X86170Y60705D02*
X86347Y60705D01*
X87373Y60705D02*
X98015Y60705D01*
X99026Y60705D02*
X112646Y60705D01*
X113654Y60705D02*
X127107Y60705D01*
X128070Y60705D02*
X134966Y60705D01*
X24950Y60755D02*
X31718Y60755D01*
X32661Y60755D02*
X43366Y60755D01*
X44311Y60755D02*
X58087Y60755D01*
X58663Y60755D02*
X59272Y60755D01*
X59848Y60755D02*
X76169Y60755D01*
X77081Y60755D02*
X85168Y60755D01*
X86182Y60755D02*
X86353Y60755D01*
X87367Y60755D02*
X98009Y60755D01*
X99032Y60755D02*
X112640Y60755D01*
X113660Y60755D02*
X127125Y60755D01*
X128052Y60755D02*
X134966Y60755D01*
X24950Y60804D02*
X31699Y60804D01*
X32680Y60804D02*
X43389Y60804D01*
X44288Y60804D02*
X58181Y60804D01*
X58569Y60804D02*
X59367Y60804D01*
X59754Y60804D02*
X76149Y60804D01*
X77101Y60804D02*
X85162Y60804D01*
X86188Y60804D02*
X86363Y60804D01*
X87357Y60804D02*
X98003Y60804D01*
X99038Y60804D02*
X112634Y60804D01*
X113666Y60804D02*
X127156Y60804D01*
X128021Y60804D02*
X134966Y60804D01*
X24950Y60854D02*
X31685Y60854D01*
X32695Y60854D02*
X43423Y60854D01*
X44254Y60854D02*
X76130Y60854D01*
X77120Y60854D02*
X85157Y60854D01*
X86193Y60854D02*
X86382Y60854D01*
X87339Y60854D02*
X98008Y60854D01*
X99033Y60854D02*
X112635Y60854D01*
X113665Y60854D02*
X127190Y60854D01*
X127987Y60854D02*
X134966Y60854D01*
X24950Y60903D02*
X31679Y60903D01*
X32701Y60903D02*
X43462Y60903D01*
X44215Y60903D02*
X76118Y60903D01*
X77132Y60903D02*
X85163Y60903D01*
X86187Y60903D02*
X86400Y60903D01*
X87320Y60903D02*
X98014Y60903D01*
X99027Y60903D02*
X112641Y60903D01*
X113659Y60903D02*
X127240Y60903D01*
X127937Y60903D02*
X134966Y60903D01*
X24950Y60953D02*
X31673Y60953D01*
X32707Y60953D02*
X43518Y60953D01*
X44159Y60953D02*
X76112Y60953D01*
X77138Y60953D02*
X85169Y60953D01*
X86181Y60953D02*
X86434Y60953D01*
X87286Y60953D02*
X98025Y60953D01*
X99016Y60953D02*
X112649Y60953D01*
X113651Y60953D02*
X127297Y60953D01*
X127880Y60953D02*
X134966Y60953D01*
X24950Y61003D02*
X31676Y61003D01*
X32703Y61003D02*
X43594Y61003D01*
X44083Y61003D02*
X76107Y61003D01*
X77143Y61003D02*
X85182Y61003D01*
X86167Y61003D02*
X86468Y61003D01*
X87252Y61003D02*
X98043Y61003D01*
X98997Y61003D02*
X112667Y61003D01*
X113633Y61003D02*
X127391Y61003D01*
X127786Y61003D02*
X134966Y61003D01*
X24950Y61052D02*
X31682Y61052D01*
X32697Y61052D02*
X43726Y61052D01*
X43951Y61052D02*
X76113Y61052D01*
X77137Y61052D02*
X85201Y61052D01*
X86148Y61052D02*
X86522Y61052D01*
X87199Y61052D02*
X98063Y61052D01*
X98978Y61052D02*
X112686Y61052D01*
X113614Y61052D02*
X134966Y61052D01*
X24950Y61102D02*
X31692Y61102D01*
X32687Y61102D02*
X76119Y61102D01*
X77131Y61102D02*
X85223Y61102D01*
X86126Y61102D02*
X86586Y61102D01*
X87135Y61102D02*
X98097Y61102D01*
X98944Y61102D02*
X112716Y61102D01*
X113584Y61102D02*
X134966Y61102D01*
X24950Y61151D02*
X31711Y61151D01*
X32668Y61151D02*
X76132Y61151D01*
X77118Y61151D02*
X85258Y61151D01*
X86092Y61151D02*
X86684Y61151D01*
X87036Y61151D02*
X98131Y61151D01*
X98910Y61151D02*
X112750Y61151D01*
X113550Y61151D02*
X134966Y61151D01*
X24950Y61201D02*
X30124Y61201D01*
X30376Y61201D02*
X31730Y61201D01*
X32650Y61201D02*
X76151Y61201D01*
X77099Y61201D02*
X85295Y61201D01*
X86055Y61201D02*
X98186Y61201D01*
X98854Y61201D02*
X112799Y61201D01*
X113501Y61201D02*
X134966Y61201D01*
X24950Y61250D02*
X29999Y61250D01*
X30501Y61250D02*
X31763Y61250D01*
X32616Y61250D02*
X76173Y61250D01*
X77077Y61250D02*
X85351Y61250D01*
X85999Y61250D02*
X98253Y61250D01*
X98787Y61250D02*
X112855Y61250D01*
X113445Y61250D02*
X134966Y61250D01*
X24950Y61300D02*
X29926Y61300D01*
X30574Y61300D02*
X31797Y61300D01*
X32582Y61300D02*
X76207Y61300D01*
X77043Y61300D02*
X85425Y61300D01*
X85925Y61300D02*
X98360Y61300D01*
X98680Y61300D02*
X112949Y61300D01*
X113351Y61300D02*
X134966Y61300D01*
X24950Y61349D02*
X29870Y61349D01*
X30630Y61349D02*
X31850Y61349D01*
X32529Y61349D02*
X76243Y61349D01*
X77007Y61349D02*
X85551Y61349D01*
X85799Y61349D02*
X134966Y61349D01*
X24950Y61399D02*
X29832Y61399D01*
X30668Y61399D02*
X31914Y61399D01*
X32466Y61399D02*
X76299Y61399D01*
X76951Y61399D02*
X134966Y61399D01*
X24950Y61448D02*
X29798Y61448D01*
X30702Y61448D02*
X32011Y61448D01*
X32369Y61448D02*
X76372Y61448D01*
X76878Y61448D02*
X134966Y61448D01*
X24950Y61498D02*
X29776Y61498D01*
X30724Y61498D02*
X76495Y61498D01*
X76755Y61498D02*
X134966Y61498D01*
X24950Y61547D02*
X29757Y61547D01*
X30743Y61547D02*
X134966Y61547D01*
X24950Y61597D02*
X29744Y61597D01*
X30756Y61597D02*
X123064Y61597D01*
X123386Y61597D02*
X134966Y61597D01*
X24950Y61646D02*
X29738Y61646D01*
X30762Y61646D02*
X39780Y61646D01*
X39994Y61646D02*
X122958Y61646D01*
X123492Y61646D02*
X134966Y61646D01*
X24950Y61696D02*
X29732Y61696D01*
X30768Y61696D02*
X39645Y61696D01*
X40129Y61696D02*
X122891Y61696D01*
X123559Y61696D02*
X134966Y61696D01*
X24950Y61745D02*
X29737Y61745D01*
X30763Y61745D02*
X39568Y61745D01*
X40206Y61745D02*
X122836Y61745D01*
X123614Y61745D02*
X134966Y61745D01*
X24950Y61795D02*
X29743Y61795D01*
X30757Y61795D02*
X39512Y61795D01*
X40262Y61795D02*
X94380Y61795D01*
X94735Y61795D02*
X122801Y61795D01*
X123649Y61795D02*
X134966Y61795D01*
X24950Y61845D02*
X29755Y61845D01*
X30745Y61845D02*
X39473Y61845D01*
X40301Y61845D02*
X67066Y61845D01*
X67449Y61845D02*
X94282Y61845D01*
X94833Y61845D02*
X122767Y61845D01*
X123683Y61845D02*
X134966Y61845D01*
X24950Y61894D02*
X29774Y61894D01*
X30726Y61894D02*
X39438Y61894D01*
X40335Y61894D02*
X66972Y61894D01*
X67544Y61894D02*
X94219Y61894D01*
X94896Y61894D02*
X122748Y61894D01*
X123702Y61894D02*
X134966Y61894D01*
X24950Y61944D02*
X29793Y61944D01*
X30707Y61944D02*
X39415Y61944D01*
X40359Y61944D02*
X66912Y61944D01*
X67603Y61944D02*
X94165Y61944D01*
X94950Y61944D02*
X122729Y61944D01*
X123721Y61944D02*
X134966Y61944D01*
X24950Y61993D02*
X29827Y61993D01*
X30673Y61993D02*
X39396Y61993D01*
X40378Y61993D02*
X66862Y61993D01*
X67654Y61993D02*
X94131Y61993D01*
X94984Y61993D02*
X122718Y61993D01*
X123732Y61993D02*
X134966Y61993D01*
X24950Y62043D02*
X29862Y62043D01*
X30638Y62043D02*
X39382Y62043D01*
X40392Y62043D02*
X66827Y62043D01*
X67688Y62043D02*
X94098Y62043D01*
X95017Y62043D02*
X122712Y62043D01*
X123738Y62043D02*
X134966Y62043D01*
X24950Y62092D02*
X29917Y62092D01*
X30583Y62092D02*
X39376Y62092D01*
X40398Y62092D02*
X66796Y62092D01*
X67720Y62092D02*
X94079Y62092D01*
X95036Y62092D02*
X122707Y62092D01*
X123743Y62092D02*
X134966Y62092D01*
X24950Y62142D02*
X29985Y62142D01*
X30515Y62142D02*
X39370Y62142D01*
X40404Y62142D02*
X66777Y62142D01*
X67738Y62142D02*
X94060Y62142D01*
X95055Y62142D02*
X122713Y62142D01*
X123737Y62142D02*
X134966Y62142D01*
X24950Y62191D02*
X30095Y62191D01*
X30405Y62191D02*
X39374Y62191D01*
X40400Y62191D02*
X66758Y62191D01*
X67757Y62191D02*
X94050Y62191D01*
X95065Y62191D02*
X122719Y62191D01*
X123731Y62191D02*
X134966Y62191D01*
X24950Y62241D02*
X39380Y62241D01*
X40394Y62241D02*
X66750Y62241D01*
X67766Y62241D02*
X94044Y62241D01*
X95071Y62241D02*
X114283Y62241D01*
X114655Y62241D02*
X122733Y62241D01*
X123717Y62241D02*
X134966Y62241D01*
X24950Y62290D02*
X39390Y62290D01*
X40384Y62290D02*
X66744Y62290D01*
X67772Y62290D02*
X94040Y62290D01*
X95075Y62290D02*
X114189Y62290D01*
X114749Y62290D02*
X122752Y62290D01*
X123698Y62290D02*
X134966Y62290D01*
X24950Y62340D02*
X39409Y62340D01*
X40365Y62340D02*
X66741Y62340D01*
X67774Y62340D02*
X94046Y62340D01*
X95069Y62340D02*
X114127Y62340D01*
X114811Y62340D02*
X122774Y62340D01*
X123676Y62340D02*
X134966Y62340D01*
X24950Y62389D02*
X39428Y62389D01*
X40346Y62389D02*
X66747Y62389D01*
X67768Y62389D02*
X94052Y62389D01*
X95063Y62389D02*
X114075Y62389D01*
X114863Y62389D02*
X122809Y62389D01*
X123641Y62389D02*
X134966Y62389D01*
X24950Y62439D02*
X39461Y62439D01*
X40313Y62439D02*
X66753Y62439D01*
X67762Y62439D02*
X94067Y62439D01*
X95048Y62439D02*
X114041Y62439D01*
X114897Y62439D02*
X122846Y62439D01*
X123604Y62439D02*
X134966Y62439D01*
X24950Y62488D02*
X39495Y62488D01*
X40279Y62488D02*
X66769Y62488D01*
X67746Y62488D02*
X94086Y62488D01*
X95029Y62488D02*
X114008Y62488D01*
X114930Y62488D02*
X121248Y62488D01*
X121502Y62488D02*
X122902Y62488D01*
X123548Y62488D02*
X133070Y62488D01*
X133324Y62488D02*
X134966Y62488D01*
X24950Y62538D02*
X39549Y62538D01*
X40225Y62538D02*
X66788Y62538D01*
X67727Y62538D02*
X94110Y62538D01*
X95005Y62538D02*
X113989Y62538D01*
X114948Y62538D02*
X121124Y62538D01*
X121626Y62538D02*
X122977Y62538D01*
X123473Y62538D02*
X132946Y62538D01*
X133448Y62538D02*
X134966Y62538D01*
X24950Y62587D02*
X39613Y62587D01*
X40160Y62587D02*
X66814Y62587D01*
X67702Y62587D02*
X94144Y62587D01*
X94971Y62587D02*
X113971Y62587D01*
X114967Y62587D02*
X121050Y62587D01*
X121700Y62587D02*
X123105Y62587D01*
X123345Y62587D02*
X132872Y62587D01*
X133522Y62587D02*
X134966Y62587D01*
X24950Y62637D02*
X39713Y62637D01*
X40061Y62637D02*
X66848Y62637D01*
X67667Y62637D02*
X94183Y62637D01*
X94932Y62637D02*
X113961Y62637D01*
X114977Y62637D02*
X120994Y62637D01*
X121756Y62637D02*
X132816Y62637D01*
X133578Y62637D02*
X134966Y62637D01*
X24950Y62687D02*
X66890Y62687D01*
X67625Y62687D02*
X94239Y62687D01*
X94876Y62687D02*
X113955Y62687D01*
X114983Y62687D02*
X120957Y62687D01*
X121793Y62687D02*
X132779Y62687D01*
X133615Y62687D02*
X134966Y62687D01*
X24950Y62736D02*
X66946Y62736D01*
X67570Y62736D02*
X94317Y62736D01*
X94798Y62736D02*
X113952Y62736D01*
X114986Y62736D02*
X120923Y62736D01*
X121827Y62736D02*
X132745Y62736D01*
X133649Y62736D02*
X134966Y62736D01*
X24950Y62786D02*
X67028Y62786D01*
X67487Y62786D02*
X94454Y62786D01*
X94661Y62786D02*
X113958Y62786D01*
X114980Y62786D02*
X120901Y62786D01*
X121849Y62786D02*
X132723Y62786D01*
X133671Y62786D02*
X134966Y62786D01*
X24950Y62835D02*
X67178Y62835D01*
X67338Y62835D02*
X113964Y62835D01*
X114974Y62835D02*
X120882Y62835D01*
X121868Y62835D02*
X132704Y62835D01*
X133690Y62835D02*
X134966Y62835D01*
X24950Y62885D02*
X38822Y62885D01*
X39078Y62885D02*
X49278Y62885D01*
X49626Y62885D02*
X113980Y62885D01*
X114958Y62885D02*
X120869Y62885D01*
X121881Y62885D02*
X132691Y62885D01*
X133703Y62885D02*
X134966Y62885D01*
X24950Y62934D02*
X38698Y62934D01*
X39202Y62934D02*
X49179Y62934D01*
X49726Y62934D02*
X113998Y62934D01*
X114940Y62934D02*
X120863Y62934D01*
X121887Y62934D02*
X132685Y62934D01*
X133709Y62934D02*
X134966Y62934D01*
X24950Y62984D02*
X38625Y62984D01*
X39275Y62984D02*
X49114Y62984D01*
X49790Y62984D02*
X65696Y62984D01*
X65944Y62984D02*
X114023Y62984D01*
X114915Y62984D02*
X120857Y62984D01*
X121893Y62984D02*
X132679Y62984D01*
X133715Y62984D02*
X134966Y62984D01*
X24950Y63033D02*
X38569Y63033D01*
X39331Y63033D02*
X49061Y63033D01*
X49844Y63033D02*
X65570Y63033D01*
X66070Y63033D02*
X76601Y63033D01*
X77034Y63033D02*
X114057Y63033D01*
X114881Y63033D02*
X120862Y63033D01*
X121888Y63033D02*
X132684Y63033D01*
X133710Y63033D02*
X134966Y63033D01*
X24950Y63083D02*
X38532Y63083D01*
X39368Y63083D02*
X49026Y63083D01*
X49878Y63083D02*
X65496Y63083D01*
X66144Y63083D02*
X76514Y63083D01*
X77122Y63083D02*
X93017Y63083D01*
X93293Y63083D02*
X114098Y63083D01*
X114840Y63083D02*
X120868Y63083D01*
X121882Y63083D02*
X132690Y63083D01*
X133704Y63083D02*
X134966Y63083D01*
X24950Y63132D02*
X38498Y63132D01*
X39402Y63132D02*
X48993Y63132D01*
X49912Y63132D02*
X65440Y63132D01*
X66200Y63132D02*
X76458Y63132D01*
X77178Y63132D02*
X92899Y63132D01*
X93412Y63132D02*
X114154Y63132D01*
X114784Y63132D02*
X120880Y63132D01*
X121870Y63132D02*
X132702Y63132D01*
X133692Y63132D02*
X134966Y63132D01*
X24950Y63182D02*
X38476Y63182D01*
X39424Y63182D02*
X48974Y63182D01*
X49930Y63182D02*
X65403Y63182D01*
X66237Y63182D02*
X76413Y63182D01*
X77223Y63182D02*
X92827Y63182D01*
X93483Y63182D02*
X103776Y63182D01*
X104074Y63182D02*
X114234Y63182D01*
X114704Y63182D02*
X120899Y63182D01*
X121851Y63182D02*
X132721Y63182D01*
X133673Y63182D02*
X134966Y63182D01*
X24950Y63231D02*
X38457Y63231D01*
X39443Y63231D02*
X48955Y63231D01*
X49949Y63231D02*
X65368Y63231D01*
X66271Y63231D02*
X76379Y63231D01*
X77257Y63231D02*
X92771Y63231D01*
X93539Y63231D02*
X103663Y63231D01*
X104187Y63231D02*
X114376Y63231D01*
X114562Y63231D02*
X120918Y63231D01*
X121832Y63231D02*
X132741Y63231D01*
X133654Y63231D02*
X134966Y63231D01*
X24950Y63281D02*
X38444Y63281D01*
X39456Y63281D02*
X48945Y63281D01*
X49959Y63281D02*
X65346Y63281D01*
X66294Y63281D02*
X76351Y63281D01*
X77285Y63281D02*
X92736Y63281D01*
X93575Y63281D02*
X103594Y63281D01*
X104256Y63281D02*
X120953Y63281D01*
X121797Y63281D02*
X132775Y63281D01*
X133619Y63281D02*
X134966Y63281D01*
X24950Y63330D02*
X38438Y63330D01*
X39462Y63330D02*
X48939Y63330D01*
X49965Y63330D02*
X65328Y63330D01*
X66312Y63330D02*
X76332Y63330D01*
X77303Y63330D02*
X92701Y63330D01*
X93609Y63330D02*
X103538Y63330D01*
X104312Y63330D02*
X120987Y63330D01*
X121763Y63330D02*
X132809Y63330D01*
X133585Y63330D02*
X134966Y63330D01*
X24950Y63380D02*
X38432Y63380D01*
X39468Y63380D02*
X48935Y63380D01*
X49969Y63380D02*
X65314Y63380D01*
X66326Y63380D02*
X76314Y63380D01*
X77321Y63380D02*
X92680Y63380D01*
X93630Y63380D02*
X103504Y63380D01*
X104346Y63380D02*
X121043Y63380D01*
X121707Y63380D02*
X132865Y63380D01*
X133529Y63380D02*
X134966Y63380D01*
X24950Y63429D02*
X38437Y63429D01*
X39463Y63429D02*
X48941Y63429D01*
X49963Y63429D02*
X65308Y63429D01*
X66332Y63429D02*
X76308Y63429D01*
X77327Y63429D02*
X92661Y63429D01*
X93649Y63429D02*
X103469Y63429D01*
X104381Y63429D02*
X121111Y63429D01*
X121639Y63429D02*
X132933Y63429D01*
X133461Y63429D02*
X134966Y63429D01*
X24950Y63479D02*
X38443Y63479D01*
X39457Y63479D02*
X48947Y63479D01*
X49957Y63479D02*
X65302Y63479D01*
X66338Y63479D02*
X76302Y63479D01*
X77333Y63479D02*
X92649Y63479D01*
X93661Y63479D02*
X103449Y63479D01*
X104401Y63479D02*
X121221Y63479D01*
X121529Y63479D02*
X133043Y63479D01*
X133351Y63479D02*
X134966Y63479D01*
X24950Y63529D02*
X38455Y63529D01*
X39445Y63529D02*
X48961Y63529D01*
X49943Y63529D02*
X65307Y63529D01*
X66333Y63529D02*
X76303Y63529D01*
X77333Y63529D02*
X92643Y63529D01*
X93667Y63529D02*
X103430Y63529D01*
X104420Y63529D02*
X134966Y63529D01*
X24950Y63578D02*
X38474Y63578D01*
X39426Y63578D02*
X48980Y63578D01*
X49924Y63578D02*
X65313Y63578D01*
X66327Y63578D02*
X76309Y63578D01*
X77327Y63578D02*
X92637Y63578D01*
X93673Y63578D02*
X103419Y63578D01*
X104431Y63578D02*
X134966Y63578D01*
X24950Y63628D02*
X38494Y63628D01*
X39406Y63628D02*
X49004Y63628D01*
X49901Y63628D02*
X65325Y63628D01*
X66315Y63628D02*
X73473Y63628D01*
X73877Y63628D02*
X76316Y63628D01*
X77320Y63628D02*
X92643Y63628D01*
X93667Y63628D02*
X103412Y63628D01*
X104438Y63628D02*
X134966Y63628D01*
X24950Y63677D02*
X38528Y63677D01*
X39372Y63677D02*
X49038Y63677D01*
X49866Y63677D02*
X65343Y63677D01*
X66297Y63677D02*
X73380Y63677D01*
X73970Y63677D02*
X76334Y63677D01*
X77301Y63677D02*
X92649Y63677D01*
X93661Y63677D02*
X103407Y63677D01*
X104443Y63677D02*
X134966Y63677D01*
X24950Y63727D02*
X38562Y63727D01*
X39338Y63727D02*
X49077Y63727D01*
X49827Y63727D02*
X65363Y63727D01*
X66277Y63727D02*
X73324Y63727D01*
X74026Y63727D02*
X76353Y63727D01*
X77282Y63727D02*
X92661Y63727D01*
X93649Y63727D02*
X103413Y63727D01*
X104437Y63727D02*
X134966Y63727D01*
X24950Y63776D02*
X38618Y63776D01*
X39282Y63776D02*
X49133Y63776D01*
X49771Y63776D02*
X65397Y63776D01*
X66243Y63776D02*
X73275Y63776D01*
X74075Y63776D02*
X76383Y63776D01*
X77253Y63776D02*
X92680Y63776D01*
X93630Y63776D02*
X103419Y63776D01*
X104431Y63776D02*
X134966Y63776D01*
X24950Y63826D02*
X38686Y63826D01*
X39214Y63826D02*
X49210Y63826D01*
X49694Y63826D02*
X65431Y63826D01*
X66209Y63826D02*
X73241Y63826D01*
X74109Y63826D02*
X76417Y63826D01*
X77219Y63826D02*
X92701Y63826D01*
X93610Y63826D02*
X103432Y63826D01*
X104418Y63826D02*
X134966Y63826D01*
X24950Y63875D02*
X38797Y63875D01*
X39103Y63875D02*
X49346Y63875D01*
X49559Y63875D02*
X65487Y63875D01*
X66153Y63875D02*
X73211Y63875D01*
X74139Y63875D02*
X76465Y63875D01*
X77171Y63875D02*
X92735Y63875D01*
X93576Y63875D02*
X103451Y63875D01*
X104399Y63875D02*
X134966Y63875D01*
X24950Y63925D02*
X65555Y63925D01*
X66085Y63925D02*
X73192Y63925D01*
X74158Y63925D02*
X76521Y63925D01*
X77115Y63925D02*
X92770Y63925D01*
X93540Y63925D02*
X103472Y63925D01*
X104378Y63925D02*
X122395Y63925D01*
X122755Y63925D02*
X123457Y63925D01*
X123817Y63925D02*
X134966Y63925D01*
X24950Y63974D02*
X65664Y63974D01*
X65976Y63974D02*
X73174Y63974D01*
X74176Y63974D02*
X76613Y63974D01*
X77022Y63974D02*
X92826Y63974D01*
X93484Y63974D02*
X98727Y63974D01*
X98964Y63974D02*
X103506Y63974D01*
X104344Y63974D02*
X122299Y63974D01*
X122851Y63974D02*
X123361Y63974D01*
X123913Y63974D02*
X134966Y63974D01*
X24950Y64024D02*
X73166Y64024D01*
X74184Y64024D02*
X92896Y64024D01*
X93414Y64024D02*
X98598Y64024D01*
X99093Y64024D02*
X103543Y64024D01*
X104307Y64024D02*
X122235Y64024D01*
X122915Y64024D02*
X123297Y64024D01*
X123977Y64024D02*
X134966Y64024D01*
X24950Y64073D02*
X40173Y64073D01*
X40577Y64073D02*
X73160Y64073D01*
X74190Y64073D02*
X93012Y64073D01*
X93298Y64073D02*
X94687Y64073D01*
X94963Y64073D02*
X98523Y64073D01*
X99168Y64073D02*
X103599Y64073D01*
X104251Y64073D02*
X122182Y64073D01*
X122968Y64073D02*
X123244Y64073D01*
X124030Y64073D02*
X127698Y64073D01*
X127977Y64073D02*
X134966Y64073D01*
X24950Y64123D02*
X40080Y64123D01*
X40670Y64123D02*
X73159Y64123D01*
X74191Y64123D02*
X94568Y64123D01*
X95082Y64123D02*
X98467Y64123D01*
X99224Y64123D02*
X103671Y64123D01*
X104179Y64123D02*
X122148Y64123D01*
X123002Y64123D02*
X123210Y64123D01*
X124064Y64123D02*
X127580Y64123D01*
X128095Y64123D02*
X134966Y64123D01*
X24950Y64172D02*
X40024Y64172D01*
X40726Y64172D02*
X73165Y64172D01*
X74185Y64172D02*
X94497Y64172D01*
X95153Y64172D02*
X98429Y64172D01*
X99262Y64172D02*
X103793Y64172D01*
X104057Y64172D02*
X122115Y64172D01*
X123035Y64172D02*
X123177Y64172D01*
X124097Y64172D02*
X127509Y64172D01*
X128166Y64172D02*
X134966Y64172D01*
X24950Y64222D02*
X39277Y64222D01*
X39423Y64222D02*
X39975Y64222D01*
X40775Y64222D02*
X73171Y64222D01*
X74179Y64222D02*
X94441Y64222D01*
X95209Y64222D02*
X98395Y64222D01*
X99296Y64222D02*
X122096Y64222D01*
X124116Y64222D02*
X127453Y64222D01*
X128222Y64222D02*
X134966Y64222D01*
X24950Y64272D02*
X39124Y64272D01*
X39576Y64272D02*
X39941Y64272D01*
X40809Y64272D02*
X45079Y64272D01*
X45256Y64272D02*
X67064Y64272D01*
X67454Y64272D02*
X73189Y64272D01*
X74161Y64272D02*
X94405Y64272D01*
X95245Y64272D02*
X98372Y64272D01*
X99318Y64272D02*
X122077Y64272D01*
X124135Y64272D02*
X127418Y64272D01*
X128257Y64272D02*
X134966Y64272D01*
X24950Y64321D02*
X39040Y64321D01*
X39660Y64321D02*
X39911Y64321D01*
X40839Y64321D02*
X44934Y64321D01*
X45401Y64321D02*
X66969Y64321D01*
X67549Y64321D02*
X73208Y64321D01*
X74142Y64321D02*
X94371Y64321D01*
X95279Y64321D02*
X98354Y64321D01*
X99337Y64321D02*
X122068Y64321D01*
X124144Y64321D02*
X127383Y64321D01*
X128292Y64321D02*
X134966Y64321D01*
X24950Y64371D02*
X38984Y64371D01*
X39716Y64371D02*
X39892Y64371D01*
X40858Y64371D02*
X44853Y64371D01*
X45482Y64371D02*
X66911Y64371D01*
X67606Y64371D02*
X73235Y64371D01*
X74115Y64371D02*
X94350Y64371D01*
X95300Y64371D02*
X98340Y64371D01*
X99351Y64371D02*
X122062Y64371D01*
X124150Y64371D02*
X127363Y64371D01*
X128313Y64371D02*
X134966Y64371D01*
X24950Y64420D02*
X38941Y64420D01*
X39759Y64420D02*
X39873Y64420D01*
X40877Y64420D02*
X44797Y64420D01*
X45538Y64420D02*
X66862Y64420D01*
X67656Y64420D02*
X73269Y64420D01*
X74081Y64420D02*
X93926Y64420D01*
X94224Y64420D02*
X94331Y64420D01*
X95319Y64420D02*
X98334Y64420D01*
X99357Y64420D02*
X122058Y64420D01*
X124154Y64420D02*
X127344Y64420D01*
X128331Y64420D02*
X134966Y64420D01*
X24950Y64470D02*
X38907Y64470D01*
X40884Y64470D02*
X44756Y64470D01*
X45579Y64470D02*
X66827Y64470D01*
X67691Y64470D02*
X73313Y64470D01*
X74037Y64470D02*
X93092Y64470D01*
X93218Y64470D02*
X93813Y64470D01*
X95331Y64470D02*
X98328Y64470D01*
X99363Y64470D02*
X122064Y64470D01*
X124148Y64470D02*
X127331Y64470D01*
X128344Y64470D02*
X134966Y64470D01*
X24950Y64519D02*
X38881Y64519D01*
X40890Y64519D02*
X44722Y64519D01*
X45613Y64519D02*
X66796Y64519D01*
X67722Y64519D02*
X73369Y64519D01*
X73981Y64519D02*
X92934Y64519D01*
X93377Y64519D02*
X93744Y64519D01*
X95337Y64519D02*
X98333Y64519D01*
X99358Y64519D02*
X122070Y64519D01*
X124142Y64519D02*
X127325Y64519D01*
X128350Y64519D02*
X134966Y64519D01*
X24950Y64569D02*
X38862Y64569D01*
X40891Y64569D02*
X44697Y64569D01*
X45638Y64569D02*
X66777Y64569D01*
X67740Y64569D02*
X73455Y64569D01*
X73895Y64569D02*
X92848Y64569D01*
X93462Y64569D02*
X93688Y64569D01*
X95343Y64569D02*
X98339Y64569D01*
X99352Y64569D02*
X122085Y64569D01*
X124127Y64569D02*
X127319Y64569D01*
X128356Y64569D02*
X134966Y64569D01*
X24950Y64618D02*
X38846Y64618D01*
X40885Y64618D02*
X44678Y64618D01*
X45657Y64618D02*
X65049Y64618D01*
X65451Y64618D02*
X66759Y64618D01*
X67759Y64618D02*
X72309Y64618D01*
X72710Y64618D02*
X92792Y64618D01*
X93518Y64618D02*
X93653Y64618D01*
X95337Y64618D02*
X98349Y64618D01*
X99341Y64618D02*
X122104Y64618D01*
X123046Y64618D02*
X123166Y64618D01*
X124108Y64618D02*
X127325Y64618D01*
X128350Y64618D02*
X134966Y64618D01*
X24950Y64668D02*
X37681Y64668D01*
X38119Y64668D02*
X38840Y64668D01*
X40879Y64668D02*
X44663Y64668D01*
X45672Y64668D02*
X64955Y64668D01*
X65545Y64668D02*
X66751Y64668D01*
X67767Y64668D02*
X72214Y64668D01*
X72804Y64668D02*
X92748Y64668D01*
X93574Y64668D02*
X93619Y64668D01*
X95331Y64668D02*
X98368Y64668D01*
X99323Y64668D02*
X122128Y64668D01*
X123022Y64668D02*
X123189Y64668D01*
X124084Y64668D02*
X127331Y64668D01*
X128344Y64668D02*
X134966Y64668D01*
X24950Y64717D02*
X37594Y64717D01*
X38206Y64717D02*
X38834Y64717D01*
X40861Y64717D02*
X44657Y64717D01*
X45678Y64717D02*
X64899Y64717D01*
X65601Y64717D02*
X66745Y64717D01*
X67773Y64717D02*
X72159Y64717D01*
X72860Y64717D02*
X92714Y64717D01*
X95319Y64717D02*
X98387Y64717D01*
X99303Y64717D02*
X122162Y64717D01*
X122988Y64717D02*
X123224Y64717D01*
X124050Y64717D02*
X127344Y64717D01*
X128332Y64717D02*
X134966Y64717D01*
X24950Y64767D02*
X37539Y64767D01*
X38261Y64767D02*
X38836Y64767D01*
X40842Y64767D02*
X44651Y64767D01*
X45684Y64767D02*
X64851Y64767D01*
X65649Y64767D02*
X66328Y64767D01*
X66634Y64767D02*
X66739Y64767D01*
X67775Y64767D02*
X72110Y64767D01*
X72909Y64767D02*
X92687Y64767D01*
X95300Y64767D02*
X98422Y64767D01*
X99269Y64767D02*
X122202Y64767D01*
X122948Y64767D02*
X123263Y64767D01*
X124010Y64767D02*
X127362Y64767D01*
X128313Y64767D02*
X134966Y64767D01*
X24950Y64816D02*
X37494Y64816D01*
X38306Y64816D02*
X38842Y64816D01*
X40815Y64816D02*
X44654Y64816D01*
X45681Y64816D02*
X64816Y64816D01*
X65684Y64816D02*
X66217Y64816D01*
X67769Y64816D02*
X72076Y64816D01*
X72943Y64816D02*
X92668Y64816D01*
X95280Y64816D02*
X98456Y64816D01*
X99235Y64816D02*
X122257Y64816D01*
X122893Y64816D02*
X123319Y64816D01*
X123955Y64816D02*
X127383Y64816D01*
X128292Y64816D02*
X134966Y64816D01*
X24950Y64866D02*
X37460Y64866D01*
X38340Y64866D02*
X38850Y64866D01*
X39850Y64866D02*
X39969Y64866D01*
X40781Y64866D02*
X44660Y64866D01*
X45675Y64866D02*
X64786Y64866D01*
X65714Y64866D02*
X66149Y64866D01*
X67763Y64866D02*
X72046Y64866D01*
X72973Y64866D02*
X92651Y64866D01*
X95245Y64866D02*
X98511Y64866D01*
X99180Y64866D02*
X122336Y64866D01*
X122814Y64866D02*
X123398Y64866D01*
X123876Y64866D02*
X127417Y64866D01*
X128258Y64866D02*
X134966Y64866D01*
X24950Y64915D02*
X37433Y64915D01*
X38367Y64915D02*
X38869Y64915D01*
X39831Y64915D02*
X40013Y64915D01*
X40737Y64915D02*
X44669Y64915D01*
X45666Y64915D02*
X64767Y64915D01*
X65733Y64915D02*
X66093Y64915D01*
X67746Y64915D02*
X72027Y64915D01*
X72992Y64915D02*
X92645Y64915D01*
X95210Y64915D02*
X98577Y64915D01*
X99113Y64915D02*
X122474Y64915D01*
X122676Y64915D02*
X123536Y64915D01*
X123738Y64915D02*
X127453Y64915D01*
X128222Y64915D02*
X134966Y64915D01*
X24950Y64965D02*
X37414Y64965D01*
X38386Y64965D02*
X38887Y64965D01*
X39813Y64965D02*
X40069Y64965D01*
X40681Y64965D02*
X44688Y64965D01*
X45647Y64965D02*
X64749Y64965D01*
X65751Y64965D02*
X66059Y64965D01*
X67728Y64965D02*
X72008Y64965D01*
X73011Y64965D02*
X92639Y64965D01*
X95154Y64965D02*
X98683Y64965D01*
X99007Y64965D02*
X127509Y64965D01*
X128166Y64965D02*
X134966Y64965D01*
X24950Y65014D02*
X37396Y65014D01*
X38404Y65014D02*
X38918Y65014D01*
X39782Y65014D02*
X40156Y65014D01*
X40594Y65014D02*
X44706Y65014D01*
X45629Y65014D02*
X64741Y65014D01*
X65759Y65014D02*
X66025Y65014D01*
X67702Y65014D02*
X72001Y65014D01*
X73018Y65014D02*
X92641Y65014D01*
X95084Y65014D02*
X121210Y65014D01*
X121590Y65014D02*
X127579Y65014D01*
X128096Y65014D02*
X134966Y65014D01*
X24950Y65064D02*
X37390Y65064D01*
X38410Y65064D02*
X38953Y65064D01*
X39747Y65064D02*
X44739Y65064D01*
X45596Y65064D02*
X64735Y65064D01*
X65765Y65064D02*
X66005Y65064D01*
X67667Y65064D02*
X71995Y65064D01*
X73024Y65064D02*
X92647Y65064D01*
X94568Y65064D02*
X94682Y65064D01*
X94968Y65064D02*
X121116Y65064D01*
X121684Y65064D02*
X127696Y65064D01*
X127979Y65064D02*
X134966Y65064D01*
X24950Y65114D02*
X37384Y65114D01*
X38416Y65114D02*
X39003Y65114D01*
X39697Y65114D02*
X44773Y65114D01*
X45562Y65114D02*
X64734Y65114D01*
X65766Y65114D02*
X65986Y65114D01*
X67624Y65114D02*
X71993Y65114D01*
X73025Y65114D02*
X92654Y65114D01*
X94549Y65114D02*
X121056Y65114D01*
X121744Y65114D02*
X134966Y65114D01*
X24950Y65163D02*
X37385Y65163D01*
X38415Y65163D02*
X39061Y65163D01*
X39639Y65163D02*
X44825Y65163D01*
X45510Y65163D02*
X64740Y65163D01*
X65760Y65163D02*
X65974Y65163D01*
X67569Y65163D02*
X71999Y65163D01*
X73019Y65163D02*
X92673Y65163D01*
X94528Y65163D02*
X121004Y65163D01*
X121796Y65163D02*
X134966Y65163D01*
X24950Y65213D02*
X37391Y65213D01*
X38409Y65213D02*
X39155Y65213D01*
X39545Y65213D02*
X44886Y65213D01*
X45449Y65213D02*
X64746Y65213D01*
X65754Y65213D02*
X65968Y65213D01*
X67485Y65213D02*
X72005Y65213D01*
X73013Y65213D02*
X92692Y65213D01*
X93622Y65213D02*
X93637Y65213D01*
X94494Y65213D02*
X120970Y65213D01*
X121830Y65213D02*
X134966Y65213D01*
X24950Y65262D02*
X37398Y65262D01*
X38402Y65262D02*
X44980Y65262D01*
X45355Y65262D02*
X64764Y65262D01*
X65736Y65262D02*
X65963Y65262D01*
X66999Y65262D02*
X67187Y65262D01*
X67331Y65262D02*
X72023Y65262D01*
X72996Y65262D02*
X92722Y65262D01*
X93588Y65262D02*
X93693Y65262D01*
X94457Y65262D02*
X120938Y65262D01*
X121862Y65262D02*
X134966Y65262D01*
X24950Y65312D02*
X37417Y65312D01*
X38383Y65312D02*
X64782Y65312D01*
X65718Y65312D02*
X65969Y65312D01*
X66993Y65312D02*
X72042Y65312D01*
X72977Y65312D02*
X92756Y65312D01*
X93554Y65312D02*
X93749Y65312D01*
X94401Y65312D02*
X120920Y65312D01*
X121880Y65312D02*
X134966Y65312D01*
X24950Y65361D02*
X37436Y65361D01*
X38364Y65361D02*
X64809Y65361D01*
X65691Y65361D02*
X65975Y65361D01*
X66987Y65361D02*
X72069Y65361D01*
X72950Y65361D02*
X92805Y65361D01*
X93505Y65361D02*
X93821Y65361D01*
X94329Y65361D02*
X120901Y65361D01*
X121899Y65361D02*
X134966Y65361D01*
X24950Y65411D02*
X37466Y65411D01*
X38334Y65411D02*
X64844Y65411D01*
X65656Y65411D02*
X65988Y65411D01*
X66974Y65411D02*
X72103Y65411D01*
X72916Y65411D02*
X92861Y65411D01*
X93449Y65411D02*
X93944Y65411D01*
X94206Y65411D02*
X120892Y65411D01*
X121908Y65411D02*
X134966Y65411D01*
X24950Y65460D02*
X37500Y65460D01*
X38300Y65460D02*
X64888Y65460D01*
X65612Y65460D02*
X66007Y65460D01*
X66955Y65460D02*
X72147Y65460D01*
X72872Y65460D02*
X92956Y65460D01*
X93403Y65460D02*
X113718Y65460D01*
X114161Y65460D02*
X120886Y65460D01*
X121914Y65460D02*
X134966Y65460D01*
X24950Y65510D02*
X37548Y65510D01*
X38252Y65510D02*
X64944Y65510D01*
X65556Y65510D02*
X66029Y65510D01*
X66933Y65510D02*
X72203Y65510D01*
X72816Y65510D02*
X92998Y65510D01*
X93403Y65510D02*
X113633Y65510D01*
X114247Y65510D02*
X120883Y65510D01*
X121917Y65510D02*
X134966Y65510D01*
X24950Y65559D02*
X37604Y65559D01*
X38196Y65559D02*
X65030Y65559D01*
X65470Y65559D02*
X66063Y65559D01*
X66899Y65559D02*
X72289Y65559D01*
X72730Y65559D02*
X92998Y65559D01*
X93465Y65559D02*
X113577Y65559D01*
X114303Y65559D02*
X120889Y65559D01*
X121911Y65559D02*
X134966Y65559D01*
X24950Y65609D02*
X37698Y65609D01*
X38215Y65609D02*
X66094Y65609D01*
X66862Y65609D02*
X92939Y65609D01*
X93552Y65609D02*
X113533Y65609D01*
X114347Y65609D02*
X120895Y65609D01*
X121905Y65609D02*
X122010Y65609D01*
X122190Y65609D02*
X134966Y65609D01*
X24950Y65658D02*
X38099Y65658D01*
X38241Y65658D02*
X38289Y65658D01*
X38561Y65658D02*
X65743Y65658D01*
X65897Y65658D02*
X66060Y65658D01*
X66806Y65658D02*
X92884Y65658D01*
X93607Y65658D02*
X113499Y65658D01*
X114381Y65658D02*
X120911Y65658D01*
X122334Y65658D02*
X134966Y65658D01*
X24950Y65708D02*
X38125Y65708D01*
X38681Y65708D02*
X65592Y65708D01*
X66733Y65708D02*
X92839Y65708D01*
X93652Y65708D02*
X113472Y65708D01*
X114408Y65708D02*
X120930Y65708D01*
X122415Y65708D02*
X134966Y65708D01*
X24950Y65757D02*
X38098Y65757D01*
X38752Y65757D02*
X65509Y65757D01*
X66250Y65757D02*
X66354Y65757D01*
X66608Y65757D02*
X92805Y65757D01*
X93686Y65757D02*
X113453Y65757D01*
X114426Y65757D02*
X120956Y65757D01*
X122471Y65757D02*
X134966Y65757D01*
X24950Y65807D02*
X38042Y65807D01*
X38808Y65807D02*
X65453Y65807D01*
X66215Y65807D02*
X92778Y65807D01*
X93713Y65807D02*
X113436Y65807D01*
X114444Y65807D02*
X120990Y65807D01*
X122512Y65807D02*
X134966Y65807D01*
X24950Y65856D02*
X38006Y65856D01*
X38844Y65856D02*
X65411Y65856D01*
X66229Y65856D02*
X92759Y65856D01*
X93732Y65856D02*
X113430Y65856D01*
X114450Y65856D02*
X121031Y65856D01*
X122546Y65856D02*
X134966Y65856D01*
X24950Y65906D02*
X37971Y65906D01*
X38879Y65906D02*
X65377Y65906D01*
X66263Y65906D02*
X81712Y65906D01*
X82138Y65906D02*
X92742Y65906D01*
X93749Y65906D02*
X113424Y65906D01*
X114456Y65906D02*
X121087Y65906D01*
X122570Y65906D02*
X134966Y65906D01*
X24950Y65956D02*
X37950Y65956D01*
X38900Y65956D02*
X65351Y65956D01*
X66289Y65956D02*
X81623Y65956D01*
X82227Y65956D02*
X92736Y65956D01*
X93755Y65956D02*
X113425Y65956D01*
X114454Y65956D02*
X121169Y65956D01*
X122589Y65956D02*
X134966Y65956D01*
X24950Y66005D02*
X37931Y66005D01*
X38919Y66005D02*
X65332Y66005D01*
X66308Y66005D02*
X81567Y66005D01*
X82283Y66005D02*
X92730Y66005D01*
X93761Y66005D02*
X113431Y66005D01*
X114448Y66005D02*
X121317Y66005D01*
X121483Y66005D02*
X121595Y66005D01*
X122605Y66005D02*
X134966Y66005D01*
X24950Y66055D02*
X37919Y66055D01*
X38931Y66055D02*
X65316Y66055D01*
X66324Y66055D02*
X81521Y66055D01*
X82329Y66055D02*
X92731Y66055D01*
X93760Y66055D02*
X113439Y66055D01*
X114441Y66055D02*
X121589Y66055D01*
X122611Y66055D02*
X134966Y66055D01*
X24950Y66104D02*
X37913Y66104D01*
X38937Y66104D02*
X65310Y66104D01*
X66330Y66104D02*
X81487Y66104D01*
X82363Y66104D02*
X92737Y66104D01*
X93754Y66104D02*
X113457Y66104D01*
X114422Y66104D02*
X121583Y66104D01*
X122617Y66104D02*
X134966Y66104D01*
X24950Y66154D02*
X37907Y66154D01*
X38943Y66154D02*
X65304Y66154D01*
X66336Y66154D02*
X81459Y66154D01*
X82391Y66154D02*
X92744Y66154D01*
X93747Y66154D02*
X113476Y66154D01*
X114403Y66154D02*
X121586Y66154D01*
X122614Y66154D02*
X134966Y66154D01*
X24950Y66203D02*
X37913Y66203D01*
X38937Y66203D02*
X65306Y66203D01*
X66334Y66203D02*
X81440Y66203D01*
X82410Y66203D02*
X92763Y66203D01*
X93728Y66203D02*
X113507Y66203D01*
X114373Y66203D02*
X121592Y66203D01*
X122608Y66203D02*
X134966Y66203D01*
X24950Y66253D02*
X37919Y66253D01*
X38931Y66253D02*
X65312Y66253D01*
X66328Y66253D02*
X81422Y66253D01*
X82428Y66253D02*
X92782Y66253D01*
X93709Y66253D02*
X113541Y66253D01*
X114339Y66253D02*
X121601Y66253D01*
X122599Y66253D02*
X134966Y66253D01*
X24950Y66302D02*
X37931Y66302D01*
X38919Y66302D02*
X65320Y66302D01*
X66320Y66302D02*
X81416Y66302D01*
X82434Y66302D02*
X92812Y66302D01*
X93679Y66302D02*
X113590Y66302D01*
X114290Y66302D02*
X121620Y66302D01*
X122580Y66302D02*
X134966Y66302D01*
X24950Y66352D02*
X37950Y66352D01*
X38900Y66352D02*
X65339Y66352D01*
X66301Y66352D02*
X81410Y66352D01*
X82440Y66352D02*
X92846Y66352D01*
X93645Y66352D02*
X113646Y66352D01*
X114234Y66352D02*
X121639Y66352D01*
X122561Y66352D02*
X134966Y66352D01*
X24950Y66401D02*
X30226Y66401D01*
X30624Y66401D02*
X37970Y66401D01*
X38880Y66401D02*
X65358Y66401D01*
X66282Y66401D02*
X81410Y66401D01*
X82440Y66401D02*
X92894Y66401D01*
X93597Y66401D02*
X113740Y66401D01*
X114139Y66401D02*
X121672Y66401D01*
X122528Y66401D02*
X134966Y66401D01*
X24950Y66451D02*
X30132Y66451D01*
X30718Y66451D02*
X38004Y66451D01*
X38846Y66451D02*
X65389Y66451D01*
X66251Y66451D02*
X81416Y66451D01*
X82434Y66451D02*
X92950Y66451D01*
X93541Y66451D02*
X121706Y66451D01*
X122494Y66451D02*
X134966Y66451D01*
X24950Y66500D02*
X30075Y66500D01*
X30775Y66500D02*
X38039Y66500D01*
X38811Y66500D02*
X65423Y66500D01*
X66217Y66500D02*
X81422Y66500D01*
X82428Y66500D02*
X93044Y66500D01*
X93447Y66500D02*
X121758Y66500D01*
X122442Y66500D02*
X134966Y66500D01*
X24950Y66550D02*
X30026Y66550D01*
X30824Y66550D02*
X38095Y66550D01*
X38755Y66550D02*
X65474Y66550D01*
X66166Y66550D02*
X81441Y66550D01*
X82409Y66550D02*
X121819Y66550D01*
X122381Y66550D02*
X134966Y66550D01*
X24950Y66599D02*
X29992Y66599D01*
X30858Y66599D02*
X38165Y66599D01*
X38685Y66599D02*
X65532Y66599D01*
X66107Y66599D02*
X81460Y66599D01*
X82390Y66599D02*
X121913Y66599D01*
X122287Y66599D02*
X134966Y66599D01*
X24950Y66649D02*
X29962Y66649D01*
X30888Y66649D02*
X38281Y66649D01*
X38569Y66649D02*
X65627Y66649D01*
X66013Y66649D02*
X81489Y66649D01*
X82361Y66649D02*
X134966Y66649D01*
X24950Y66698D02*
X29943Y66698D01*
X30907Y66698D02*
X57548Y66698D01*
X57952Y66698D02*
X81523Y66698D01*
X82327Y66698D02*
X134966Y66698D01*
X24950Y66748D02*
X29924Y66748D01*
X30926Y66748D02*
X57455Y66748D01*
X58045Y66748D02*
X81570Y66748D01*
X82280Y66748D02*
X134966Y66748D01*
X24950Y66798D02*
X29916Y66798D01*
X30934Y66798D02*
X57399Y66798D01*
X58101Y66798D02*
X81626Y66798D01*
X82224Y66798D02*
X134966Y66798D01*
X24950Y66847D02*
X29910Y66847D01*
X30940Y66847D02*
X57350Y66847D01*
X58150Y66847D02*
X81717Y66847D01*
X82133Y66847D02*
X134966Y66847D01*
X24950Y66897D02*
X29909Y66897D01*
X30941Y66897D02*
X57316Y66897D01*
X58184Y66897D02*
X134966Y66897D01*
X24950Y66946D02*
X29915Y66946D01*
X30935Y66946D02*
X57286Y66946D01*
X58214Y66946D02*
X134966Y66946D01*
X24950Y66996D02*
X29921Y66996D01*
X30929Y66996D02*
X57267Y66996D01*
X58233Y66996D02*
X134966Y66996D01*
X24950Y67045D02*
X29938Y67045D01*
X30912Y67045D02*
X57248Y67045D01*
X58252Y67045D02*
X119836Y67045D01*
X120222Y67045D02*
X134966Y67045D01*
X24950Y67095D02*
X29957Y67095D01*
X30893Y67095D02*
X57241Y67095D01*
X58259Y67095D02*
X63491Y67095D01*
X63809Y67095D02*
X90850Y67095D01*
X91050Y67095D02*
X119742Y67095D01*
X120317Y67095D02*
X134966Y67095D01*
X24950Y67144D02*
X29984Y67144D01*
X30866Y67144D02*
X36773Y67144D01*
X36977Y67144D02*
X57235Y67144D01*
X58265Y67144D02*
X63383Y67144D01*
X63917Y67144D02*
X90711Y67144D01*
X91189Y67144D02*
X119683Y67144D01*
X120375Y67144D02*
X134966Y67144D01*
X24950Y67194D02*
X30018Y67194D01*
X30832Y67194D02*
X36635Y67194D01*
X37115Y67194D02*
X57234Y67194D01*
X58266Y67194D02*
X63316Y67194D01*
X63984Y67194D02*
X90633Y67194D01*
X91267Y67194D02*
X119633Y67194D01*
X120426Y67194D02*
X134966Y67194D01*
X24950Y67243D02*
X30062Y67243D01*
X30788Y67243D02*
X36557Y67243D01*
X37193Y67243D02*
X57240Y67243D01*
X58260Y67243D02*
X63261Y67243D01*
X64039Y67243D02*
X90577Y67243D01*
X91323Y67243D02*
X119599Y67243D01*
X120460Y67243D02*
X134966Y67243D01*
X24950Y67293D02*
X30118Y67293D01*
X30732Y67293D02*
X36501Y67293D01*
X37249Y67293D02*
X57246Y67293D01*
X58254Y67293D02*
X63227Y67293D01*
X64073Y67293D02*
X90537Y67293D01*
X91363Y67293D02*
X119567Y67293D01*
X120491Y67293D02*
X134966Y67293D01*
X24950Y67342D02*
X30203Y67342D01*
X30647Y67342D02*
X36462Y67342D01*
X37288Y67342D02*
X57264Y67342D01*
X58236Y67342D02*
X63193Y67342D01*
X64107Y67342D02*
X90503Y67342D01*
X91397Y67342D02*
X119548Y67342D01*
X120510Y67342D02*
X134966Y67342D01*
X24950Y67392D02*
X30361Y67392D01*
X30489Y67392D02*
X36427Y67392D01*
X37323Y67392D02*
X57283Y67392D01*
X58217Y67392D02*
X63173Y67392D01*
X64127Y67392D02*
X85420Y67392D01*
X85680Y67392D02*
X90479Y67392D01*
X91421Y67392D02*
X119530Y67392D01*
X120529Y67392D02*
X134966Y67392D01*
X24950Y67441D02*
X36403Y67441D01*
X37347Y67441D02*
X57310Y67441D01*
X58190Y67441D02*
X63154Y67441D01*
X64146Y67441D02*
X85297Y67441D01*
X85803Y67441D02*
X90460Y67441D01*
X91440Y67441D02*
X119521Y67441D01*
X120537Y67441D02*
X134966Y67441D01*
X24950Y67491D02*
X36385Y67491D01*
X37365Y67491D02*
X57344Y67491D01*
X58156Y67491D02*
X63143Y67491D01*
X64157Y67491D02*
X85224Y67491D01*
X85876Y67491D02*
X90445Y67491D01*
X91455Y67491D02*
X119515Y67491D01*
X120543Y67491D02*
X134966Y67491D01*
X24950Y67540D02*
X36370Y67540D01*
X37380Y67540D02*
X57388Y67540D01*
X58112Y67540D02*
X63137Y67540D01*
X64163Y67540D02*
X85168Y67540D01*
X85932Y67540D02*
X90439Y67540D01*
X91461Y67540D02*
X119513Y67540D01*
X120546Y67540D02*
X134966Y67540D01*
X24950Y67590D02*
X36364Y67590D01*
X37386Y67590D02*
X57444Y67590D01*
X58056Y67590D02*
X63132Y67590D01*
X64168Y67590D02*
X85132Y67590D01*
X85968Y67590D02*
X90433Y67590D01*
X91467Y67590D02*
X119519Y67590D01*
X120540Y67590D02*
X134966Y67590D01*
X24950Y67640D02*
X36358Y67640D01*
X37392Y67640D02*
X57531Y67640D01*
X57969Y67640D02*
X63138Y67640D01*
X64162Y67640D02*
X85097Y67640D01*
X86003Y67640D02*
X90437Y67640D01*
X91463Y67640D02*
X119525Y67640D01*
X120534Y67640D02*
X134966Y67640D01*
X24950Y67689D02*
X36362Y67689D01*
X37388Y67689D02*
X63144Y67689D01*
X64156Y67689D02*
X85076Y67689D01*
X86024Y67689D02*
X90443Y67689D01*
X91457Y67689D02*
X119541Y67689D01*
X120517Y67689D02*
X126954Y67689D01*
X127096Y67689D02*
X134966Y67689D01*
X24950Y67739D02*
X36368Y67739D01*
X37382Y67739D02*
X63158Y67739D01*
X64142Y67739D02*
X85057Y67739D01*
X86043Y67739D02*
X90452Y67739D01*
X91448Y67739D02*
X119560Y67739D01*
X120499Y67739D02*
X126800Y67739D01*
X127250Y67739D02*
X134966Y67739D01*
X24950Y67788D02*
X36378Y67788D01*
X37372Y67788D02*
X63177Y67788D01*
X64123Y67788D02*
X85044Y67788D01*
X86056Y67788D02*
X90471Y67788D01*
X91429Y67788D02*
X119586Y67788D01*
X120473Y67788D02*
X126716Y67788D01*
X127334Y67788D02*
X134966Y67788D01*
X24950Y67838D02*
X36396Y67838D01*
X37354Y67838D02*
X43075Y67838D01*
X43302Y67838D02*
X63199Y67838D01*
X64101Y67838D02*
X85038Y67838D01*
X86062Y67838D02*
X90490Y67838D01*
X91410Y67838D02*
X119620Y67838D01*
X120439Y67838D02*
X126660Y67838D01*
X127390Y67838D02*
X134966Y67838D01*
X24950Y67887D02*
X36415Y67887D01*
X37335Y67887D02*
X42944Y67887D01*
X43434Y67887D02*
X63233Y67887D01*
X64067Y67887D02*
X84229Y67887D01*
X84571Y67887D02*
X85032Y67887D01*
X86068Y67887D02*
X90523Y67887D01*
X91377Y67887D02*
X97653Y67887D01*
X98065Y67887D02*
X119662Y67887D01*
X120396Y67887D02*
X126617Y67887D01*
X127433Y67887D02*
X134966Y67887D01*
X24950Y67937D02*
X36448Y67937D01*
X37302Y67937D02*
X42867Y67937D01*
X43510Y67937D02*
X63271Y67937D01*
X64029Y67937D02*
X84128Y67937D01*
X84672Y67937D02*
X85037Y67937D01*
X86063Y67937D02*
X90557Y67937D01*
X91343Y67937D02*
X97561Y67937D01*
X98157Y67937D02*
X119718Y67937D01*
X120340Y67937D02*
X126583Y67937D01*
X127467Y67937D02*
X134966Y67937D01*
X24950Y67986D02*
X36483Y67986D01*
X37267Y67986D02*
X42812Y67986D01*
X43565Y67986D02*
X63327Y67986D01*
X63973Y67986D02*
X84063Y67986D01*
X84737Y67986D02*
X85043Y67986D01*
X86057Y67986D02*
X90610Y67986D01*
X91290Y67986D02*
X97505Y67986D01*
X98213Y67986D02*
X119801Y67986D01*
X120257Y67986D02*
X126556Y67986D01*
X127494Y67986D02*
X134966Y67986D01*
X24950Y68036D02*
X36536Y68036D01*
X37214Y68036D02*
X42773Y68036D01*
X43604Y68036D02*
X63401Y68036D01*
X63899Y68036D02*
X84009Y68036D01*
X84791Y68036D02*
X85055Y68036D01*
X86045Y68036D02*
X90673Y68036D01*
X91227Y68036D02*
X97458Y68036D01*
X98260Y68036D02*
X119952Y68036D01*
X120107Y68036D02*
X126538Y68036D01*
X127512Y68036D02*
X134966Y68036D01*
X24950Y68085D02*
X36599Y68085D01*
X37151Y68085D02*
X42739Y68085D01*
X43638Y68085D02*
X63529Y68085D01*
X63771Y68085D02*
X83975Y68085D01*
X84825Y68085D02*
X85074Y68085D01*
X86026Y68085D02*
X90769Y68085D01*
X91131Y68085D02*
X97424Y68085D01*
X98294Y68085D02*
X126521Y68085D01*
X127529Y68085D02*
X134966Y68085D01*
X24950Y68135D02*
X36696Y68135D01*
X37054Y68135D02*
X42716Y68135D01*
X43661Y68135D02*
X70440Y68135D01*
X70678Y68135D02*
X83941Y68135D01*
X84859Y68135D02*
X85094Y68135D01*
X86006Y68135D02*
X97394Y68135D01*
X98324Y68135D02*
X126515Y68135D01*
X127535Y68135D02*
X134966Y68135D01*
X24950Y68184D02*
X42697Y68184D01*
X43680Y68184D02*
X70311Y68184D01*
X70807Y68184D02*
X83922Y68184D01*
X84878Y68184D02*
X85128Y68184D01*
X85972Y68184D02*
X97376Y68184D01*
X98343Y68184D02*
X126509Y68184D01*
X127541Y68184D02*
X134966Y68184D01*
X24950Y68234D02*
X42683Y68234D01*
X43694Y68234D02*
X70237Y68234D01*
X70882Y68234D02*
X83903Y68234D01*
X84897Y68234D02*
X85163Y68234D01*
X85937Y68234D02*
X97357Y68234D01*
X98361Y68234D02*
X126511Y68234D01*
X127539Y68234D02*
X134966Y68234D01*
X24950Y68283D02*
X42677Y68283D01*
X43700Y68283D02*
X70181Y68283D01*
X70938Y68283D02*
X83893Y68283D01*
X84907Y68283D02*
X85219Y68283D01*
X85881Y68283D02*
X97350Y68283D01*
X98368Y68283D02*
X126517Y68283D01*
X127533Y68283D02*
X134966Y68283D01*
X24950Y68333D02*
X42671Y68333D01*
X43706Y68333D02*
X70143Y68333D01*
X70976Y68333D02*
X83887Y68333D01*
X84913Y68333D02*
X85288Y68333D01*
X85812Y68333D02*
X97344Y68333D01*
X98374Y68333D02*
X126525Y68333D01*
X127525Y68333D02*
X134966Y68333D01*
X24950Y68382D02*
X42675Y68382D01*
X43702Y68382D02*
X70109Y68382D01*
X71010Y68382D02*
X83883Y68382D01*
X84917Y68382D02*
X85400Y68382D01*
X85700Y68382D02*
X97343Y68382D01*
X98375Y68382D02*
X126543Y68382D01*
X127507Y68382D02*
X134966Y68382D01*
X24950Y68432D02*
X42681Y68432D01*
X43696Y68432D02*
X70086Y68432D01*
X71032Y68432D02*
X83889Y68432D01*
X84911Y68432D02*
X97349Y68432D01*
X98369Y68432D02*
X126562Y68432D01*
X127488Y68432D02*
X134966Y68432D01*
X24950Y68482D02*
X42692Y68482D01*
X43685Y68482D02*
X70067Y68482D01*
X71051Y68482D02*
X83895Y68482D01*
X84905Y68482D02*
X97355Y68482D01*
X98363Y68482D02*
X126593Y68482D01*
X127457Y68482D02*
X134966Y68482D01*
X24950Y68531D02*
X42711Y68531D01*
X43666Y68531D02*
X70054Y68531D01*
X71065Y68531D02*
X83909Y68531D01*
X84891Y68531D02*
X97374Y68531D01*
X98345Y68531D02*
X126627Y68531D01*
X127423Y68531D02*
X134966Y68531D01*
X24950Y68581D02*
X42730Y68581D01*
X43647Y68581D02*
X70048Y68581D01*
X71071Y68581D02*
X83928Y68581D01*
X84872Y68581D02*
X97392Y68581D01*
X98326Y68581D02*
X126677Y68581D01*
X127373Y68581D02*
X134966Y68581D01*
X24950Y68630D02*
X42764Y68630D01*
X43613Y68630D02*
X70042Y68630D01*
X71077Y68630D02*
X83951Y68630D01*
X84849Y68630D02*
X97420Y68630D01*
X98298Y68630D02*
X126735Y68630D01*
X127315Y68630D02*
X134966Y68630D01*
X24950Y68680D02*
X42798Y68680D01*
X43579Y68680D02*
X70046Y68680D01*
X71072Y68680D02*
X83985Y68680D01*
X84815Y68680D02*
X97454Y68680D01*
X98264Y68680D02*
X126829Y68680D01*
X127221Y68680D02*
X134966Y68680D01*
X24950Y68729D02*
X42852Y68729D01*
X43525Y68729D02*
X70052Y68729D01*
X71066Y68729D02*
X84024Y68729D01*
X84776Y68729D02*
X97500Y68729D01*
X98219Y68729D02*
X134966Y68729D01*
X24950Y68779D02*
X42918Y68779D01*
X43459Y68779D02*
X70063Y68779D01*
X71055Y68779D02*
X84080Y68779D01*
X84720Y68779D02*
X97555Y68779D01*
X98163Y68779D02*
X134966Y68779D01*
X24950Y68828D02*
X43021Y68828D01*
X43356Y68828D02*
X70082Y68828D01*
X71036Y68828D02*
X84157Y68828D01*
X84643Y68828D02*
X97644Y68828D01*
X98075Y68828D02*
X134966Y68828D01*
X24950Y68878D02*
X70101Y68878D01*
X71017Y68878D02*
X84290Y68878D01*
X84510Y68878D02*
X134966Y68878D01*
X24950Y68927D02*
X70136Y68927D01*
X70983Y68927D02*
X134966Y68927D01*
X24950Y68977D02*
X70170Y68977D01*
X70949Y68977D02*
X134966Y68977D01*
X24950Y69026D02*
X70225Y69026D01*
X70894Y69026D02*
X134966Y69026D01*
X24950Y69076D02*
X70292Y69076D01*
X70827Y69076D02*
X134966Y69076D01*
X24950Y69125D02*
X70398Y69125D01*
X70721Y69125D02*
X134966Y69125D01*
X24950Y69175D02*
X134966Y69175D01*
X24950Y69225D02*
X134966Y69225D01*
X24950Y69274D02*
X134966Y69274D01*
X24950Y69324D02*
X134966Y69324D01*
X24950Y69373D02*
X134966Y69373D01*
X24950Y69423D02*
X134966Y69423D01*
X24950Y69472D02*
X134966Y69472D01*
X24950Y69522D02*
X134966Y69522D01*
%LNb1188558cef9b0a9_traces*%
D11*
X77505Y36130D02*
X71840Y36131D01*
D12*
X71634Y21300D02*
X73530Y19404D01*
X31115Y17258D02*
X30516Y16659D01*
D11*
X67081Y31372D02*
X70566Y34858D01*
D13*
X84950Y46800D02*
X84225Y47525D01*
D12*
X96201Y22471D02*
X96026Y22296D01*
X103630Y21500D02*
X107400Y21250D01*
D14*
X46796Y22955D02*
X46746Y26851D01*
D12*
X80790Y22471D02*
X79179Y23931D01*
X31115Y17280D02*
X31115Y15390D01*
D13*
X50400Y45010D02*
X92920Y45010D01*
D12*
X24325Y8470D02*
X20750Y4895D01*
X80790Y22471D02*
X88327Y22465D01*
D14*
X5225Y28725D02*
X3725Y27225D01*
X5225Y28725D02*
X5600Y28725D01*
D15*
X10750Y64880D02*
X10750Y66117D01*
D13*
X112425Y46675D02*
X119475Y39625D01*
D15*
X25575Y26640D02*
X25575Y30962D01*
X54500Y17675D02*
X54105Y17775D01*
D12*
X62100Y33774D02*
X56452Y28126D01*
D14*
X17600Y28274D02*
X31090Y41764D01*
D12*
X55117Y21299D02*
X55117Y20875D01*
D14*
X132562Y30031D02*
X134293Y28300D01*
D11*
X84225Y47525D02*
X85075Y48200D01*
D12*
X56500Y28078D02*
X56500Y27479D01*
X72412Y40950D02*
X71412Y41725D01*
X33630Y12055D02*
X41710Y12055D01*
D15*
X24885Y20755D02*
X23765Y21875D01*
X21871Y16226D02*
X21871Y15955D01*
D14*
X132562Y30600D02*
X132562Y30031D01*
D15*
X22304Y16659D02*
X25194Y16659D01*
D12*
X24325Y13040D02*
X24325Y8600D01*
D13*
X143150Y33668D02*
X144850Y31968D01*
D12*
X127311Y15658D02*
X134608Y15658D01*
D13*
X64525Y46825D02*
X65514Y46825D01*
X101605Y37750D02*
X101605Y24700D01*
D12*
X27740Y16455D02*
X28485Y16455D01*
D13*
X119325Y34796D02*
X119325Y39675D01*
D14*
X89375Y42095D02*
X89375Y44465D01*
D13*
X105770Y52225D02*
X106950Y52225D01*
D12*
X31115Y15390D02*
X33040Y13465D01*
X64075Y44718D02*
X64719Y44049D01*
D15*
X16300Y66040D02*
X16300Y63295D01*
D13*
X94102Y47777D02*
X100273Y47777D01*
D12*
X89737Y26146D02*
X93946Y26146D01*
X74471Y19404D02*
X75320Y18555D01*
D15*
X41602Y37198D02*
X41425Y37375D01*
X23765Y21875D02*
X18200Y21875D01*
D12*
X55117Y20875D02*
X55898Y20095D01*
X139475Y20525D02*
X138372Y21628D01*
X20750Y4895D02*
X20750Y3675D01*
D15*
X10750Y66117D02*
X11358Y66725D01*
D12*
X33040Y12646D02*
X33630Y12055D01*
X49925Y38575D02*
X49925Y36400D01*
D15*
X115650Y29496D02*
X102654Y29496D01*
X53700Y17200D02*
X53645Y17255D01*
D13*
X146409Y31968D02*
X148195Y30182D01*
D14*
X83784Y36600D02*
X87698Y40218D01*
D12*
X88936Y25344D02*
X89737Y26146D01*
X69807Y19610D02*
X69807Y18685D01*
D14*
X134293Y28300D02*
X146675Y28300D01*
D12*
X95300Y27475D02*
X93971Y26146D01*
X33545Y25305D02*
X31150Y26025D01*
D14*
X87698Y40218D02*
X89475Y41995D01*
D13*
X92920Y45010D02*
X101605Y37750D01*
D12*
X148100Y24525D02*
X144100Y20525D01*
X61705Y17654D02*
X62380Y18369D01*
D14*
X89375Y44465D02*
X88850Y44990D01*
X38330Y25255D02*
X46182Y25255D01*
D12*
X41710Y12055D02*
X42725Y11040D01*
D15*
X61201Y18346D02*
X61705Y18850D01*
D12*
X98950Y33975D02*
X94145Y33975D01*
X46250Y38244D02*
X45204Y37198D01*
X32725Y43450D02*
X31200Y44975D01*
X64808Y40908D02*
X64719Y41124D01*
X52425Y36150D02*
X52425Y23992D01*
D15*
X15615Y66725D02*
X16300Y66040D01*
X56500Y27479D02*
X55043Y26022D01*
D11*
X71840Y36131D02*
X70566Y34858D01*
D12*
X139475Y20525D02*
X134608Y15658D01*
D11*
X67081Y31372D02*
X66448Y31372D01*
D15*
X21650Y12777D02*
X20627Y13800D01*
D13*
X94102Y47777D02*
X93000Y46850D01*
D12*
X96026Y22296D02*
X88497Y22296D01*
D15*
X53575Y12300D02*
X54275Y12300D01*
D12*
X45125Y43450D02*
X52355Y36220D01*
D15*
X48299Y45375D02*
X32040Y45375D01*
D13*
X106780Y52550D02*
X106455Y52225D01*
X144850Y31968D02*
X146409Y31968D01*
D12*
X98500Y30650D02*
X93979Y30650D01*
X115650Y29496D02*
X102654Y29496D01*
D11*
X64525Y8525D02*
X68614Y12970D01*
D15*
X46993Y15100D02*
X44365Y15100D01*
D12*
X127311Y15658D02*
X126040Y14388D01*
X30516Y16659D02*
X28690Y16659D01*
D14*
X17600Y28274D02*
X17599Y28275D01*
D12*
X101605Y27675D02*
X96201Y22471D01*
D13*
X122423Y52550D02*
X106780Y52550D01*
X123914Y53889D02*
X146400Y53950D01*
D15*
X61705Y18850D02*
X63075Y19100D01*
X22304Y16659D02*
X21871Y16226D01*
D13*
X142904Y49000D02*
X142904Y33914D01*
D15*
X44940Y16945D02*
X45850Y17780D01*
X34729Y10841D02*
X33765Y9965D01*
D13*
X66175Y47525D02*
X65628Y46978D01*
D12*
X88497Y22296D02*
X88327Y22465D01*
X55898Y20095D02*
X61135Y20095D01*
D14*
X52050Y39111D02*
X49454Y39111D01*
D15*
X63950Y19100D02*
X63075Y19100D01*
D12*
X95325Y27475D02*
X93946Y27475D01*
D15*
X34729Y10841D02*
X34724Y11925D01*
D12*
X56452Y28126D02*
X56500Y28078D01*
D15*
X27140Y18605D02*
X25194Y16659D01*
D11*
X83525Y43625D02*
X82900Y42275D01*
D13*
X84242Y47525D02*
X66175Y47525D01*
D12*
X37640Y34905D02*
X32165Y34905D01*
D15*
X27140Y20015D02*
X27140Y18605D01*
X102654Y29496D02*
X101525Y30625D01*
D12*
X101605Y36300D02*
X103625Y38350D01*
D14*
X5225Y28725D02*
X4050Y29900D01*
D12*
X107415Y21200D02*
X103650Y21200D01*
D14*
X147122Y27125D02*
X147580Y27583D01*
D11*
X66120Y21857D02*
X66120Y31045D01*
D12*
X80400Y18040D02*
X80130Y18310D01*
D15*
X45204Y37198D02*
X41602Y37198D01*
X54081Y17775D02*
X45850Y17780D01*
X55043Y26022D02*
X53108Y26022D01*
D12*
X24885Y20755D02*
X28830Y20755D01*
D11*
X68600Y19435D02*
X66120Y21857D01*
D15*
X27050Y20105D02*
X27140Y20015D01*
X49248Y17255D02*
X53645Y17255D01*
D12*
X91620Y44100D02*
X91620Y44990D01*
X103625Y38350D02*
X109500Y38350D01*
X138372Y21628D02*
X138372Y22600D01*
D15*
X33765Y9965D02*
X34450Y9180D01*
D11*
X66448Y31372D02*
X66120Y31045D01*
D12*
X75365Y18320D02*
X80120Y18320D01*
D13*
X148275Y30102D02*
X148275Y24605D01*
X105722Y52177D02*
X105770Y52225D01*
D15*
X44915Y16082D02*
X44215Y15580D01*
D13*
X112425Y46675D02*
X101375Y46675D01*
X87375Y42275D02*
X77350Y34300D01*
X123914Y53889D02*
X123761Y53889D01*
D12*
X24325Y13040D02*
X27740Y16455D01*
D14*
X17599Y28275D02*
X6050Y28275D01*
D12*
X69208Y41675D02*
X67083Y43800D01*
D13*
X101605Y24700D02*
X103575Y21500D01*
D12*
X28830Y20755D02*
X31150Y23075D01*
D13*
X84950Y46800D02*
X92775Y46800D01*
D11*
X54535Y8525D02*
X64525Y8525D01*
D12*
X64816Y38025D02*
X64773Y19100D01*
X71412Y41725D02*
X69208Y41675D01*
X52425Y23992D02*
X55117Y21299D01*
D15*
X32040Y45375D02*
X31115Y46300D01*
X51800Y14075D02*
X53575Y12300D01*
X26640Y32027D02*
X25575Y30962D01*
D14*
X31115Y15390D02*
X31115Y17280D01*
D15*
X20627Y13800D02*
X19000Y13800D01*
D12*
X71412Y41725D02*
X81412Y41800D01*
D15*
X44940Y16955D02*
X44940Y16082D01*
X61201Y18346D02*
X59150Y18346D01*
D12*
X62100Y33774D02*
X62100Y43925D01*
X28690Y16659D02*
X28485Y16455D01*
X64808Y38025D02*
X64808Y40908D01*
X32540Y37100D02*
X31090Y37100D01*
X71465Y28233D02*
X71465Y26781D01*
D14*
X6050Y28275D02*
X5600Y28725D01*
D15*
X143133Y52568D02*
X143150Y52568D01*
D14*
X25200Y24040D02*
X31020Y29860D01*
D12*
X73530Y19404D02*
X74471Y19404D01*
X24885Y20755D02*
X22585Y18455D01*
X144100Y20525D02*
X139475Y20525D01*
X62380Y18850D02*
X62380Y18369D01*
X71496Y26750D02*
X71496Y21300D01*
D15*
X11358Y66725D02*
X15615Y66725D01*
D12*
X95325Y27475D02*
X101700Y33850D01*
D15*
X46993Y15100D02*
X49248Y17255D01*
D12*
X32165Y34905D02*
X31140Y35930D01*
D14*
X89475Y41995D02*
X89375Y42095D01*
D12*
X34640Y12055D02*
X34765Y11980D01*
D14*
X33545Y25275D02*
X35625Y25275D01*
X46746Y26851D02*
X47475Y28455D01*
D12*
X71496Y21300D02*
X69807Y19610D01*
D14*
X147580Y27583D02*
X148125Y27583D01*
D11*
X68614Y12970D02*
X68588Y19425D01*
D12*
X45125Y43450D02*
X32725Y43450D01*
D14*
X35625Y25275D02*
X38330Y25255D01*
D12*
X101525Y30625D02*
X102654Y29496D01*
D13*
X126250Y52568D02*
X139336Y52568D01*
D14*
X46182Y25255D02*
X46746Y24691D01*
D12*
X46250Y42175D02*
X46250Y38244D01*
D15*
X34450Y9180D02*
X34450Y5482D01*
D11*
X54535Y8525D02*
X50875Y5415D01*
D12*
X33040Y13465D02*
X33040Y12646D01*
X101275Y36300D02*
X98950Y33975D01*
D13*
X139336Y52568D02*
X142904Y49000D01*
X101375Y46675D02*
X100273Y47777D01*
D11*
X77505Y36130D02*
X82900Y42275D01*
D12*
X77384Y34151D02*
X71465Y28233D01*
D13*
X31115Y48010D02*
X31115Y17280D01*
X122423Y52550D02*
X123761Y53889D01*
D14*
X146675Y28300D02*
X148125Y29750D01*
D13*
X44100Y51410D02*
X50400Y45010D01*
D12*
X64719Y44049D02*
X64719Y41124D01*
X61135Y20095D02*
X62380Y18850D01*
D11*
X138372Y22600D03*
X47696Y29755D03*
X45540Y35075D03*
X78650Y5850D03*
X39887Y62150D03*
X39075Y2665D03*
X46140Y9285D03*
X80475Y53500D03*
X82025Y60150D03*
X38425Y66155D03*
X53625Y26922D03*
X130250Y3450D03*
X69947Y18520D03*
X77925Y10025D03*
X114450Y19925D03*
X72852Y42907D03*
X33590Y8135D03*
X82875Y59525D03*
X45204Y37159D03*
X47475Y28455D03*
X58873Y14600D03*
X29775Y4835D03*
X41300Y2565D03*
X42165Y26530D03*
X75900Y36842D03*
D16*
X119325Y34796D03*
X50875Y5375D03*
D11*
X13343Y68199D03*
X46645Y28105D03*
X53840Y1325D03*
X67258Y62325D03*
X103100Y45650D03*
X75098Y26900D03*
X135950Y44800D03*
X27050Y20105D03*
X116641Y23924D03*
X121400Y65496D03*
D16*
X44075Y48050D03*
D11*
X100375Y68360D03*
X49750Y18455D03*
X52900Y42500D03*
X22585Y18455D03*
X41425Y37375D03*
X141697Y27650D03*
X89050Y32929D03*
X129725Y35750D03*
X70912Y42575D03*
X83400Y21711D03*
X6200Y31915D03*
X32990Y32430D03*
X71912Y42725D03*
X107155Y20075D03*
X41490Y13000D03*
X47650Y35150D03*
X28365Y32550D03*
X105100Y15525D03*
X28690Y13650D03*
X9750Y6812D03*
X38490Y9900D03*
X79179Y23931D03*
X44250Y17755D03*
X93400Y25196D03*
D16*
X29550Y48850D03*
D11*
X93400Y20108D03*
X120101Y7249D03*
X111600Y10587D03*
X117025Y32565D03*
X57980Y19475D03*
X103927Y4075D03*
X49025Y15655D03*
X8625Y20500D03*
X38925Y18630D03*
X72362Y19325D03*
X10750Y64880D03*
X111630Y23171D03*
X107605Y36975D03*
X43839Y60550D03*
X98825Y2900D03*
X72375Y58785D03*
X106325Y3550D03*
X139358Y57304D03*
X66812Y32850D03*
X120650Y32775D03*
X51100Y33895D03*
X93155Y63579D03*
X71786Y4275D03*
X49750Y7586D03*
X104630Y20230D03*
X25775Y23755D03*
X28140Y29255D03*
X36490Y28700D03*
X66673Y15250D03*
X108655Y36975D03*
X21871Y15955D03*
X142492Y55120D03*
X16300Y63295D03*
X51250Y45936D03*
X87488Y31796D03*
X77117Y9975D03*
X27340Y28455D03*
X40195Y9805D03*
X93125Y38110D03*
X105150Y43375D03*
X69633Y51644D03*
X133500Y15658D03*
X40750Y9250D03*
X57550Y57475D03*
X98600Y10350D03*
X122230Y18800D03*
X30446Y10684D03*
X36875Y67649D03*
X44489Y58925D03*
X102269Y19916D03*
X28475Y25800D03*
X63650Y67585D03*
X74832Y37525D03*
X40050Y41897D03*
X39075Y14130D03*
X51000Y9625D03*
X4025Y22988D03*
X42340Y13075D03*
X100975Y10226D03*
X22075Y5025D03*
X19000Y18755D03*
X92150Y11775D03*
X95446Y19609D03*
X40497Y24402D03*
X54500Y17820D03*
X143050Y19125D03*
X66481Y65259D03*
X34390Y13200D03*
X102580Y45175D03*
X113940Y65925D03*
X4025Y18055D03*
X76912Y42725D03*
X80400Y18040D03*
X54275Y12300D03*
X49850Y32211D03*
X85625Y26725D03*
D16*
X117350Y48275D03*
D11*
X71786Y7586D03*
X52050Y39111D03*
X72500Y48619D03*
X74912Y42725D03*
X104150Y33975D03*
X18200Y25850D03*
X112275Y28146D03*
X62958Y41842D03*
X72509Y65094D03*
X60255Y23100D03*
X71786Y6480D03*
X67658Y35175D03*
X54275Y13730D03*
X100650Y4475D03*
X22075Y8900D03*
X72434Y24800D03*
X38125Y23425D03*
X9260Y26825D03*
X51325Y7215D03*
X45275Y59025D03*
X61588Y46200D03*
X88911Y25119D03*
X91620Y44100D03*
X54650Y26850D03*
X76625Y61000D03*
X111130Y38296D03*
X61300Y47075D03*
D16*
X20221Y58950D03*
D11*
X21685Y22455D03*
X93946Y27496D03*
X76015Y19459D03*
X90590Y38900D03*
X106075Y30150D03*
X122100Y66116D03*
X89050Y31796D03*
X114775Y2725D03*
X69308Y58975D03*
X66812Y39375D03*
X13880Y30858D03*
X110275Y10537D03*
X78412Y40750D03*
X75320Y18310D03*
X110736Y23271D03*
D16*
X8860Y48825D03*
D11*
X50630Y46475D03*
X50175Y2025D03*
X139175Y64355D03*
X28195Y41100D03*
X90845Y23646D03*
X126325Y40600D03*
X55675Y1075D03*
X11625Y19250D03*
X112825Y10537D03*
X28775Y40340D03*
X46843Y17105D03*
X71857Y49150D03*
X9125Y66630D03*
X93400Y24146D03*
X9950Y44390D03*
X47120Y30430D03*
X88375Y20996D03*
X88675Y43125D03*
X1600Y38700D03*
X132562Y30600D03*
X49819Y1450D03*
X14165Y35725D03*
X43189Y68340D03*
X105775Y42705D03*
X20891Y23105D03*
X139925Y56070D03*
X76818Y63501D03*
X38750Y36400D03*
X57475Y5600D03*
X13204Y63295D03*
X74002Y37560D03*
X45450Y7390D03*
X19000Y13800D03*
X40497Y34720D03*
X81925Y66375D03*
X13880Y33325D03*
X32490Y16950D03*
X35404Y38341D03*
X110630Y38846D03*
X39350Y64734D03*
X44195Y15680D03*
X56473Y17385D03*
X1125Y28458D03*
D16*
X60650Y48725D03*
D11*
X71496Y26750D03*
X20002Y9355D03*
X63350Y14390D03*
X27340Y39335D03*
X91450Y12400D03*
X7475Y23205D03*
X48299Y45375D03*
X114850Y14250D03*
X61300Y43525D03*
X40375Y64549D03*
X126040Y23275D03*
X126325Y30697D03*
X83025Y37373D03*
X34500Y27675D03*
X116475Y35646D03*
X116641Y26646D03*
X78262Y38150D03*
X136697Y8050D03*
X25200Y24240D03*
X69775Y30496D03*
X43040Y31305D03*
X119125Y12735D03*
X116450Y2675D03*
X8925Y38275D03*
X25025Y28255D03*
X140175Y10050D03*
X108124Y16650D03*
X103780Y16045D03*
X137122Y27058D03*
X48475Y21455D03*
X49425Y8425D03*
X93400Y23071D03*
X27890Y31913D03*
X94925Y12295D03*
X94900Y24646D03*
X98130Y38475D03*
X46796Y22955D03*
X129225Y51578D03*
X94125Y35146D03*
X94900Y32646D03*
X43219Y44650D03*
X71278Y57285D03*
X37840Y10379D03*
X104680Y45150D03*
X106511Y7975D03*
X105200Y45650D03*
X67750Y18079D03*
X123225Y62087D03*
X138982Y8857D03*
X26490Y30055D03*
X9050Y14119D03*
X110934Y13075D03*
X109730Y36996D03*
X47696Y21850D03*
X119438Y56650D03*
D16*
X3900Y42650D03*
D11*
X129425Y68201D03*
X126040Y14388D03*
X26527Y1950D03*
X127025Y68201D03*
X67083Y43925D03*
X141825Y17700D03*
X111175Y30646D03*
X105730Y45150D03*
X102050Y45650D03*
X43640Y36400D03*
X140750Y22722D03*
X105432Y9900D03*
X111675Y16550D03*
X20175Y16455D03*
X65450Y29175D03*
X93450Y29046D03*
X29225Y14780D03*
X42564Y32525D03*
X61639Y57600D03*
X67259Y64750D03*
X63480Y7350D03*
X110575Y59700D03*
X37840Y1425D03*
X58800Y2850D03*
X50775Y21145D03*
X41710Y9400D03*
X50253Y41650D03*
X127838Y64569D03*
X80319Y25831D03*
X38950Y63383D03*
X85550Y67890D03*
X7475Y18440D03*
X85900Y9725D03*
X32190Y60963D03*
X19550Y19930D03*
X77315Y23075D03*
X56975Y56850D03*
D16*
X146400Y53950D03*
D11*
X60813Y44049D03*
D16*
X116275Y54477D03*
X109375Y48223D03*
D11*
X22585Y22955D03*
X15445Y30450D03*
X36120Y58700D03*
X15788Y51925D03*
X12075Y19915D03*
X115765Y36196D03*
X29775Y15830D03*
D16*
X88385Y48089D03*
D11*
X25900Y9470D03*
X94825Y64569D03*
X36490Y32005D03*
X34140Y31875D03*
X52500Y5600D03*
X52335Y41925D03*
X44024Y33105D03*
X103100Y41975D03*
X65925Y51317D03*
X47850Y25755D03*
X38374Y2025D03*
X62100Y43950D03*
X113164Y15789D03*
D16*
X2120Y48075D03*
D11*
X95630Y41310D03*
X41950Y7150D03*
X35850Y20100D03*
X59150Y17571D03*
X39500Y44225D03*
X122220Y36700D03*
X123637Y64410D03*
X71761Y5425D03*
X20002Y14432D03*
X64805Y19075D03*
X75425Y56925D03*
X27140Y17055D03*
X21871Y26955D03*
X67577Y33534D03*
X86860Y60665D03*
X10150Y18800D03*
X70960Y58225D03*
X33615Y10684D03*
X93891Y59550D03*
X37640Y35620D03*
X44400Y12600D03*
X30425Y66878D03*
X64800Y48000D03*
X142075Y7075D03*
X38365Y8825D03*
X70425Y11075D03*
X79512Y28300D03*
X30446Y12950D03*
X26490Y30755D03*
X10350Y43640D03*
X67750Y18950D03*
X83784Y36600D03*
X44250Y16355D03*
X53350Y59150D03*
X14500Y25200D03*
X35440Y14645D03*
X5738Y56075D03*
X73789Y42405D03*
X63950Y19100D03*
X114125Y10537D03*
X52325Y1075D03*
X14343Y57500D03*
X9750Y5542D03*
X61630Y17654D03*
X98845Y64475D03*
X71278Y60200D03*
X143372Y12683D03*
X93625Y37496D03*
X27968Y34905D03*
X67398Y24650D03*
X21650Y12777D03*
X40161Y4650D03*
X85675Y60850D03*
X50070Y16095D03*
X33640Y9990D03*
X111630Y24146D03*
X25125Y42844D03*
X3900Y36238D03*
X23275Y39049D03*
X32540Y37100D03*
X112175Y30146D03*
X71278Y59485D03*
X41625Y6075D03*
X25650Y16255D03*
X91205Y39472D03*
X71950Y16450D03*
X30325Y2675D03*
X46990Y18430D03*
X38125Y24550D03*
X50375Y43241D03*
X73818Y32320D03*
X107930Y20350D03*
X56725Y25037D03*
X143150Y52568D03*
X127589Y60525D03*
X33874Y7256D03*
X67062Y34296D03*
X89050Y29150D03*
X43929Y27815D03*
X26640Y32027D03*
X46575Y29105D03*
X33640Y41450D03*
X84400Y68375D03*
X44600Y22605D03*
D16*
X87310Y54475D03*
X83525Y43625D03*
D11*
X75900Y42825D03*
X32065Y13290D03*
X11300Y43490D03*
X98875Y42625D03*
X106630Y15575D03*
X111255Y15789D03*
X76696Y14635D03*
X39725Y32005D03*
X94400Y35796D03*
X68300Y34175D03*
X47425Y7586D03*
X94557Y62281D03*
X22678Y28774D03*
X94075Y64913D03*
X68808Y45975D03*
X35050Y44650D03*
X115765Y34996D03*
X64075Y41300D03*
X58250Y26337D03*
X65820Y63483D03*
D16*
X21050Y59800D03*
D11*
X56500Y27479D03*
X35400Y9350D03*
X71412Y40650D03*
X33640Y44650D03*
X129035Y14333D03*
X4050Y29900D03*
X94250Y25196D03*
X52000Y58050D03*
X106869Y11525D03*
X20002Y11892D03*
X95355Y11750D03*
X10450Y8082D03*
X33000Y11055D03*
X142492Y58889D03*
X37265Y14855D03*
X53251Y10156D03*
X97566Y37996D03*
X59700Y25737D03*
X93450Y31146D03*
D16*
X105722Y52177D03*
D11*
X78500Y31210D03*
X76696Y19325D03*
X39725Y41131D03*
X68325Y10875D03*
X96980Y38475D03*
X26625Y26415D03*
X50750Y2665D03*
D16*
X4211Y52425D03*
D11*
X103630Y45175D03*
X84544Y24496D03*
X112575Y22635D03*
X74412Y40650D03*
X19723Y15780D03*
X97725Y14375D03*
D16*
X19560Y53485D03*
D11*
X12812Y16972D03*
X40340Y16955D03*
X60175Y1850D03*
D16*
X8325Y41095D03*
D11*
X82875Y60975D03*
X132718Y35750D03*
D16*
X22625Y55321D03*
D11*
X42129Y14130D03*
D16*
X31115Y48010D03*
D11*
X43675Y16850D03*
X45759Y44650D03*
X34615Y32535D03*
X39300Y40450D03*
X97859Y68360D03*
X57750Y67174D03*
X103121Y58375D03*
X59150Y18346D03*
X49450Y15100D03*
D16*
X6050Y27225D03*
D11*
X103105Y15349D03*
X32990Y30275D03*
X107075Y22480D03*
X21685Y19455D03*
X5750Y14275D03*
X106580Y31375D03*
X84050Y21520D03*
X68113Y30496D03*
X110130Y43225D03*
X16662Y16972D03*
D16*
X64525Y46825D03*
D11*
X67200Y46000D03*
X114900Y37146D03*
X39640Y9250D03*
X67412Y37289D03*
X85250Y42275D03*
X104150Y45650D03*
X44025Y40350D03*
X32325Y41925D03*
X76007Y13096D03*
X69023Y0850D03*
X54275Y16082D03*
X51775Y13975D03*
X39700Y3000D03*
X68933Y49043D03*
X48850Y7050D03*
X65820Y66169D03*
X14203Y63295D03*
X35750Y8675D03*
D16*
X119475Y39625D03*
X128350Y30983D03*
X59575Y54450D03*
D11*
X53108Y26007D03*
X94145Y33975D03*
X71345Y52450D03*
X25585Y20430D03*
X54650Y28051D03*
X102950Y57250D03*
X95630Y38900D03*
X59450Y2400D03*
X124760Y32650D03*
X29775Y13150D03*
D17*
X77400Y56425D03*
D11*
X68050Y25163D03*
X27450Y22455D03*
X113150Y60824D03*
X109500Y38350D03*
X100023Y10750D03*
X43725Y5700D03*
X89925Y23646D03*
X53700Y17200D03*
X133197Y62987D03*
X31490Y13750D03*
X93675Y42995D03*
X102514Y57800D03*
D16*
X10750Y47325D03*
D17*
X79300Y56425D03*
D11*
X65250Y65094D03*
X81250Y15025D03*
X20187Y29455D03*
X98600Y9675D03*
X43775Y18630D03*
X42140Y30350D03*
X93246Y66025D03*
X84594Y25575D03*
X4385Y19225D03*
X143650Y21750D03*
X104875Y9400D03*
D16*
X87375Y42275D03*
D11*
X94480Y36646D03*
X149250Y27298D03*
X40640Y31923D03*
X45655Y10890D03*
X6749Y58275D03*
X30250Y61700D03*
X16808Y66875D03*
X49950Y13575D03*
X68050Y21775D03*
X79562Y45937D03*
X40990Y32500D03*
X137150Y55120D03*
X48048Y17105D03*
D16*
X11728Y65740D03*
D11*
X70559Y68635D03*
X25025Y19605D03*
X20750Y3675D03*
D16*
X126250Y52568D03*
D11*
X70125Y21200D03*
X45501Y68951D03*
X49452Y63372D03*
D16*
X9575Y58484D03*
D11*
X117600Y10100D03*
X34140Y28550D03*
X46850Y7200D03*
X28050Y15675D03*
X108976Y41555D03*
X21541Y29455D03*
X73675Y64103D03*
X103630Y32089D03*
D16*
X34475Y47075D03*
D11*
X102075Y43800D03*
X137947Y15475D03*
X30840Y14294D03*
X70425Y12082D03*
X73408Y41075D03*
X36490Y10740D03*
X58375Y60325D03*
X64150Y38205D03*
X102630Y20475D03*
X28775Y37555D03*
X24325Y8600D03*
X103650Y59050D03*
X125350Y20775D03*
X76471Y25325D03*
X42140Y31305D03*
X50925Y32400D03*
X60255Y35700D03*
X67350Y30545D03*
X39650Y21550D03*
X49850Y36400D03*
X47998Y10395D03*
X45168Y64780D03*
X66325Y5550D03*
X79787Y40870D03*
X100425Y13300D03*
X25025Y31325D03*
X23225Y8470D03*
D16*
X44075Y51410D03*
D11*
X93975Y30675D03*
X36640Y14244D03*
X44940Y12055D03*
X108130Y36496D03*
X80875Y31766D03*
X50750Y30130D03*
X6110Y19450D03*
X22075Y8026D03*
X44400Y14980D03*
X108394Y11650D03*
X147122Y27125D03*
X73942Y23767D03*
X13204Y64270D03*
X48350Y25105D03*
X140718Y51253D03*
X63350Y15142D03*
X49625Y21276D03*
X56195Y21907D03*
X90545Y43424D03*
X51810Y34975D03*
X25200Y22755D03*
X29519Y42125D03*
X62950Y42575D03*
X19932Y8082D03*
X81412Y41800D03*
X122575Y64410D03*
X25550Y26540D03*
X118475Y10625D03*
X28950Y4475D03*
X53108Y28622D03*
X23550Y4050D03*
X34090Y16950D03*
X40775Y4950D03*
X37900Y65134D03*
X67409Y28666D03*
X121375Y62987D03*
X44215Y10761D03*
X106350Y10961D03*
D16*
X12564Y47325D03*
D11*
X51121Y39900D03*
X29990Y29860D03*
X3725Y27225D03*
D16*
X52676Y48225D03*
D11*
X93155Y64984D03*
X8625Y21200D03*
X34065Y14319D03*
X59560Y60325D03*
X38990Y32500D03*
X68825Y24800D03*
X94630Y38750D03*
X107280Y21250D03*
X126325Y34539D03*
X37640Y34905D03*
X34450Y5482D03*
X80675Y1650D03*
X14203Y64270D03*
X95836Y42095D03*
X13950Y66725D03*
X50925Y41375D03*
X37990Y32695D03*
D17*
X75925Y54615D03*
D11*
X115650Y29496D03*
X53108Y25137D03*
X105875Y10450D03*
X63075Y19100D03*
X49600Y30255D03*
X85075Y48200D03*
X68725Y27350D03*
X73775Y11450D03*
X29075Y3300D03*
D16*
X8848Y62350D03*
D11*
X76665Y17649D03*
X40340Y30755D03*
X76650Y1650D03*
X29840Y10990D03*
X49625Y2550D03*
X18200Y21875D03*
X109180Y36496D03*
X38075Y13075D03*
X46250Y36400D03*
X29140Y8384D03*
X120029Y67525D03*
X82275Y21805D03*
X17600Y28274D03*
X69424Y35723D03*
X52150Y38025D03*
X103925Y63675D03*
X77767Y24431D03*
X1725Y20525D03*
X42725Y10890D03*
X71401Y56574D03*
X47850Y30955D03*
X44500Y11455D03*
X47696Y26605D03*
X129725Y44800D03*
X90950Y67600D03*
X34177Y11055D03*
X46925Y40615D03*
X88911Y41375D03*
X73075Y68635D03*
X88251Y31796D03*
X66950Y35050D03*
X132718Y44800D03*
X116125Y16913D03*
X72412Y40950D03*
X94900Y30025D03*
X10800Y36025D03*
X15788Y53185D03*
X46596Y18987D03*
X7050Y39350D03*
X40575Y42575D03*
X96012Y10475D03*
X98520Y60809D03*
X114469Y62724D03*
D16*
X18800Y59075D03*
D11*
X106105Y19775D03*
X106275Y25725D03*
X46843Y12055D03*
X49075Y12600D03*
X26125Y27105D03*
X54730Y11525D03*
X82400Y29150D03*
X77505Y37975D03*
X28690Y5825D03*
X33000Y6857D03*
X125350Y18550D03*
X30140Y32195D03*
X115650Y2850D03*
X69200Y25475D03*
X89150Y56625D03*
X21685Y24326D03*
%LNb1188558cef9b0a9 component 9a6a617898d3f957*%
D18*
X126425Y3450D03*
X128965Y3450D03*
D19*
X123885Y3450D03*
M02*