%FSLAX33Y33*%
%MOMM*%
%AMRect-W370710-H570710-RO1.500*
21,1,0.37071,0.57071,0.,0.,90*%
%AMRR-H610710-W1188281-R305355-RO0.000*
21,1,0.577571,0.61071,0.,0.,360*
1,1,0.61071,-0.2887855,0.*
1,1,0.61071,0.2887855,0.*
1,1,0.61071,0.2887855,-0.*
1,1,0.61071,-0.2887855,0.*%
%AMRect-W370710-H570710-RO1.000*
21,1,0.37071,0.57071,0.,0.,180*%
%AMRect-W1856504-H497986-RO0.500*
21,1,1.856504,0.497986,0.,0.,270*%
%AMRR-H497986-W1856504-R248993-RO0.500*
21,1,1.358518,0.497986,0.,0.,270*
1,1,0.497986,0.,0.679259*
1,1,0.497986,0.,-0.679259*
1,1,0.497986,-0.,-0.679259*
1,1,0.497986,-0.,0.679259*%
%AMRect-W1650000-H1650000-RO1.500*
21,1,1.65,1.65,0.,0.,90*%
%AMRect-W700000-H1200000-RO1.000*
21,1,0.7,1.2,0.,0.,180*%
%AMRect-W1000000-H1200000-RO1.000*
21,1,1.,1.2,0.,0.,180*%
%AMRect-W1000000-H800000-RO1.000*
21,1,1.,0.8,0.,0.,180*%
%AMRect-W1300000-H1900000-RO1.000*
21,1,1.3,1.9,0.,0.,180*%
%AMRect-W1000000-H2800000-RO1.000*
21,1,1.,2.8,0.,0.,180*%
%AMRect-W370710-H570710-RO0.500*
21,1,0.37071,0.57071,0.,0.,270*%
%AMRect-W670710-H1320710-RO1.500*
21,1,0.67071,1.32071,0.,0.,90*%
%AMRect-W1000000-H1800000-RO0.500*
21,1,1.,1.8,0.,0.,270*%
%AMRect-W2000000-H3800000-RO0.500*
21,1,2.,3.8,0.,0.,270*%
%AMRect-W2000000-H3800000-RO1.500*
21,1,2.,3.8,0.,0.,90*%
%AMRR-H535710-W1000710-R267855-RO0.500*
21,1,0.465,0.53571,0.,0.,270*
1,1,0.53571,0.,0.2325*
1,1,0.53571,0.,-0.2325*
1,1,0.53571,-0.,-0.2325*
1,1,0.53571,-0.,0.2325*%
%AMRect-W1000710-H535710-RO0.500*
21,1,1.00071,0.53571,0.,0.,270*%
%AMRect-W1000000-H1000000-RO0.500*
21,1,1.,1.,0.,0.,270*%
%AMRR-H663541-W2486025-R331770-RO0.000*
21,1,1.822485,0.663541,0.,0.,360*
21,1,2.486025,0.000001,0.,0.,360*
1,1,0.66354,-0.9112425,0.0000005*
1,1,0.66354,0.9112425,0.0000005*
1,1,0.66354,0.9112425,-0.0000005*
1,1,0.66354,-0.9112425,-0.0000005*%
%AMRect-W670710-H1320710-RO1.000*
21,1,0.67071,1.32071,0.,0.,180*%
%AMRect-W670710-H1320710-RO0.500*
21,1,0.67071,1.32071,0.,0.,270*%
%AMRect-W300000-H1200000-RO1.000*
21,1,0.3,1.2,0.,0.,180*%
%AMRect-W1200000-H300000-RO1.000*
21,1,1.2,0.3,0.,0.,180*%
%AMRect-W1500000-H3200000-RO0.500*
21,1,1.5,3.2,0.,0.,270*%
%AMRect-W1140000-H2290000-RO1.500*
21,1,1.14,2.29,0.,0.,90*%
%AMRect-W2500000-H2500000-RO0.500*
21,1,2.5,2.5,0.,0.,270*%
%AMRect-W730000-H300000-RO0.500*
21,1,0.73,0.3,0.,0.,270*%
%AMRect-W300000-H730000-RO0.500*
21,1,0.3,0.73,0.,0.,270*%
%AMRR-H750000-W750000-R375000-RO1.000*
1,1,0.75,0.,-0.*
1,1,0.75,-0.,-0.*
1,1,0.75,-0.,0.*
1,1,0.75,0.,0.*%
%AMRect-W1000000-H1000000-RO1.500*
21,1,1.,1.,0.,0.,90*%
%AMRect-W950000-H2150000-RO1.500*
21,1,0.95,2.15,0.,0.,90*%
%AMRect-W3250000-H2150000-RO1.500*
21,1,3.25,2.15,0.,0.,90*%
%AMRect-W2200000-H2800000-RO1.500*
21,1,2.2,2.8,0.,0.,90*%
%AMRect-W2800000-H2800000-RO1.500*
21,1,2.8,2.8,0.,0.,90*%
%AMRect-W2000000-H2800000-RO1.500*
21,1,2.,2.8,0.,0.,90*%
%AMRect-W1450000-H300000-RO0.500*
21,1,1.45,0.3,0.,0.,270*%
%ADD10C,0.508*%
%ADD11C,1.0668*%
%ADD12C,0.5588*%
%ADD13Rect-W370710-H570710-RO1.500*%
%ADD14R,1.188281X0.61071*%
%ADD15RR-H610710-W1188281-R305355-RO0.000*%
%ADD16R,0.37071X0.57071*%
%ADD17Rect-W370710-H570710-RO1.000*%
%ADD18R,2.X3.8*%
%ADD19Rect-W1856504-H497986-RO0.500*%
%ADD20RR-H497986-W1856504-R248993-RO0.500*%
%ADD21C,1.65*%
%ADD22Rect-W1650000-H1650000-RO1.500*%
%ADD23Rect-W700000-H1200000-RO1.000*%
%ADD24Rect-W1000000-H1200000-RO1.000*%
%ADD25Rect-W1000000-H800000-RO1.000*%
%ADD26Rect-W1300000-H1900000-RO1.000*%
%ADD27Rect-W1000000-H2800000-RO1.000*%
%ADD28R,0.6X1.05*%
%ADD29Rect-W370710-H570710-RO0.500*%
%ADD30Rect-W670710-H1320710-RO1.500*%
%ADD31Rect-W1000000-H1800000-RO0.500*%
%ADD32Rect-W2000000-H3800000-RO0.500*%
%ADD33Rect-W2000000-H3800000-RO1.500*%
%ADD34RR-H535710-W1000710-R267855-RO0.500*%
%ADD35Rect-W1000710-H535710-RO0.500*%
%ADD36R,0.67071X1.32071*%
%ADD37R,1.291421X1.844948*%
%ADD38Rect-W1000000-H1000000-RO0.500*%
%ADD39R,2.486025X0.663541*%
%ADD40RR-H663541-W2486025-R331770-RO0.000*%
%ADD41Rect-W670710-H1320710-RO1.000*%
%ADD42Rect-W670710-H1320710-RO0.500*%
%ADD43Rect-W300000-H1200000-RO1.000*%
%ADD44Rect-W1200000-H300000-RO1.000*%
%ADD45Rect-W1500000-H3200000-RO0.500*%
%ADD46R,3.4X1.5*%
%ADD47R,3.5X1.*%
%ADD48Rect-W1140000-H2290000-RO1.500*%
%ADD49Rect-W2500000-H2500000-RO0.500*%
%ADD50Rect-W730000-H300000-RO0.500*%
%ADD51Rect-W300000-H730000-RO0.500*%
%ADD52RR-H750000-W750000-R375000-RO1.000*%
%ADD53Rect-W1000000-H1000000-RO1.500*%
%ADD54Rect-W950000-H2150000-RO1.500*%
%ADD55Rect-W3250000-H2150000-RO1.500*%
%ADD56R,1.9X2.4*%
%ADD57R,1.X1.*%
%ADD58Rect-W2200000-H2800000-RO1.500*%
%ADD59Rect-W2800000-H2800000-RO1.500*%
%ADD60Rect-W2000000-H2800000-RO1.500*%
%ADD61Rect-W1450000-H300000-RO0.500*%
D10*
%LNbottom solder mask_traces*%
G01*
X138372Y22600D03*
X47696Y29755D03*
X45540Y35075D03*
X78650Y5850D03*
X39887Y62150D03*
X39075Y2665D03*
X46140Y9285D03*
X80475Y53500D03*
X82025Y60150D03*
X38425Y66155D03*
X53625Y26922D03*
X130250Y3450D03*
X69947Y18520D03*
X77925Y10025D03*
X114450Y19925D03*
X72852Y42907D03*
X33590Y8135D03*
X82875Y59525D03*
X45204Y37159D03*
X47475Y28455D03*
X58873Y14600D03*
X29775Y4835D03*
X41300Y2565D03*
X42165Y26530D03*
X75900Y36842D03*
D11*
X119325Y34796D03*
X50875Y5375D03*
D10*
X13343Y68199D03*
X46645Y28105D03*
X53840Y1325D03*
X67258Y62325D03*
X103100Y45650D03*
X75098Y26900D03*
X135950Y44800D03*
X27050Y20105D03*
X116641Y23924D03*
X121400Y65496D03*
D11*
X44075Y48050D03*
D10*
X100375Y68360D03*
X49750Y18455D03*
X52900Y42500D03*
X22585Y18455D03*
X41425Y37375D03*
X141697Y27650D03*
X89050Y32929D03*
X129725Y35750D03*
X70912Y42575D03*
X83400Y21711D03*
X6200Y31915D03*
X32990Y32430D03*
X71912Y42725D03*
X107155Y20075D03*
X41490Y13000D03*
X47650Y35150D03*
X28365Y32550D03*
X105100Y15525D03*
X28690Y13650D03*
X9750Y6812D03*
X38490Y9900D03*
X79179Y23931D03*
X44250Y17755D03*
X93400Y25196D03*
D11*
X29550Y48850D03*
D10*
X93400Y20108D03*
X120101Y7249D03*
X111600Y10587D03*
X117025Y32565D03*
X57980Y19475D03*
X103927Y4075D03*
X49025Y15655D03*
X8625Y20500D03*
X38925Y18630D03*
X72362Y19325D03*
X10750Y64880D03*
X111630Y23171D03*
X107605Y36975D03*
X43839Y60550D03*
X98825Y2900D03*
X72375Y58785D03*
X106325Y3550D03*
X139358Y57304D03*
X66812Y32850D03*
X120650Y32775D03*
X51100Y33895D03*
X93155Y63579D03*
X71786Y4275D03*
X49750Y7586D03*
X104630Y20230D03*
X25775Y23755D03*
X28140Y29255D03*
X36490Y28700D03*
X66673Y15250D03*
X108655Y36975D03*
X21871Y15955D03*
X142492Y55120D03*
X16300Y63295D03*
X51250Y45936D03*
X87488Y31796D03*
X77117Y9975D03*
X27340Y28455D03*
X40195Y9805D03*
X93125Y38110D03*
X105150Y43375D03*
X69633Y51644D03*
X133500Y15658D03*
X40750Y9250D03*
X57550Y57475D03*
X98600Y10350D03*
X122230Y18800D03*
X30446Y10684D03*
X36875Y67649D03*
X44489Y58925D03*
X102269Y19916D03*
X28475Y25800D03*
X63650Y67585D03*
X74832Y37525D03*
X40050Y41897D03*
X39075Y14130D03*
X51000Y9625D03*
X4025Y22988D03*
X42340Y13075D03*
X100975Y10226D03*
X22075Y5025D03*
X19000Y18755D03*
X92150Y11775D03*
X95446Y19609D03*
X40497Y24402D03*
X54500Y17820D03*
X143050Y19125D03*
X66481Y65259D03*
X34390Y13200D03*
X102580Y45175D03*
X113940Y65925D03*
X4025Y18055D03*
X76912Y42725D03*
X80400Y18040D03*
X54275Y12300D03*
X49850Y32211D03*
X85625Y26725D03*
D11*
X117350Y48275D03*
D10*
X71786Y7586D03*
X52050Y39111D03*
X72500Y48619D03*
X74912Y42725D03*
X104150Y33975D03*
X18200Y25850D03*
X112275Y28146D03*
X62958Y41842D03*
X72509Y65094D03*
X60255Y23100D03*
X71786Y6480D03*
X67658Y35175D03*
X54275Y13730D03*
X100650Y4475D03*
X22075Y8900D03*
X72434Y24800D03*
X38125Y23425D03*
X9260Y26825D03*
X51325Y7215D03*
X45275Y59025D03*
X61588Y46200D03*
X88911Y25119D03*
X91620Y44100D03*
X54650Y26850D03*
X76625Y61000D03*
X111130Y38296D03*
X61300Y47075D03*
D11*
X20221Y58950D03*
D10*
X21685Y22455D03*
X93946Y27496D03*
X76015Y19459D03*
X90590Y38900D03*
X106075Y30150D03*
X122100Y66116D03*
X89050Y31796D03*
X114775Y2725D03*
X69308Y58975D03*
X66812Y39375D03*
X13880Y30858D03*
X110275Y10537D03*
X78412Y40750D03*
X75320Y18310D03*
X110736Y23271D03*
D11*
X8860Y48825D03*
D10*
X50630Y46475D03*
X50175Y2025D03*
X139175Y64355D03*
X28195Y41100D03*
X90845Y23646D03*
X126325Y40600D03*
X55675Y1075D03*
X11625Y19250D03*
X112825Y10537D03*
X28775Y40340D03*
X46843Y17105D03*
X71857Y49150D03*
X9125Y66630D03*
X93400Y24146D03*
X9950Y44390D03*
X47120Y30430D03*
X88375Y20996D03*
X88675Y43125D03*
X1600Y38700D03*
X132562Y30600D03*
X49819Y1450D03*
X14165Y35725D03*
X43189Y68340D03*
X105775Y42705D03*
X20891Y23105D03*
X139925Y56070D03*
X76818Y63501D03*
X38750Y36400D03*
X57475Y5600D03*
X13204Y63295D03*
X74002Y37560D03*
X45450Y7390D03*
X19000Y13800D03*
X40497Y34720D03*
X81925Y66375D03*
X13880Y33325D03*
X32490Y16950D03*
X35404Y38341D03*
X110630Y38846D03*
X39350Y64734D03*
X44195Y15680D03*
X56473Y17385D03*
X1125Y28458D03*
D11*
X60650Y48725D03*
D10*
X71496Y26750D03*
X20002Y9355D03*
X63350Y14390D03*
X27340Y39335D03*
X91450Y12400D03*
X7475Y23205D03*
X48299Y45375D03*
X114850Y14250D03*
X61300Y43525D03*
X40375Y64549D03*
X126040Y23275D03*
X126325Y30697D03*
X83025Y37373D03*
X34500Y27675D03*
X116475Y35646D03*
X116641Y26646D03*
X78262Y38150D03*
X136697Y8050D03*
X25200Y24240D03*
X69775Y30496D03*
X43040Y31305D03*
X119125Y12735D03*
X116450Y2675D03*
X8925Y38275D03*
X25025Y28255D03*
X140175Y10050D03*
X108124Y16650D03*
X103780Y16045D03*
X137122Y27058D03*
X48475Y21455D03*
X49425Y8425D03*
X93400Y23071D03*
X27890Y31913D03*
X94925Y12295D03*
X94900Y24646D03*
X98130Y38475D03*
X46796Y22955D03*
X129225Y51578D03*
X94125Y35146D03*
X94900Y32646D03*
X43219Y44650D03*
X71278Y57285D03*
X37840Y10379D03*
X104680Y45150D03*
X106511Y7975D03*
X105200Y45650D03*
X67750Y18079D03*
X123225Y62087D03*
X138982Y8857D03*
X26490Y30055D03*
X9050Y14119D03*
X110934Y13075D03*
X109730Y36996D03*
X47696Y21850D03*
X119438Y56650D03*
D11*
X3900Y42650D03*
D10*
X129425Y68201D03*
X126040Y14388D03*
X26527Y1950D03*
X127025Y68201D03*
X67083Y43925D03*
X141825Y17700D03*
X111175Y30646D03*
X105730Y45150D03*
X102050Y45650D03*
X43640Y36400D03*
X140750Y22722D03*
X105432Y9900D03*
X111675Y16550D03*
X20175Y16455D03*
X65450Y29175D03*
X93450Y29046D03*
X29225Y14780D03*
X42564Y32525D03*
X61639Y57600D03*
X67259Y64750D03*
X63480Y7350D03*
X110575Y59700D03*
X37840Y1425D03*
X58800Y2850D03*
X50775Y21145D03*
X41710Y9400D03*
X50253Y41650D03*
X127838Y64569D03*
X80319Y25831D03*
X38950Y63383D03*
X85550Y67890D03*
X7475Y18440D03*
X85900Y9725D03*
X32190Y60963D03*
X19550Y19930D03*
X77315Y23075D03*
X56975Y56850D03*
D11*
X146400Y53950D03*
D10*
X60813Y44049D03*
D11*
X116275Y54477D03*
X109375Y48223D03*
D10*
X22585Y22955D03*
X15445Y30450D03*
X36120Y58700D03*
X15788Y51925D03*
X12075Y19915D03*
X115765Y36196D03*
X29775Y15830D03*
D11*
X88385Y48089D03*
D10*
X25900Y9470D03*
X94825Y64569D03*
X36490Y32005D03*
X34140Y31875D03*
X52500Y5600D03*
X52335Y41925D03*
X44024Y33105D03*
X103100Y41975D03*
X65925Y51317D03*
X47850Y25755D03*
X38374Y2025D03*
X62100Y43950D03*
X113164Y15789D03*
D11*
X2120Y48075D03*
D10*
X95630Y41310D03*
X41950Y7150D03*
X35850Y20100D03*
X59150Y17571D03*
X39500Y44225D03*
X122220Y36700D03*
X123637Y64410D03*
X71761Y5425D03*
X20002Y14432D03*
X64805Y19075D03*
X75425Y56925D03*
X27140Y17055D03*
X21871Y26955D03*
X67577Y33534D03*
X86860Y60665D03*
X10150Y18800D03*
X70960Y58225D03*
X33615Y10684D03*
X93891Y59550D03*
X37640Y35620D03*
X44400Y12600D03*
X30425Y66878D03*
X64800Y48000D03*
X142075Y7075D03*
X38365Y8825D03*
X70425Y11075D03*
X79512Y28300D03*
X30446Y12950D03*
X26490Y30755D03*
X10350Y43640D03*
X67750Y18950D03*
X83784Y36600D03*
X44250Y16355D03*
X53350Y59150D03*
X14500Y25200D03*
X35440Y14645D03*
X5738Y56075D03*
X73789Y42405D03*
X63950Y19100D03*
X114125Y10537D03*
X52325Y1075D03*
X14343Y57500D03*
X9750Y5542D03*
X61630Y17654D03*
X98845Y64475D03*
X71278Y60200D03*
X143372Y12683D03*
X93625Y37496D03*
X27968Y34905D03*
X67398Y24650D03*
X21650Y12777D03*
X40161Y4650D03*
X85675Y60850D03*
X50070Y16095D03*
X33640Y9990D03*
X111630Y24146D03*
X25125Y42844D03*
X3900Y36238D03*
X23275Y39049D03*
X32540Y37100D03*
X112175Y30146D03*
X71278Y59485D03*
X41625Y6075D03*
X25650Y16255D03*
X91205Y39472D03*
X71950Y16450D03*
X30325Y2675D03*
X46990Y18430D03*
X38125Y24550D03*
X50375Y43241D03*
X73818Y32320D03*
X107930Y20350D03*
X56725Y25037D03*
X143150Y52568D03*
X127589Y60525D03*
X33874Y7256D03*
X67062Y34296D03*
X89050Y29150D03*
X43929Y27815D03*
X26640Y32027D03*
X46575Y29105D03*
X33640Y41450D03*
X84400Y68375D03*
X44600Y22605D03*
D11*
X87310Y54475D03*
X83525Y43625D03*
D10*
X75900Y42825D03*
X32065Y13290D03*
X11300Y43490D03*
X98875Y42625D03*
X106630Y15575D03*
X111255Y15789D03*
X76696Y14635D03*
X39725Y32005D03*
X94400Y35796D03*
X68300Y34175D03*
X47425Y7586D03*
X94557Y62281D03*
X22678Y28774D03*
X94075Y64913D03*
X68808Y45975D03*
X35050Y44650D03*
X115765Y34996D03*
X64075Y41300D03*
X58250Y26337D03*
X65820Y63483D03*
D11*
X21050Y59800D03*
D10*
X56500Y27479D03*
X35400Y9350D03*
X71412Y40650D03*
X33640Y44650D03*
X129035Y14333D03*
X4050Y29900D03*
X94250Y25196D03*
X52000Y58050D03*
X106869Y11525D03*
X20002Y11892D03*
X95355Y11750D03*
X10450Y8082D03*
X33000Y11055D03*
X142492Y58889D03*
X37265Y14855D03*
X53251Y10156D03*
X97566Y37996D03*
X59700Y25737D03*
X93450Y31146D03*
D11*
X105722Y52177D03*
D10*
X78500Y31210D03*
X76696Y19325D03*
X39725Y41131D03*
X68325Y10875D03*
X96980Y38475D03*
X26625Y26415D03*
X50750Y2665D03*
D11*
X4211Y52425D03*
D10*
X103630Y45175D03*
X84544Y24496D03*
X112575Y22635D03*
X74412Y40650D03*
X19723Y15780D03*
X97725Y14375D03*
D11*
X19560Y53485D03*
D10*
X12812Y16972D03*
X40340Y16955D03*
X60175Y1850D03*
D11*
X8325Y41095D03*
D10*
X82875Y60975D03*
X132718Y35750D03*
D11*
X22625Y55321D03*
D10*
X42129Y14130D03*
D11*
X31115Y48010D03*
D10*
X43675Y16850D03*
X45759Y44650D03*
X34615Y32535D03*
X39300Y40450D03*
X97859Y68360D03*
X57750Y67174D03*
X103121Y58375D03*
X59150Y18346D03*
X49450Y15100D03*
D11*
X6050Y27225D03*
D10*
X103105Y15349D03*
X32990Y30275D03*
X107075Y22480D03*
X21685Y19455D03*
X5750Y14275D03*
X106580Y31375D03*
X84050Y21520D03*
X68113Y30496D03*
X110130Y43225D03*
X16662Y16972D03*
D11*
X64525Y46825D03*
D10*
X67200Y46000D03*
X114900Y37146D03*
X39640Y9250D03*
X67412Y37289D03*
X85250Y42275D03*
X104150Y45650D03*
X44025Y40350D03*
X32325Y41925D03*
X76007Y13096D03*
X69023Y0850D03*
X54275Y16082D03*
X51775Y13975D03*
X39700Y3000D03*
X68933Y49043D03*
X48850Y7050D03*
X65820Y66169D03*
X14203Y63295D03*
X35750Y8675D03*
D11*
X119475Y39625D03*
X128350Y30983D03*
X59575Y54450D03*
D10*
X53108Y26007D03*
X94145Y33975D03*
X71345Y52450D03*
X25585Y20430D03*
X54650Y28051D03*
X102950Y57250D03*
X95630Y38900D03*
X59450Y2400D03*
X124760Y32650D03*
X29775Y13150D03*
D12*
X77400Y56425D03*
D10*
X68050Y25163D03*
X27450Y22455D03*
X113150Y60824D03*
X109500Y38350D03*
X100023Y10750D03*
X43725Y5700D03*
X89925Y23646D03*
X53700Y17200D03*
X133197Y62987D03*
X31490Y13750D03*
X93675Y42995D03*
X102514Y57800D03*
D11*
X10750Y47325D03*
D12*
X79300Y56425D03*
D10*
X65250Y65094D03*
X81250Y15025D03*
X20187Y29455D03*
X98600Y9675D03*
X43775Y18630D03*
X42140Y30350D03*
X93246Y66025D03*
X84594Y25575D03*
X4385Y19225D03*
X143650Y21750D03*
X104875Y9400D03*
D11*
X87375Y42275D03*
D10*
X94480Y36646D03*
X149250Y27298D03*
X40640Y31923D03*
X45655Y10890D03*
X6749Y58275D03*
X30250Y61700D03*
X16808Y66875D03*
X49950Y13575D03*
X68050Y21775D03*
X79562Y45937D03*
X40990Y32500D03*
X137150Y55120D03*
X48048Y17105D03*
D11*
X11728Y65740D03*
D10*
X70559Y68635D03*
X25025Y19605D03*
X20750Y3675D03*
D11*
X126250Y52568D03*
D10*
X70125Y21200D03*
X45501Y68951D03*
X49452Y63372D03*
D11*
X9575Y58484D03*
D10*
X117600Y10100D03*
X34140Y28550D03*
X46850Y7200D03*
X28050Y15675D03*
X108976Y41555D03*
X21541Y29455D03*
X73675Y64103D03*
X103630Y32089D03*
D11*
X34475Y47075D03*
D10*
X102075Y43800D03*
X137947Y15475D03*
X30840Y14294D03*
X70425Y12082D03*
X73408Y41075D03*
X36490Y10740D03*
X58375Y60325D03*
X64150Y38205D03*
X102630Y20475D03*
X28775Y37555D03*
X24325Y8600D03*
X103650Y59050D03*
X125350Y20775D03*
X76471Y25325D03*
X42140Y31305D03*
X50925Y32400D03*
X60255Y35700D03*
X67350Y30545D03*
X39650Y21550D03*
X49850Y36400D03*
X47998Y10395D03*
X45168Y64780D03*
X66325Y5550D03*
X79787Y40870D03*
X100425Y13300D03*
X25025Y31325D03*
X23225Y8470D03*
D11*
X44075Y51410D03*
D10*
X93975Y30675D03*
X36640Y14244D03*
X44940Y12055D03*
X108130Y36496D03*
X80875Y31766D03*
X50750Y30130D03*
X6110Y19450D03*
X22075Y8026D03*
X44400Y14980D03*
X108394Y11650D03*
X147122Y27125D03*
X73942Y23767D03*
X13204Y64270D03*
X48350Y25105D03*
X140718Y51253D03*
X63350Y15142D03*
X49625Y21276D03*
X56195Y21907D03*
X90545Y43424D03*
X51810Y34975D03*
X25200Y22755D03*
X29519Y42125D03*
X62950Y42575D03*
X19932Y8082D03*
X81412Y41800D03*
X122575Y64410D03*
X25550Y26540D03*
X118475Y10625D03*
X28950Y4475D03*
X53108Y28622D03*
X23550Y4050D03*
X34090Y16950D03*
X40775Y4950D03*
X37900Y65134D03*
X67409Y28666D03*
X121375Y62987D03*
X44215Y10761D03*
X106350Y10961D03*
D11*
X12564Y47325D03*
D10*
X51121Y39900D03*
X29990Y29860D03*
X3725Y27225D03*
D11*
X52676Y48225D03*
D10*
X93155Y64984D03*
X8625Y21200D03*
X34065Y14319D03*
X59560Y60325D03*
X38990Y32500D03*
X68825Y24800D03*
X94630Y38750D03*
X107280Y21250D03*
X126325Y34539D03*
X37640Y34905D03*
X34450Y5482D03*
X80675Y1650D03*
X14203Y64270D03*
X95836Y42095D03*
X13950Y66725D03*
X50925Y41375D03*
X37990Y32695D03*
D12*
X75925Y54615D03*
D10*
X115650Y29496D03*
X53108Y25137D03*
X105875Y10450D03*
X63075Y19100D03*
X49600Y30255D03*
X85075Y48200D03*
X68725Y27350D03*
X73775Y11450D03*
X29075Y3300D03*
D11*
X8848Y62350D03*
D10*
X76665Y17649D03*
X40340Y30755D03*
X76650Y1650D03*
X29840Y10990D03*
X49625Y2550D03*
X18200Y21875D03*
X109180Y36496D03*
X38075Y13075D03*
X46250Y36400D03*
X29140Y8384D03*
X120029Y67525D03*
X82275Y21805D03*
X17600Y28274D03*
X69424Y35723D03*
X52150Y38025D03*
X103925Y63675D03*
X77767Y24431D03*
X1725Y20525D03*
X42725Y10890D03*
X71401Y56574D03*
X47850Y30955D03*
X44500Y11455D03*
X47696Y26605D03*
X129725Y44800D03*
X90950Y67600D03*
X34177Y11055D03*
X46925Y40615D03*
X88911Y41375D03*
X73075Y68635D03*
X88251Y31796D03*
X66950Y35050D03*
X132718Y44800D03*
X116125Y16913D03*
X72412Y40950D03*
X94900Y30025D03*
X10800Y36025D03*
X15788Y53185D03*
X46596Y18987D03*
X7050Y39350D03*
X40575Y42575D03*
X96012Y10475D03*
X98520Y60809D03*
X114469Y62724D03*
D11*
X18800Y59075D03*
D10*
X106105Y19775D03*
X106275Y25725D03*
X46843Y12055D03*
X49075Y12600D03*
X26125Y27105D03*
X54730Y11525D03*
X82400Y29150D03*
X77505Y37975D03*
X28690Y5825D03*
X33000Y6857D03*
X125350Y18550D03*
X30140Y32195D03*
X115650Y2850D03*
X69200Y25475D03*
X89150Y56625D03*
X21685Y24326D03*
%LNbottom solder mask component 6c77fb6828285894*%
D13*
X106325Y2075D03*
X106325Y2975D03*
%LNbottom solder mask component 57deb66949abf7f3*%
D14*
X102071Y61106D03*
D15*
X102071Y63006D03*
X104153Y62056D03*
%LNbottom solder mask component 103f1e833a8ae606*%
D16*
X84745Y21520D03*
X85645Y21520D03*
%LNbottom solder mask component 1a345c029338c5b0*%
X88816Y12295D03*
X89716Y12295D03*
%LNbottom solder mask component 9cc461a22457ed88*%
D17*
X98280Y42639D03*
X97380Y42639D03*
%LNbottom solder mask component dd1c5f44bff21e91*%
X85645Y22520D03*
X84745Y22520D03*
%LNbottom solder mask component 6625cb58229ce1a0*%
D16*
X89945Y27215D03*
X90845Y27215D03*
%LNbottom solder mask component e81b5fe52f0ffbc8*%
D18*
X104118Y66746D03*
%LNbottom solder mask component 376bf2a3b6f850f5*%
D16*
X98695Y68351D03*
X99595Y68351D03*
%LNbottom solder mask component c319054bbb44535d*%
D13*
X107130Y16305D03*
X107130Y17205D03*
%LNbottom solder mask component 9e20696bf75aee58*%
D16*
X89945Y32360D03*
X90845Y32360D03*
%LNbottom solder mask component aebf7640576b29f4*%
D13*
X88124Y38296D03*
X88124Y39196D03*
%LNbottom solder mask component 662934c5ea040131*%
D19*
X126889Y66580D03*
D20*
X127539Y66580D03*
X128189Y66580D03*
X128839Y66580D03*
X128839Y62278D03*
X128189Y62278D03*
X127539Y62278D03*
X126889Y62278D03*
%LNbottom solder mask component 9a6a617898d3f957*%
D21*
X126425Y3450D03*
X128965Y3450D03*
D22*
X123885Y3450D03*
%LNbottom solder mask component 271cc731edb2a7cc*%
D16*
X39947Y65709D03*
X40847Y65709D03*
%LNbottom solder mask component a6c9556ca11762e2*%
X89945Y31230D03*
X90845Y31230D03*
%LNbottom solder mask component ffe99316bcc25094*%
D23*
X59620Y16525D03*
X60720Y16525D03*
X61820Y16525D03*
X62920Y16525D03*
X64020Y16525D03*
X65120Y16525D03*
X66220Y16525D03*
X67320Y16525D03*
D24*
X58070Y16525D03*
X69220Y12225D03*
D25*
X69220Y6025D03*
D26*
X55720Y1425D03*
D23*
X68270Y16525D03*
D27*
X69220Y1875D03*
%LNbottom solder mask component 7a6712bfaa6a5733*%
D28*
X83150Y65615D03*
X84100Y65615D03*
X85050Y65615D03*
X85050Y62915D03*
X84100Y62915D03*
X83150Y62915D03*
%LNbottom solder mask component 5d1077b0710ee042*%
D29*
X87395Y19499D03*
X87395Y18599D03*
%LNbottom solder mask component 6e4de001a9bb0500*%
D30*
X21221Y53521D03*
X21221Y55621D03*
%LNbottom solder mask component 699f547d01377c70*%
D16*
X81025Y68516D03*
X81925Y68516D03*
%LNbottom solder mask component 870bf09e0b5c0424*%
D29*
X105425Y2975D03*
X105425Y2075D03*
%LNbottom solder mask component 91da17176f2c7119*%
D16*
X71411Y68410D03*
X72311Y68410D03*
%LNbottom solder mask component ede95a78f6e58166*%
X89945Y33165D03*
X90845Y33165D03*
%LNbottom solder mask component 4a47d71a10e4a52c*%
X127690Y68357D03*
X128590Y68357D03*
%LNbottom solder mask component 2180778f98263c72*%
D31*
X87245Y27844D03*
X87245Y25344D03*
%LNbottom solder mask component 9c2df5d4cd8eb606*%
D14*
X47425Y61175D03*
D15*
X47425Y63075D03*
X49507Y62125D03*
%LNbottom solder mask component ba616e29cb1e054c*%
D17*
X94158Y12295D03*
X93258Y12295D03*
%LNbottom solder mask component f776202d8572b35f*%
D29*
X96478Y64904D03*
X96478Y64004D03*
%LNbottom solder mask component 95125385224ea348*%
D32*
X60422Y67355D03*
%LNbottom solder mask component e7d0ef67afd8e3b2*%
D29*
X76007Y14564D03*
X76007Y13664D03*
%LNbottom solder mask component 436fce5061901f9d*%
D18*
X133175Y66750D03*
%LNbottom solder mask component eab60dd8b8402126*%
D29*
X66025Y18540D03*
X66025Y17640D03*
%LNbottom solder mask component 4a2f133cbe9c8948*%
D18*
X76700Y66735D03*
%LNbottom solder mask component ac7b5a64f94308cd*%
D33*
X87981Y67140D03*
%LNbottom solder mask component 48390e21da0b21b2*%
D34*
X77400Y56425D03*
D35*
X79300Y56425D03*
X78350Y54255D03*
%LNbottom solder mask component 86cf3804c1f81840*%
D36*
X81210Y25907D03*
X83310Y25907D03*
%LNbottom solder mask component ac43103f824eeeb8*%
D17*
X116145Y30290D03*
X115245Y30290D03*
%LNbottom solder mask component 51a7e782c7d40675*%
D29*
X62494Y18369D03*
X62494Y17469D03*
%LNbottom solder mask component b4224497cd0fda00*%
D30*
X22881Y52091D03*
X22881Y54191D03*
%LNbottom solder mask component be66c4744ae5378b*%
D16*
X39947Y63363D03*
X40847Y63363D03*
%LNbottom solder mask component 3e48f677b17fb62f*%
D13*
X9673Y65740D03*
X9673Y66640D03*
%LNbottom solder mask component 929ed0a272714bb5*%
D17*
X90845Y29210D03*
X89945Y29210D03*
%LNbottom solder mask component 794621346790aab4*%
D37*
X100173Y1392D03*
X103927Y1392D03*
%LNbottom solder mask component 3dc686e3e124887d*%
D29*
X94130Y42395D03*
X94130Y41495D03*
%LNbottom solder mask component 81b386dbb0794707*%
D13*
X85620Y25116D03*
X85620Y26016D03*
%LNbottom solder mask component 889ca82e9d95c562*%
X97745Y15535D03*
X97745Y16435D03*
%LNbottom solder mask component c8ac8ae86d1934c6*%
D38*
X95870Y43424D03*
X95870Y45424D03*
%LNbottom solder mask component 0ad4790fa0a8d2cf*%
D39*
X81407Y36600D03*
D40*
X81407Y37870D03*
X81407Y39140D03*
X81407Y40410D03*
X86245Y40410D03*
X86245Y39140D03*
X86245Y37870D03*
X86245Y36600D03*
%LNbottom solder mask component bd364c941d498707*%
D16*
X89945Y24646D03*
X90845Y24646D03*
%LNbottom solder mask component c24edfc7d2909253*%
D41*
X149197Y28375D03*
X147097Y28375D03*
%LNbottom solder mask component 4c36f046aa5e79f8*%
D16*
X68758Y50785D03*
X69658Y50785D03*
%LNbottom solder mask component 057108266a0d46aa*%
D38*
X92535Y40495D03*
X92535Y42495D03*
%LNbottom solder mask component 0d91d5e7a28225ad*%
D42*
X90545Y42430D03*
X90545Y40330D03*
%LNbottom solder mask component c760b5e604b3d89d*%
D17*
X116145Y31210D03*
X115245Y31210D03*
%LNbottom solder mask component 6e52bf300ab1e078*%
D43*
X111630Y18596D03*
X111130Y18596D03*
X110630Y18596D03*
X110130Y18596D03*
X109630Y18596D03*
X109130Y18596D03*
X108630Y18596D03*
X108130Y18596D03*
X107630Y18596D03*
X107130Y18596D03*
X106630Y18596D03*
X106130Y18596D03*
X105630Y18596D03*
X105130Y18596D03*
X104630Y18596D03*
X104130Y18596D03*
X103630Y18596D03*
X103130Y18596D03*
X102630Y18596D03*
X102130Y18596D03*
X101630Y18596D03*
X101130Y18596D03*
X100630Y18596D03*
X100130Y18596D03*
X99630Y18596D03*
X99130Y18596D03*
X98630Y18596D03*
X98130Y18596D03*
X97630Y18596D03*
X97130Y18596D03*
X96630Y18596D03*
X96130Y18596D03*
X95630Y18596D03*
X95130Y18596D03*
X94630Y18596D03*
X94130Y18596D03*
D44*
X92080Y20646D03*
X92080Y21146D03*
X92080Y21646D03*
X92080Y22146D03*
X92080Y22646D03*
X92080Y23146D03*
X92080Y23646D03*
X92080Y24146D03*
X92080Y24646D03*
X92080Y25146D03*
X92080Y25646D03*
X92080Y26146D03*
X92080Y26646D03*
X92080Y27146D03*
X92080Y27646D03*
X92080Y28146D03*
X92080Y28646D03*
X92080Y29146D03*
X92080Y29646D03*
X92080Y30146D03*
X92080Y30646D03*
X92080Y31146D03*
X92080Y31646D03*
X92080Y32146D03*
X92080Y32646D03*
X92080Y33146D03*
X92080Y33646D03*
X92080Y34146D03*
X92080Y34646D03*
X92080Y35146D03*
X92080Y35646D03*
X92080Y36146D03*
X92080Y36646D03*
X92080Y37146D03*
X92080Y37646D03*
X92080Y38146D03*
D43*
X94130Y40196D03*
X94630Y40196D03*
X95130Y40196D03*
X95630Y40196D03*
X96130Y40196D03*
X96630Y40196D03*
X97130Y40196D03*
X97630Y40196D03*
X98130Y40196D03*
X98630Y40196D03*
X99130Y40196D03*
X99630Y40196D03*
X100130Y40196D03*
X100630Y40196D03*
X101130Y40196D03*
X101630Y40196D03*
X102130Y40196D03*
X102630Y40196D03*
X103130Y40196D03*
X103630Y40196D03*
X104130Y40196D03*
X104630Y40196D03*
X105130Y40196D03*
X105630Y40196D03*
X106130Y40196D03*
X106630Y40196D03*
X107130Y40196D03*
X107630Y40196D03*
X108130Y40196D03*
X108630Y40196D03*
X109130Y40196D03*
X109630Y40196D03*
X110130Y40196D03*
X110630Y40196D03*
X111130Y40196D03*
X111630Y40196D03*
D44*
X113680Y38146D03*
X113680Y37646D03*
X113680Y37146D03*
X113680Y36646D03*
X113680Y36146D03*
X113680Y35646D03*
X113680Y35146D03*
X113680Y34646D03*
X113680Y34146D03*
X113680Y33646D03*
X113680Y33146D03*
X113680Y32646D03*
X113680Y32146D03*
X113680Y31646D03*
X113680Y31146D03*
X113680Y30646D03*
X113680Y30146D03*
X113680Y29646D03*
X113680Y29146D03*
X113680Y28646D03*
X113680Y28146D03*
X113680Y27646D03*
X113680Y27146D03*
X113680Y26646D03*
X113680Y26146D03*
X113680Y25646D03*
X113680Y25146D03*
X113680Y24646D03*
X113680Y24146D03*
X113680Y23646D03*
X113680Y23146D03*
X113680Y22646D03*
X113680Y22146D03*
X113680Y21646D03*
X113680Y21146D03*
X113680Y20646D03*
%LNbottom solder mask component adf725f494d4606d*%
D16*
X67309Y65699D03*
X68209Y65699D03*
%LNbottom solder mask component 4cc7ebdd968bdb88*%
D29*
X13918Y60825D03*
X13918Y59925D03*
%LNbottom solder mask component 94166215a82095ca*%
D16*
X89945Y28130D03*
X90845Y28130D03*
%LNbottom solder mask component 5b2566b75bc5cc6e*%
D45*
X12284Y56375D03*
X12284Y52175D03*
%LNbottom solder mask component 37d8075971b3358a*%
D46*
X2220Y48075D03*
X2220Y54775D03*
D47*
X7970Y52425D03*
X7970Y50425D03*
%LNbottom solder mask component f84e53ac3099d92c*%
D30*
X99385Y14132D03*
X99385Y16232D03*
%LNbottom solder mask component 305ac9df71b7261b*%
D16*
X89945Y30210D03*
X90845Y30210D03*
%LNbottom solder mask component e83e3ad7d60dfea8*%
D13*
X87395Y20601D03*
X87395Y21501D03*
%LNbottom solder mask component 84c7f1e7987823d4*%
D18*
X49625Y66725D03*
%LNbottom solder mask component 94ad8cbf5130aa47*%
D29*
X110695Y42520D03*
X110695Y41620D03*
%LNbottom solder mask component 631ad418aba9c268*%
D16*
X44050Y68421D03*
X44950Y68421D03*
%LNbottom solder mask component 4bb0c09cc5e8b9cd*%
D48*
X122220Y37725D03*
X124760Y39725D03*
X122220Y33725D03*
X124760Y35625D03*
X124760Y31625D03*
%LNbottom solder mask component 12ba33d6f75b2fc3*%
D49*
X13693Y63795D03*
D50*
X12693Y65760D03*
X13193Y65760D03*
X13693Y65760D03*
X14193Y65760D03*
X14693Y65760D03*
X14693Y61830D03*
X14193Y61830D03*
X13693Y61830D03*
X13193Y61830D03*
X12693Y61830D03*
D51*
X15658Y64795D03*
X15658Y64295D03*
X15658Y63795D03*
X15658Y63295D03*
X15658Y62795D03*
X11728Y62795D03*
X11728Y63295D03*
X11728Y63795D03*
X11728Y64295D03*
X11728Y64795D03*
%LNbottom solder mask component bdb34aa17cedfe69*%
D30*
X19560Y54985D03*
X19560Y57085D03*
%LNbottom solder mask component c7f85098566124e2*%
D19*
X97894Y66574D03*
D20*
X98544Y66574D03*
X99194Y66574D03*
X99844Y66574D03*
X99844Y62272D03*
X99194Y62272D03*
X98544Y62272D03*
X97894Y62272D03*
%LNbottom solder mask component 429a6545c24044ee*%
D29*
X53925Y6090D03*
X53925Y5190D03*
%LNbottom solder mask component 19c6cde67bfb4e94*%
D52*
X88900Y40421D03*
X88900Y40421D03*
%LNbottom solder mask component a2a184ca20681696*%
D33*
X33149Y67324D03*
%LNbottom solder mask component 28227732a78a7cb8*%
D16*
X89945Y22646D03*
X90845Y22646D03*
%LNbottom solder mask component 1b3a137fb4c8f301*%
X123587Y65646D03*
X124487Y65646D03*
%LNbottom solder mask component 89296f763a6b0cea*%
D29*
X66959Y18554D03*
X66959Y17654D03*
%LNbottom solder mask component 4877b0f46142e2cf*%
D14*
X131065Y61112D03*
D15*
X131065Y63012D03*
X133147Y62062D03*
%LNbottom solder mask component 7b070454a9c77887*%
D19*
X43249Y66643D03*
D20*
X43899Y66643D03*
X44549Y66643D03*
X45199Y66643D03*
X45199Y62342D03*
X44549Y62342D03*
X43899Y62342D03*
X43249Y62342D03*
%LNbottom solder mask component 8718293aa2cb5ee0*%
D29*
X14843Y60825D03*
X14843Y59925D03*
%LNbottom solder mask component 3ea465c7e1ce99aa*%
D52*
X88900Y39221D03*
X88900Y39221D03*
%LNbottom solder mask component 8d70596878bac125*%
D29*
X88124Y37578D03*
X88124Y36678D03*
%LNbottom solder mask component bfcb492bf855c37c*%
D13*
X9673Y63980D03*
X9673Y64880D03*
%LNbottom solder mask component 9c1d29d60950868d*%
D29*
X59970Y18471D03*
X59970Y17571D03*
%LNbottom solder mask component ac8a15ef0c9ae2fa*%
D53*
X96235Y16120D03*
X96235Y14120D03*
%LNbottom solder mask component e9bbd1de8cfa4370*%
D29*
X41833Y64974D03*
X41833Y64074D03*
%LNbottom solder mask component 0657044e83eb0037*%
D16*
X67309Y63352D03*
X68209Y63352D03*
%LNbottom solder mask component 4f22a85c58de3f60*%
D54*
X35175Y49110D03*
X35175Y51410D03*
X35175Y53710D03*
D55*
X40975Y51410D03*
%LNbottom solder mask component 6e72e76db259bf91*%
D16*
X82875Y68516D03*
X83775Y68516D03*
%LNbottom solder mask component 0762995cfe454123*%
D56*
X89580Y15049D03*
X93680Y15049D03*
%LNbottom solder mask component d2afa2a82e9796c3*%
D16*
X123587Y63299D03*
X124487Y63299D03*
%LNbottom solder mask component 16a17e7aca4c2d88*%
D17*
X90845Y25480D03*
X89945Y25480D03*
%LNbottom solder mask component e6458041b3a6e023*%
D29*
X125472Y64910D03*
X125472Y64010D03*
%LNbottom solder mask component 3d3246866b97b079*%
X69194Y64963D03*
X69194Y64063D03*
%LNbottom solder mask component 3e9516a4c0f05038*%
D57*
X83145Y23931D03*
X81145Y23931D03*
%LNbottom solder mask component b5424ddd2021d52a*%
D30*
X13224Y48525D03*
X13224Y50625D03*
%LNbottom solder mask component 3f08c77576248507*%
D58*
X86232Y7235D03*
X78832Y5335D03*
D59*
X78832Y14635D03*
D60*
X78832Y2535D03*
%LNbottom solder mask component ca3ee4759af5035e*%
D14*
X74786Y61165D03*
D15*
X74786Y63065D03*
X76869Y62115D03*
%LNbottom solder mask component 5503f14c664041ee*%
D17*
X77518Y53235D03*
X76618Y53235D03*
%LNbottom solder mask component 092b1c31e3ece9a8*%
D16*
X93701Y44210D03*
X94601Y44210D03*
%LNbottom solder mask component f0704222e2b177cf*%
X94593Y65640D03*
X95493Y65640D03*
%LNbottom solder mask component b8cbee562701c7a9*%
D41*
X117530Y32565D03*
X115430Y32565D03*
%LNbottom solder mask component f4b69ed6fbb75d86*%
D16*
X93675Y46300D03*
X94575Y46300D03*
%LNbottom solder mask component 780624b7563f9ea2*%
D29*
X85620Y28210D03*
X85620Y27310D03*
%LNbottom solder mask component 5285739ff7747fbc*%
X60850Y18490D03*
X60850Y17590D03*
%LNbottom solder mask component 3a095c9a87070f43*%
D33*
X116940Y67096D03*
%LNbottom solder mask component 013753e3cc1ba7b8*%
D61*
X68658Y57075D03*
X69158Y57075D03*
X69658Y57075D03*
X70158Y57075D03*
X70658Y57075D03*
X70658Y52675D03*
X70158Y52675D03*
X69658Y52675D03*
X69158Y52675D03*
X68658Y52675D03*
%LNbottom solder mask component 75cef43a1ab3964c*%
D29*
X109695Y42520D03*
X109695Y41620D03*
%LNbottom solder mask component 6473543272afc03c*%
D19*
X70610Y66633D03*
D20*
X71260Y66633D03*
X71910Y66633D03*
X72560Y66633D03*
X72560Y62331D03*
X71910Y62331D03*
X71260Y62331D03*
X70610Y62331D03*
%LNbottom solder mask component 991436276d853757*%
D16*
X94593Y63293D03*
X95493Y63293D03*
%LNbottom solder mask component 81358ec50ea6f5d7*%
X15123Y66875D03*
X16023Y66875D03*
%LNbottom solder mask component 5b64f66fd4ee2ca1*%
D13*
X24225Y52400D03*
X24225Y53300D03*
%LNbottom solder mask component 45697f5d92883bf2*%
D29*
X88124Y41380D03*
X88124Y40480D03*
%LNbottom solder mask component ef1ef3070985558a*%
D13*
X106266Y16295D03*
X106266Y17195D03*
M02*