%FSLAX33Y33*%
%MOMM*%
%AMRect-W1500000-H2600000-RO0.500*
21,1,1.5,2.6,0.,0.,270*%
%AMRect-W670710-H1320710-RO1.000*
21,1,0.67071,1.32071,0.,0.,180*%
%AMRect-W370710-H570710-RO1.500*
21,1,0.37071,0.57071,0.,0.,90*%
%AMRect-W1200000-H1200000-RO1.000*
21,1,1.2,1.2,0.,0.,180*%
%AMRect-W1291421-H1844948-RO1.000*
21,1,1.291421,1.844948,0.,0.,180*%
%AMRect-W370710-H570710-RO0.500*
21,1,0.37071,0.57071,0.,0.,270*%
%AMRect-W370710-H570710-RO1.000*
21,1,0.37071,0.57071,0.,0.,180*%
%AMRect-W670710-H1320710-RO1.500*
21,1,0.67071,1.32071,0.,0.,90*%
%AMRect-W1140000-H2290000-RO0.500*
21,1,1.14,2.29,0.,0.,270*%
%AMRect-W600000-H1050000-RO0.500*
21,1,0.6,1.05,0.,0.,270*%
%AMRR-H2375000-W1900000-R299999-RO0.000*
21,1,1.300002,2.375,0.,0.,360*
21,1,1.9,1.775002,0.,0.,360*
1,1,0.599998,-0.650001,0.887501*
1,1,0.599998,0.650001,0.887501*
1,1,0.599998,0.650001,-0.887501*
1,1,0.599998,-0.650001,-0.887501*%
%AMRR-H1174999-W1900000-R299999-RO0.000*
21,1,1.300002,1.174999,0.,0.,360*
21,1,1.9,0.575001,0.,0.,360*
1,1,0.599998,-0.650001,0.2875005*
1,1,0.599998,0.650001,0.2875005*
1,1,0.599998,0.650001,-0.2875005*
1,1,0.599998,-0.650001,-0.2875005*%
%AMRR-H1475000-W2100000-R299999-RO0.000*
21,1,1.500002,1.475,0.,0.,360*
21,1,2.1,0.875002,0.,0.,360*
1,1,0.599998,-0.750001,0.437501*
1,1,0.599998,0.750001,0.437501*
1,1,0.599998,0.750001,-0.437501*
1,1,0.599998,-0.750001,-0.437501*%
%AMRR-H450000-W1380000-R100000-RO0.000*
21,1,1.18,0.45,0.,0.,360*
21,1,1.38,0.25,0.,0.,360*
1,1,0.2,-0.59,0.125*
1,1,0.2,0.59,0.125*
1,1,0.2,0.59,-0.125*
1,1,0.2,-0.59,-0.125*%
%AMRect-W1020000-H760000-RO1.500*
21,1,1.02,0.76,0.,0.,90*%
%AMRR-H637228-W1771339-R318614-RO0.000*
21,1,1.134111,0.637228,0.,0.,360*
1,1,0.637228,-0.5670555,0.*
1,1,0.637228,0.5670555,0.*
1,1,0.637228,0.5670555,-0.*
1,1,0.637228,-0.5670555,0.*%
%AMRect-W3810000-H2290000-RO1.000*
21,1,3.81,2.29,0.,0.,180*%
%AMRect-W1020000-H2290000-RO1.000*
21,1,1.02,2.29,0.,0.,180*%
%AMRect-W3000000-H2500000-RO1.000*
21,1,3.,2.5,0.,0.,180*%
%AMRect-W300000-H1200000-RO1.000*
21,1,0.3,1.2,0.,0.,180*%
%AMRect-W1200000-H300000-RO1.000*
21,1,1.2,0.3,0.,0.,180*%
%AMRect-W1000000-H1000000-RO1.000*
21,1,1.,1.,0.,0.,180*%
%AMRect-W2352833-H494928-RO1.500*
21,1,2.352833,0.494928,0.,0.,90*%
%AMRect-W3323205-H541421-RO0.500*
21,1,3.323205,0.541421,0.,0.,270*%
%AMRR-H541421-W3323205-R270710-RO0.500*
21,1,2.781785,0.541421,0.,0.,270*
21,1,3.323205,0.000001,0.,0.,270*
1,1,0.54142,0.0000005,1.3908925*
1,1,0.54142,0.0000005,-1.3908925*
1,1,0.54142,-0.0000005,-1.3908925*
1,1,0.54142,-0.0000005,1.3908925*%
%AMRect-W950000-H2150000-RO1.500*
21,1,0.95,2.15,0.,0.,90*%
%AMRect-W3250000-H2150000-RO1.500*
21,1,3.25,2.15,0.,0.,90*%
%AMRR-H750000-W750000-R375000-RO1.500*
1,1,0.75,-0.,-0.*
1,1,0.75,-0.,0.*
1,1,0.75,0.,0.*
1,1,0.75,0.,-0.*%
%AMRect-W670710-H1320710-RO0.500*
21,1,0.67071,1.32071,0.,0.,270*%
%AMRect-W670710-H870710-RO1.500*
21,1,0.67071,0.87071,0.,0.,90*%
%AMRect-W1020000-H760000-RO0.500*
21,1,1.02,0.76,0.,0.,270*%
%AMRR-H200000-W634948-R100000-RO0.000*
21,1,0.434948,0.2,0.,0.,360*
1,1,0.2,-0.217474,0.*
1,1,0.2,0.217474,0.*
1,1,0.2,0.217474,-0.*
1,1,0.2,-0.217474,0.*%
%AMRR-H634948-W200000-R100000-RO0.000*
21,1,0.2,0.434948,0.,0.,360*
1,1,0.2,0.,0.217474*
1,1,0.2,0.,0.217474*
1,1,0.2,0.,-0.217474*
1,1,0.2,-0.,-0.217474*%
%AMRR-H610710-W1188281-R305355-RO0.000*
21,1,0.577571,0.61071,0.,0.,360*
1,1,0.61071,-0.2887855,0.*
1,1,0.61071,0.2887855,0.*
1,1,0.61071,0.2887855,-0.*
1,1,0.61071,-0.2887855,0.*%
%AMRect-W3456201-H624928-RO1.000*
21,1,3.456201,0.624928,0.,0.,180*%
%AMRR-H624928-W3456201-R312464-RO1.000*
21,1,2.831273,0.624928,0.,0.,180*
1,1,0.624928,1.4156365,-0.*
1,1,0.624928,-1.4156365,-0.*
1,1,0.624928,-1.4156365,0.*
1,1,0.624928,1.4156365,0.*%
%AMRect-W1500000-H450000-RO1.000*
21,1,1.5,0.45,0.,0.,180*%
%AMRect-W400000-H800000-RO1.500*
21,1,0.4,0.8,0.,0.,90*%
%AMRect-W1000000-H900000-RO1.500*
21,1,1.,0.9,0.,0.,90*%
%AMRect-W1200000-H1200000-RO0.500*
21,1,1.2,1.2,0.,0.,270*%
%AMRect-W1600000-H2200000-RO1.000*
21,1,1.6,2.2,0.,0.,180*%
%AMRect-W700000-H1800000-RO1.000*
21,1,0.7,1.8,0.,0.,180*%
%AMRect-W1000000-H1000000-RO0.500*
21,1,1.,1.,0.,0.,270*%
%AMRect-W1000000-H1000000-RO1.500*
21,1,1.,1.,0.,0.,90*%
%AMRect-W1000000-H2000000-RO0.500*
21,1,1.,2.,0.,0.,270*%
%AMRect-W1000000-H1800000-RO1.500*
21,1,1.,1.8,0.,0.,90*%
%AMRR-H750000-W750000-R375000-RO0.000*
1,1,0.75,0.,0.*
1,1,0.75,0.,0.*
1,1,0.75,0.,-0.*
1,1,0.75,-0.,0.*%
%AMRect-W700000-H1500000-RO1.000*
21,1,0.7,1.5,0.,0.,180*%
%AMRect-W1300000-H3400000-RO1.000*
21,1,1.3,3.4,0.,0.,180*%
%AMRR-H850000-W3000000-R425000-RO0.500*
21,1,2.15,0.85,0.,0.,270*
1,1,0.85,0.,1.075*
1,1,0.85,0.,-1.075*
1,1,0.85,-0.,-1.075*
1,1,0.85,-0.,1.075*%
%AMRR-H3000000-W850000-R425000-RO0.500*
21,1,0.85,2.15,0.,0.,270*
1,1,0.85,1.075,0.*
1,1,0.85,1.075,-0.*
1,1,0.85,-1.075,-0.*
1,1,0.85,-1.075,0.*%
%AMRect-W2000000-H3800000-RO0.500*
21,1,2.,3.8,0.,0.,270*%
%AMRect-W2570710-H1170710-RO1.500*
21,1,2.57071,1.17071,0.,0.,90*%
%AMRR-H1170710-W2570710-R585355-RO1.500*
21,1,1.4,1.17071,0.,0.,90*
1,1,1.17071,-0.,-0.7*
1,1,1.17071,-0.,0.7*
1,1,1.17071,0.,0.7*
1,1,1.17071,0.,-0.7*%
%AMRect-W1900000-H2400000-RO1.000*
21,1,1.9,2.4,0.,0.,180*%
%ADD10R,0.37071X0.57071*%
%ADD11Rect-W1500000-H2600000-RO0.500*%
%ADD12Rect-W670710-H1320710-RO1.000*%
%ADD13R,0.7X1.2*%
%ADD14R,1.X1.2*%
%ADD15R,1.X0.8*%
%ADD16R,1.3X1.9*%
%ADD17R,1.X2.8*%
%ADD18Rect-W370710-H570710-RO1.500*%
%ADD19R,2.X3.8*%
%ADD20Rect-W1200000-H1200000-RO1.000*%
%ADD21Rect-W1291421-H1844948-RO1.000*%
%ADD22Rect-W370710-H570710-RO0.500*%
%ADD23Rect-W370710-H570710-RO1.000*%
%ADD24Rect-W670710-H1320710-RO1.500*%
%ADD25Rect-W1140000-H2290000-RO0.500*%
%ADD26Rect-W600000-H1050000-RO0.500*%
%ADD27RR-H2375000-W1900000-R299999-RO0.000*%
%ADD28RR-H1174999-W1900000-R299999-RO0.000*%
%ADD29RR-H1475000-W2100000-R299999-RO0.000*%
%ADD30RR-H450000-W1380000-R100000-RO0.000*%
%ADD31Rect-W1020000-H760000-RO1.500*%
%ADD32RR-H637228-W1771339-R318614-RO0.000*%
%ADD33Rect-W3810000-H2290000-RO1.000*%
%ADD34Rect-W1020000-H2290000-RO1.000*%
%ADD35Rect-W3000000-H2500000-RO1.000*%
%ADD36R,0.67071X1.32071*%
%ADD37Rect-W300000-H1200000-RO1.000*%
%ADD38Rect-W1200000-H300000-RO1.000*%
%ADD39Rect-W1000000-H1000000-RO1.000*%
%ADD40Rect-W2352833-H494928-RO1.500*%
%ADD41R,0.82071X1.67071*%
%ADD42Rect-W3323205-H541421-RO0.500*%
%ADD43RR-H541421-W3323205-R270710-RO0.500*%
%ADD44Rect-W950000-H2150000-RO1.500*%
%ADD45Rect-W3250000-H2150000-RO1.500*%
%ADD46RR-H750000-W750000-R375000-RO1.500*%
%ADD47Rect-W670710-H1320710-RO0.500*%
%ADD48Rect-W670710-H870710-RO1.500*%
%ADD49Rect-W1020000-H760000-RO0.500*%
%ADD50R,1.226908X1.066908*%
%ADD51RR-H200000-W634948-R100000-RO0.000*%
%ADD52RR-H634948-W200000-R100000-RO0.000*%
%ADD53R,1.188281X0.61071*%
%ADD54RR-H610710-W1188281-R305355-RO0.000*%
%ADD55Rect-W3456201-H624928-RO1.000*%
%ADD56RR-H624928-W3456201-R312464-RO1.000*%
%ADD57Rect-W1500000-H450000-RO1.000*%
%ADD58R,1.9X2.4*%
%ADD59Rect-W400000-H800000-RO1.500*%
%ADD60Rect-W1000000-H900000-RO1.500*%
%ADD61Rect-W1200000-H1200000-RO0.500*%
%ADD62Rect-W1600000-H2200000-RO1.000*%
%ADD63Rect-W700000-H1800000-RO1.000*%
%ADD64R,1.02X0.76*%
%ADD65Rect-W1000000-H1000000-RO0.500*%
%ADD66Rect-W1000000-H1000000-RO1.500*%
%ADD67Rect-W1000000-H2000000-RO0.500*%
%ADD68Rect-W1000000-H1800000-RO1.500*%
%ADD69RR-H750000-W750000-R375000-RO0.000*%
%ADD70Rect-W700000-H1500000-RO1.000*%
%ADD71Rect-W1300000-H3400000-RO1.000*%
%ADD72RR-H850000-W3000000-R425000-RO0.500*%
%ADD73RR-H3000000-W850000-R425000-RO0.500*%
%ADD74Rect-W2000000-H3800000-RO0.500*%
%ADD75Rect-W2570710-H1170710-RO1.500*%
%ADD76RR-H1170710-W2570710-R585355-RO1.500*%
%ADD77Rect-W1900000-H2400000-RO1.000*%
D10*
%LNtop paste_traces*%
%LNtop paste component 8d8176c652b28f31*%
G01*
X21685Y23955D03*
X22585Y23955D03*
%LNtop paste component 3d01b59ca16decc5*%
D11*
X94030Y10475D03*
X94030Y4475D03*
%LNtop paste component fe16d7437670ba7e*%
D10*
X24410Y7240D03*
X25310Y7240D03*
%LNtop paste component 0e7b35130d0ff99a*%
D12*
X72846Y18079D03*
X70746Y18079D03*
%LNtop paste component fd7a499a83045005*%
D13*
X65123Y16505D03*
X64023Y16505D03*
X62923Y16505D03*
X61823Y16505D03*
X60723Y16505D03*
X59623Y16505D03*
X58523Y16505D03*
X57423Y16505D03*
D14*
X66673Y16505D03*
X55523Y12205D03*
D15*
X55523Y6005D03*
D16*
X69023Y1405D03*
D13*
X56473Y16505D03*
D17*
X55523Y1855D03*
%LNtop paste component 472ee2c8e8218825*%
D10*
X31250Y64950D03*
X32150Y64950D03*
%LNtop paste component 5b5cd6c896aa0a3e*%
D18*
X32275Y10026D03*
X32275Y10926D03*
%LNtop paste component 1a99584b80df3def*%
D12*
X8860Y45050D03*
X6760Y45050D03*
%LNtop paste component f3710dcd90077b2c*%
D19*
X123490Y49678D03*
%LNtop paste component d2ac5b4ecff3f70d*%
D20*
X148795Y29684D03*
X146695Y29684D03*
%LNtop paste component 144914b3b249c942*%
X3150Y58875D03*
X1050Y58875D03*
%LNtop paste component 3b8d17955e2cfb77*%
D21*
X26542Y1378D03*
X22789Y1378D03*
%LNtop paste component 2b154f964bafbd44*%
D10*
X74384Y32320D03*
X75284Y32320D03*
%LNtop paste component 9dc9427ff78a1708*%
D22*
X93531Y68781D03*
X93531Y67881D03*
%LNtop paste component 1aa91201bface204*%
D10*
X15445Y30858D03*
X16345Y30858D03*
%LNtop paste component e4a1908786f7aa51*%
D22*
X65149Y18385D03*
X65149Y17485D03*
%LNtop paste component 7beaa66a6f42ca7d*%
D18*
X41425Y40680D03*
X41425Y41580D03*
%LNtop paste component e68585f2b13395c5*%
X28490Y6440D03*
X28490Y7340D03*
%LNtop paste component ef7b2a48bf855c81*%
D23*
X73148Y32320D03*
X72248Y32320D03*
%LNtop paste component 3dea93f421841177*%
D18*
X121425Y66116D03*
X121425Y67016D03*
%LNtop paste component 1809069dcdc6f26b*%
D24*
X97285Y39335D03*
X97285Y41435D03*
%LNtop paste component d80c84a6e1eed75a*%
D10*
X60761Y68225D03*
X61661Y68225D03*
%LNtop paste component 8d3a2affb6dbb62b*%
D25*
X122220Y35625D03*
X124760Y33625D03*
X122220Y39625D03*
X124760Y37725D03*
X124760Y41725D03*
%LNtop paste component 0880f7deec2e2533*%
D26*
X117379Y66831D03*
X117379Y65881D03*
X117379Y64931D03*
X120079Y64931D03*
X120079Y65881D03*
X120079Y66831D03*
%LNtop paste component e63c2a67783a0d7f*%
D22*
X140732Y30999D03*
X140732Y30099D03*
%LNtop paste component c79736d5252f37d5*%
D27*
X1700Y41613D03*
X1700Y35788D03*
D28*
X1700Y37863D03*
X1700Y39538D03*
D29*
X4000Y41163D03*
X4000Y36238D03*
D30*
X4360Y38700D03*
X4360Y39350D03*
X4360Y38050D03*
X4360Y37400D03*
X4360Y40000D03*
%LNtop paste component 6727a126ecd7265b*%
D26*
X88385Y66825D03*
X88385Y65875D03*
X88385Y64925D03*
X91085Y64925D03*
X91085Y65875D03*
X91085Y66825D03*
%LNtop paste component c0d4c99dee96a193*%
D24*
X44075Y48300D03*
X44075Y50400D03*
%LNtop paste component 8ae947fe91c62255*%
D31*
X7475Y18440D03*
X7475Y19960D03*
%LNtop paste component 2876f27dea03bff9*%
D20*
X3150Y56975D03*
X1050Y56975D03*
%LNtop paste component c6927a688512526e*%
D10*
X144574Y51675D03*
X145474Y51675D03*
%LNtop paste component 828fb400653a4caa*%
D18*
X145332Y28850D03*
X145332Y29750D03*
%LNtop paste component b6e25831873a2cb3*%
D10*
X81725Y48089D03*
X82625Y48089D03*
%LNtop paste component 1f7c8ee6a5a79f3e*%
D12*
X9240Y25975D03*
X7140Y25975D03*
%LNtop paste component 04aea7dac335c8d7*%
D10*
X114890Y64887D03*
X115790Y64887D03*
%LNtop paste component c3ff120a042b8933*%
D22*
X114469Y61990D03*
X114469Y61090D03*
%LNtop paste component 185cd787fb42763c*%
D32*
X89917Y62556D03*
X89917Y60656D03*
X92269Y61606D03*
%LNtop paste component 924f47f1949394a8*%
D23*
X128533Y51578D03*
X127633Y51578D03*
%LNtop paste component 04740504d352c888*%
X130204Y30983D03*
X129304Y30983D03*
%LNtop paste component ecaac2564770111f*%
D33*
X20144Y59629D03*
X12774Y59629D03*
D34*
X16459Y59629D03*
D35*
X11459Y68199D03*
X21459Y68199D03*
%LNtop paste component d54c3967a96e4a27*%
D23*
X47696Y21455D03*
X46796Y21455D03*
%LNtop paste component bf5a0dbd02ced38a*%
D36*
X77432Y17649D03*
X79532Y17649D03*
%LNtop paste component 04bd8a68eac8c3b8*%
D10*
X137897Y8050D03*
X138797Y8050D03*
%LNtop paste component a59a4285760105a6*%
D18*
X134622Y9529D03*
X134622Y10429D03*
%LNtop paste component e247659ae5da2a05*%
X118210Y12715D03*
X118210Y13615D03*
%LNtop paste component 7d7ef2977a0af631*%
D22*
X52975Y39111D03*
X52975Y38211D03*
%LNtop paste component 144e545643c7742a*%
D18*
X116890Y62429D03*
X116890Y63329D03*
%LNtop paste component ee61eb7a1f021cdf*%
D37*
X43490Y33655D03*
X42990Y33655D03*
X42490Y33655D03*
X41990Y33655D03*
X41490Y33655D03*
X40990Y33655D03*
X40490Y33655D03*
X39990Y33655D03*
X39490Y33655D03*
X38990Y33655D03*
X38490Y33655D03*
X37990Y33655D03*
X37490Y33655D03*
X36990Y33655D03*
X36490Y33655D03*
X35990Y33655D03*
X35490Y33655D03*
X34990Y33655D03*
X34490Y33655D03*
X33990Y33655D03*
X33490Y33655D03*
X32990Y33655D03*
X32490Y33655D03*
X31990Y33655D03*
X31490Y33655D03*
X30990Y33655D03*
X30490Y33655D03*
X29990Y33655D03*
X29490Y33655D03*
X28990Y33655D03*
X28490Y33655D03*
X27990Y33655D03*
X27490Y33655D03*
X26990Y33655D03*
X26490Y33655D03*
X25990Y33655D03*
D38*
X23940Y31605D03*
X23940Y31105D03*
X23940Y30605D03*
X23940Y30105D03*
X23940Y29605D03*
X23940Y29105D03*
X23940Y28605D03*
X23940Y28105D03*
X23940Y27605D03*
X23940Y27105D03*
X23940Y26605D03*
X23940Y26105D03*
X23940Y25605D03*
X23940Y25105D03*
X23940Y24605D03*
X23940Y24105D03*
X23940Y23605D03*
X23940Y23105D03*
X23940Y22605D03*
X23940Y22105D03*
X23940Y21605D03*
X23940Y21105D03*
X23940Y20605D03*
X23940Y20105D03*
X23940Y19605D03*
X23940Y19105D03*
X23940Y18605D03*
X23940Y18105D03*
X23940Y17605D03*
X23940Y17105D03*
X23940Y16605D03*
X23940Y16105D03*
X23940Y15605D03*
X23940Y15105D03*
X23940Y14605D03*
X23940Y14105D03*
D37*
X25990Y12055D03*
X26490Y12055D03*
X26990Y12055D03*
X27490Y12055D03*
X27990Y12055D03*
X28490Y12055D03*
X28990Y12055D03*
X29490Y12055D03*
X29990Y12055D03*
X30490Y12055D03*
X30990Y12055D03*
X31490Y12055D03*
X31990Y12055D03*
X32490Y12055D03*
X32990Y12055D03*
X33490Y12055D03*
X33990Y12055D03*
X34490Y12055D03*
X34990Y12055D03*
X35490Y12055D03*
X35990Y12055D03*
X36490Y12055D03*
X36990Y12055D03*
X37490Y12055D03*
X37990Y12055D03*
X38490Y12055D03*
X38990Y12055D03*
X39490Y12055D03*
X39990Y12055D03*
X40490Y12055D03*
X40990Y12055D03*
X41490Y12055D03*
X41990Y12055D03*
X42490Y12055D03*
X42990Y12055D03*
X43490Y12055D03*
D38*
X45540Y14105D03*
X45540Y14605D03*
X45540Y15105D03*
X45540Y15605D03*
X45540Y16105D03*
X45540Y16605D03*
X45540Y17105D03*
X45540Y17605D03*
X45540Y18105D03*
X45540Y18605D03*
X45540Y19105D03*
X45540Y19605D03*
X45540Y20105D03*
X45540Y20605D03*
X45540Y21105D03*
X45540Y21605D03*
X45540Y22105D03*
X45540Y22605D03*
X45540Y23105D03*
X45540Y23605D03*
X45540Y24105D03*
X45540Y24605D03*
X45540Y25105D03*
X45540Y25605D03*
X45540Y26105D03*
X45540Y26605D03*
X45540Y27105D03*
X45540Y27605D03*
X45540Y28105D03*
X45540Y28605D03*
X45540Y29105D03*
X45540Y29605D03*
X45540Y30105D03*
X45540Y30605D03*
X45540Y31105D03*
X45540Y31605D03*
%LNtop paste component 1316ecc152b96bef*%
D10*
X21685Y21526D03*
X22585Y21526D03*
%LNtop paste component e71f3a43f9d186e2*%
D12*
X129733Y53228D03*
X127633Y53228D03*
%LNtop paste component 4f30c60152c740b4*%
D22*
X82860Y30125D03*
X82860Y29225D03*
%LNtop paste component 46051a69af0d5c49*%
X18200Y27355D03*
X18200Y26455D03*
%LNtop paste component 1f8d529a554370dc*%
D18*
X60611Y62481D03*
X60611Y63381D03*
%LNtop paste component 8cf7f09d2484a02e*%
D24*
X52676Y49925D03*
X52676Y52025D03*
%LNtop paste component 5cd36c68b9319886*%
D20*
X139525Y1225D03*
X137425Y1225D03*
%LNtop paste component 0a0e2f7a4f3ed2b9*%
D39*
X14380Y28274D03*
X16380Y28274D03*
%LNtop paste component a2b64e7ac695c449*%
D40*
X70815Y21430D03*
X71465Y21430D03*
X72115Y21430D03*
X72765Y21430D03*
X73415Y21430D03*
X74065Y21430D03*
X74715Y21430D03*
X75365Y21430D03*
X76015Y21430D03*
X76665Y21430D03*
X77315Y21430D03*
X77965Y21430D03*
X78615Y21430D03*
X79265Y21430D03*
X79265Y28380D03*
X78615Y28380D03*
X77965Y28380D03*
X77315Y28380D03*
X76665Y28380D03*
X76015Y28380D03*
X75365Y28380D03*
X74715Y28380D03*
X74065Y28380D03*
X73415Y28380D03*
X72765Y28380D03*
X72115Y28380D03*
X71465Y28380D03*
X70815Y28380D03*
%LNtop paste component 38765db894e370be*%
D22*
X20330Y30958D03*
X20330Y30058D03*
%LNtop paste component a37bbd21f024ed2e*%
D23*
X3265Y30500D03*
X2365Y30500D03*
%LNtop paste component e3f12bc31d3a9d5e*%
D22*
X16725Y52535D03*
X16725Y51635D03*
%LNtop paste component 5d60acce7bdf39a9*%
D24*
X109375Y50077D03*
X109375Y52177D03*
%LNtop paste component c858da9c56f3dd89*%
D41*
X36181Y56600D03*
X39331Y56600D03*
%LNtop paste component 63b482e9184ac18f*%
D22*
X142832Y30999D03*
X142832Y30099D03*
%LNtop paste component ad50baec9b816738*%
D42*
X126040Y20775D03*
D43*
X124770Y20775D03*
X123500Y20775D03*
X122230Y20775D03*
X120960Y20775D03*
X120960Y16575D03*
X122230Y16575D03*
X123500Y16575D03*
X124770Y16575D03*
X126040Y16575D03*
%LNtop paste component f2cf5345188db369*%
D18*
X48890Y9100D03*
X48890Y10000D03*
%LNtop paste component 353a72c03a01567e*%
D22*
X66247Y68840D03*
X66247Y67940D03*
%LNtop paste component f8b917937ce2e48c*%
D18*
X48002Y9071D03*
X48002Y9971D03*
%LNtop paste component 826ee86a6110c803*%
X65147Y66169D03*
X65147Y67069D03*
%LNtop paste component 83eb58aa2097c4ec*%
D23*
X49199Y36400D03*
X48299Y36400D03*
%LNtop paste component db17a9d485ecb4ec*%
D42*
X113474Y13075D03*
D43*
X112204Y13075D03*
X110934Y13075D03*
X109664Y13075D03*
X108394Y13075D03*
X108394Y8875D03*
X109664Y8875D03*
X110934Y8875D03*
X112204Y8875D03*
X113474Y8875D03*
%LNtop paste component 5ecef07d49f884a5*%
D18*
X15010Y53640D03*
X15010Y54540D03*
%LNtop paste component bee5185e08f694e2*%
D10*
X85896Y64881D03*
X86796Y64881D03*
%LNtop paste component 280561f3ec84658d*%
D22*
X38885Y68850D03*
X38885Y67950D03*
%LNtop paste component 5c266f642727c042*%
D20*
X148831Y51853D03*
X146731Y51853D03*
%LNtop paste component 49a83e3a9dc71b46*%
D18*
X28490Y8384D03*
X28490Y9284D03*
%LNtop paste component f08dc699ec134955*%
D44*
X117350Y49877D03*
X117350Y52177D03*
X117350Y54477D03*
D45*
X111550Y52177D03*
%LNtop paste component 69cd73b6b327bc92*%
D46*
X75473Y30545D03*
X75473Y30545D03*
%LNtop paste component 970d371178abbcf5*%
D10*
X5185Y57125D03*
X6085Y57125D03*
%LNtop paste component 39a0bfe3b2350c9e*%
D47*
X69998Y56909D03*
X69998Y54809D03*
%LNtop paste component 1cc09027eb38ce9b*%
D18*
X25900Y9970D03*
X25900Y10870D03*
%LNtop paste component 7107ca69831607bf*%
X41425Y38141D03*
X41425Y39041D03*
%LNtop paste component f48335e4e9decfc4*%
D22*
X50925Y37200D03*
X50925Y36300D03*
%LNtop paste component 3ab9664808152359*%
D23*
X7660Y48950D03*
X6760Y48950D03*
%LNtop paste component af033e1c492ae95d*%
D10*
X137557Y27058D03*
X138457Y27058D03*
%LNtop paste component 2d90ec1d0748b19b*%
D44*
X33465Y49856D03*
X33465Y52156D03*
X33465Y54456D03*
D45*
X27665Y52156D03*
%LNtop paste component d27d84eaa347f958*%
D22*
X64023Y18385D03*
X64023Y17485D03*
%LNtop paste component 5de6e7fe50158b50*%
D48*
X148175Y59375D03*
X148175Y61075D03*
%LNtop paste component 44c60319f72123e5*%
D24*
X22075Y9690D03*
X22075Y11790D03*
%LNtop paste component a55f8ae80a7a14a2*%
D47*
X30179Y38055D03*
X30179Y35955D03*
%LNtop paste component b3cf2e6ef0ef8bc3*%
D22*
X57423Y18385D03*
X57423Y17485D03*
%LNtop paste component 959c788615aec3ae*%
D49*
X9570Y41095D03*
X9570Y39575D03*
%LNtop paste component 49d05dd4d8323a29*%
D46*
X78615Y30310D03*
X78615Y30310D03*
%LNtop paste component 7430ddeb3dd5fc96*%
D22*
X81940Y30125D03*
X81940Y29225D03*
%LNtop paste component db6d5425d10731f1*%
D18*
X92431Y66110D03*
X92431Y67010D03*
%LNtop paste component 10dd6778e93854e2*%
X37785Y66180D03*
X37785Y67080D03*
%LNtop paste component 43362bd5c8bdc124*%
D10*
X31069Y61700D03*
X31969Y61700D03*
%LNtop paste component 9f2c17ba99f530e3*%
D50*
X56295Y25237D03*
D51*
X54795Y26237D03*
X54795Y25837D03*
X54795Y25437D03*
X54795Y25037D03*
X54795Y24637D03*
X54795Y24237D03*
X57795Y24237D03*
X57795Y24637D03*
X57795Y25037D03*
X57795Y25437D03*
X57795Y25837D03*
X57795Y26237D03*
D52*
X55295Y23737D03*
X55695Y23737D03*
X56095Y23737D03*
X56495Y23737D03*
X56895Y23737D03*
X57295Y23737D03*
X57295Y26737D03*
X56895Y26737D03*
X56495Y26737D03*
X56095Y26737D03*
X55695Y26737D03*
X55295Y26737D03*
%LNtop paste component 0b715b62e3bf0e49*%
D18*
X117146Y12735D03*
X117146Y13635D03*
%LNtop paste component 26c4431250563243*%
D36*
X77284Y56840D03*
X79384Y56840D03*
%LNtop paste component 6031f9cdd8e4b04e*%
D10*
X6845Y43775D03*
X7745Y43775D03*
%LNtop paste component ef280bc6f74bfb2e*%
D53*
X142492Y59839D03*
D54*
X142492Y57939D03*
X144574Y58889D03*
%LNtop paste component fa21a9d3bd844be7*%
D18*
X18200Y24326D03*
X18200Y25226D03*
%LNtop paste component d54e979d13f42d40*%
D44*
X88385Y49875D03*
X88385Y52175D03*
X88385Y54475D03*
D45*
X82585Y52175D03*
%LNtop paste component 9b55379032d8c9c0*%
D10*
X21685Y27540D03*
X22585Y27540D03*
%LNtop paste component e82b31195342867a*%
X117040Y68172D03*
X117940Y68172D03*
%LNtop paste component 7bf998789c9ff3ea*%
D18*
X33725Y5482D03*
X33725Y6382D03*
%LNtop paste component f3434e46003b0ccb*%
D10*
X21685Y22265D03*
X22585Y22265D03*
%LNtop paste component e23ea7a53add430a*%
D23*
X16530Y30058D03*
X15630Y30058D03*
%LNtop paste component 988c8f7ed45134d7*%
D31*
X9720Y36170D03*
X9720Y37690D03*
%LNtop paste component 02eef23b9c902560*%
D26*
X61101Y66884D03*
X61101Y65934D03*
X61101Y64984D03*
X63801Y64984D03*
X63801Y65934D03*
X63801Y66884D03*
%LNtop paste component 3f541ab5453583bc*%
D55*
X16662Y5542D03*
D56*
X16662Y6812D03*
X16662Y8082D03*
X16662Y9352D03*
X16662Y10622D03*
X16662Y11892D03*
X16662Y13162D03*
X16662Y14432D03*
X16662Y15702D03*
X16662Y16972D03*
X12812Y16972D03*
X12812Y15702D03*
X12812Y14432D03*
X12812Y13162D03*
X12812Y11892D03*
X12812Y10622D03*
X12812Y9352D03*
X12812Y8082D03*
X12812Y6812D03*
X12812Y5542D03*
%LNtop paste component 62634b369605b090*%
D22*
X62909Y18385D03*
X62909Y17485D03*
%LNtop paste component 622bd1f5f309ca93*%
D57*
X14725Y50625D03*
X14725Y51275D03*
X14725Y51925D03*
X14725Y52575D03*
X8925Y52575D03*
X8925Y51925D03*
X8925Y51275D03*
X8925Y50625D03*
%LNtop paste component 8923e593803fd707*%
D58*
X21130Y36645D03*
X25230Y36645D03*
%LNtop paste component 25284b0402c3bfe6*%
D24*
X80475Y50025D03*
X80475Y52125D03*
%LNtop paste component febdacfb4f08a233*%
D22*
X19000Y22190D03*
X19000Y21290D03*
%LNtop paste component 3723c693607afaf3*%
D36*
X69098Y31871D03*
X71198Y31871D03*
%LNtop paste component fc4e03e3c9d22ab0*%
D18*
X41340Y9990D03*
X41340Y10890D03*
%LNtop paste component 25462f31514284bd*%
D10*
X133304Y30983D03*
X134204Y30983D03*
%LNtop paste component 1b216497c65caac9*%
D59*
X147900Y56075D03*
X147900Y56875D03*
D60*
X148300Y57975D03*
X148300Y54975D03*
%LNtop paste component c78ed1da4f342122*%
D32*
X62632Y62615D03*
X62632Y60715D03*
X64985Y61665D03*
%LNtop paste component 1867d35bb2e3c436*%
D61*
X1125Y28450D03*
X1125Y26350D03*
%LNtop paste component 5d127be8eb0e2b21*%
D41*
X62712Y56590D03*
X65862Y56590D03*
%LNtop paste component 509a3a5afecf4227*%
D23*
X71634Y19325D03*
X70734Y19325D03*
%LNtop paste component 65340895eec323eb*%
D22*
X28775Y36830D03*
X28775Y35930D03*
%LNtop paste component 5ca2c09644e85525*%
D62*
X41375Y2840D03*
X52325Y2840D03*
D63*
X47600Y6140D03*
X46100Y6140D03*
X44850Y6140D03*
X48850Y6140D03*
X43725Y6140D03*
X49975Y6140D03*
%LNtop paste component e3502e1ebebbaac5*%
D64*
X3315Y14275D03*
X4835Y14275D03*
%LNtop paste component f2272e70da39e357*%
D65*
X27340Y36055D03*
X27340Y38055D03*
%LNtop paste component 908bd1544145bc55*%
D66*
X27340Y9526D03*
X27340Y7526D03*
%LNtop paste component 402ba1477a15d08c*%
D27*
X1700Y23437D03*
X1700Y17613D03*
D28*
X1700Y19688D03*
X1700Y21362D03*
D29*
X4000Y22988D03*
X4000Y18063D03*
D30*
X4360Y20525D03*
X4360Y21175D03*
X4360Y19875D03*
X4360Y19225D03*
X4360Y21825D03*
%LNtop paste component 5e01ebb6bc54e4ce*%
D10*
X141818Y51183D03*
X142718Y51183D03*
%LNtop paste component f47dae6f4f63a3b6*%
X21727Y29605D03*
X22627Y29605D03*
%LNtop paste component 170232427ef444b2*%
D11*
X77700Y8835D03*
X77700Y2835D03*
%LNtop paste component ec9132a84d053e23*%
D67*
X49175Y28315D03*
X49175Y24115D03*
%LNtop paste component fcdfb43fd35516fd*%
D10*
X58375Y61225D03*
X59275Y61225D03*
%LNtop paste component fa6e9773b869d26f*%
X58611Y66949D03*
X59511Y66949D03*
%LNtop paste component 9ae18aea2424862a*%
D23*
X83525Y48089D03*
X82625Y48089D03*
%LNtop paste component 8eddb5cf009cd23a*%
D49*
X7475Y23205D03*
X7475Y21685D03*
%LNtop paste component ac5826cc5d9b9a69*%
D68*
X19900Y24540D03*
X19900Y27040D03*
%LNtop paste component 8cf3f6702e1caed8*%
D18*
X56615Y21787D03*
X56615Y22687D03*
%LNtop paste component 717900f00a3b5bc3*%
D10*
X138718Y51253D03*
X139618Y51253D03*
%LNtop paste component 8f421eb2e089771f*%
D23*
X8710Y29041D03*
X7810Y29041D03*
%LNtop paste component c399f8e71cd1d686*%
D41*
X119438Y56525D03*
X122588Y56525D03*
%LNtop paste component 077e4978e90a6db0*%
D18*
X20750Y1787D03*
X20750Y2687D03*
%LNtop paste component 1af1d8ccd3f6753e*%
D10*
X58611Y64940D03*
X59511Y64940D03*
%LNtop paste component aa60d0c5f09d0721*%
D18*
X87896Y62422D03*
X87896Y63322D03*
%LNtop paste component a321f854a0d5c79b*%
X59611Y62481D03*
X59611Y63381D03*
%LNtop paste component 8244c4feca57a32b*%
D10*
X85675Y61581D03*
X86575Y61581D03*
%LNtop paste component 0f985c52631dac36*%
D18*
X136011Y9529D03*
X136011Y10429D03*
%LNtop paste component ff33558aa4b295eb*%
D22*
X39140Y35805D03*
X39140Y34905D03*
%LNtop paste component 123483fc50da1542*%
D26*
X33740Y66894D03*
X33740Y65944D03*
X33740Y64994D03*
X36440Y64994D03*
X36440Y65944D03*
X36440Y66894D03*
%LNtop paste component af44085506bac241*%
D53*
X142492Y56070D03*
D54*
X142492Y54170D03*
X144574Y55120D03*
%LNtop paste component 9e3d7324e22117a3*%
D23*
X45389Y36425D03*
X44489Y36425D03*
%LNtop paste component 93f38a023da17cd6*%
D12*
X35404Y37195D03*
X33304Y37195D03*
%LNtop paste component 824cabfdecc261bf*%
D10*
X21685Y19890D03*
X22585Y19890D03*
%LNtop paste component 58e0e3ab8d523528*%
D12*
X29025Y47665D03*
X26925Y47665D03*
%LNtop paste component 214df6988992703d*%
D23*
X148557Y27298D03*
X147657Y27298D03*
%LNtop paste component 83e4475318e607e2*%
D22*
X122525Y68787D03*
X122525Y67887D03*
%LNtop paste component 50431e7013874158*%
X96870Y11040D03*
X96870Y10140D03*
%LNtop paste component c3bde98ccaa3052b*%
D61*
X1125Y32600D03*
X1125Y30500D03*
%LNtop paste component 0593d9ffbd24c44e*%
D23*
X3265Y26350D03*
X2365Y26350D03*
%LNtop paste component 024c6d64018cff86*%
D22*
X77334Y31396D03*
X77334Y30496D03*
%LNtop paste component 3781c02c2c945f9a*%
D12*
X50316Y19945D03*
X48216Y19945D03*
%LNtop paste component 3274f8c609a35545*%
D32*
X118911Y62562D03*
X118911Y60662D03*
X121264Y61612D03*
%LNtop paste component f6df7f4d1f3640f4*%
D69*
X76378Y30545D03*
X76378Y30545D03*
%LNtop paste component 3d1b104ce7776bda*%
D70*
X74912Y43968D03*
X73912Y43968D03*
X72912Y43968D03*
X71912Y43968D03*
X70912Y43968D03*
X69912Y43968D03*
X68912Y43968D03*
X67912Y43968D03*
X75912Y43968D03*
X76912Y43968D03*
X77912Y43968D03*
X78912Y43968D03*
X79912Y43968D03*
X80912Y43968D03*
X81912Y43968D03*
X74412Y39468D03*
X75412Y39468D03*
X76412Y39468D03*
X77412Y39468D03*
X78412Y39468D03*
X79412Y39468D03*
X80412Y39468D03*
X81412Y39468D03*
X82412Y39468D03*
X73412Y39468D03*
X72412Y39468D03*
X71412Y39468D03*
X70412Y39468D03*
X69412Y39468D03*
X68412Y39468D03*
X67412Y39468D03*
D71*
X64562Y41718D03*
X85262Y41718D03*
%LNtop paste component 3118d642431897a9*%
D10*
X33400Y68235D03*
X34300Y68235D03*
%LNtop paste component d756b0f3de137564*%
D18*
X86896Y62422D03*
X86896Y63322D03*
%LNtop paste component e927691bf38237cc*%
D53*
X139175Y66255D03*
D54*
X139175Y64355D03*
X141257Y65305D03*
%LNtop paste component a709101080705d9f*%
D12*
X8860Y46900D03*
X6760Y46900D03*
%LNtop paste component 1fd9ae6837c5f772*%
X16380Y26399D03*
X14280Y26399D03*
%LNtop paste component 897a30fea384ecaa*%
D10*
X70596Y30545D03*
X71496Y30545D03*
%LNtop paste component e1a164b93856580c*%
X53554Y6375D03*
X54454Y6375D03*
%LNtop paste component 5d90992ed9f498fd*%
D72*
X148372Y24733D03*
X147122Y24733D03*
X145872Y24733D03*
X144622Y24733D03*
X143372Y24733D03*
X142122Y24733D03*
X140872Y24733D03*
X139622Y24733D03*
X138372Y24733D03*
X137122Y24733D03*
X135872Y24733D03*
X134622Y24733D03*
X133372Y24733D03*
X133372Y12683D03*
X134622Y12683D03*
X135872Y12683D03*
X137122Y12683D03*
X138372Y12683D03*
X139622Y12683D03*
X140872Y12683D03*
X142122Y12683D03*
X143372Y12683D03*
D73*
X131172Y23083D03*
X131172Y21833D03*
X131172Y20583D03*
X131172Y19333D03*
X131172Y18083D03*
X131172Y16833D03*
X131172Y15583D03*
X131172Y14333D03*
%LNtop paste component 99daae9fe26e86b6*%
D69*
X31475Y10841D03*
X31475Y10841D03*
%LNtop paste component d8cee48e8ff96c47*%
D22*
X58526Y18385D03*
X58526Y17485D03*
%LNtop paste component 9cb900031a0671d1*%
D74*
X15500Y38450D03*
%LNtop paste component 28192905440398cf*%
D18*
X129035Y14573D03*
X129035Y15473D03*
%LNtop paste component fd9e32851b1a968f*%
X115890Y62429D03*
X115890Y63329D03*
%LNtop paste component 943096fe0fdf62be*%
D22*
X81960Y31766D03*
X81960Y30866D03*
%LNtop paste component fbaa139785d5d001*%
D10*
X114890Y66896D03*
X115790Y66896D03*
%LNtop paste component 5d8e5d3223352b87*%
D75*
X128718Y33253D03*
D76*
X130718Y33253D03*
X132718Y33253D03*
X134718Y33253D03*
X136718Y33253D03*
X138718Y33253D03*
X140718Y33253D03*
X142718Y33253D03*
X142718Y48853D03*
X140718Y48853D03*
X138718Y48853D03*
X136718Y48853D03*
X134718Y48853D03*
X132718Y48853D03*
X130718Y48853D03*
X128718Y48853D03*
%LNtop paste component a0ebedd698096f78*%
D66*
X24325Y11784D03*
X24325Y9784D03*
%LNtop paste component db0a61bcf7d980cc*%
D23*
X146696Y56960D03*
X145796Y56960D03*
%LNtop paste component 0d2bc5847bfa080e*%
D42*
X48299Y43241D03*
D43*
X47029Y43241D03*
X45759Y43241D03*
X44489Y43241D03*
X43219Y43241D03*
X43219Y39041D03*
X44489Y39041D03*
X45759Y39041D03*
X47029Y39041D03*
X48299Y39041D03*
%LNtop paste component 77c8c10840c0f26f*%
D32*
X35271Y62625D03*
X35271Y60725D03*
X37624Y61675D03*
%LNtop paste component 7b93359e390f13c6*%
D10*
X31250Y66959D03*
X32150Y66959D03*
%LNtop paste component 6330e45dfde8971e*%
X78417Y19025D03*
X79317Y19025D03*
%LNtop paste component 016259ba95e127a7*%
D77*
X75782Y34649D03*
X71682Y34649D03*
%LNtop paste component 45713196ea83a0c4*%
D10*
X5185Y58995D03*
X6085Y58995D03*
%LNtop paste component fc635b20bf64d0b2*%
D22*
X38340Y35805D03*
X38340Y34905D03*
%LNtop paste component d8cd95f865bef560*%
D23*
X47696Y22255D03*
X46796Y22255D03*
%LNtop paste component 814900f2c4c50c01*%
D22*
X53625Y26922D03*
X53625Y26022D03*
%LNtop paste component 150b5ce9479cf8f3*%
D10*
X74332Y19040D03*
X75232Y19040D03*
%LNtop paste component f4a0d2fdeb86aa98*%
D18*
X55715Y21787D03*
X55715Y22687D03*
%LNtop paste component f99ed21790de5835*%
D10*
X88046Y68166D03*
X88946Y68166D03*
%LNtop paste component 4b9d4b0ea25b2389*%
D69*
X32115Y8009D03*
X32115Y8009D03*
%LNtop paste component 40e102f5aa2dd50c*%
D23*
X146696Y55875D03*
X145796Y55875D03*
%LNtop paste component 920b73b8cf1ad10f*%
D10*
X21685Y19105D03*
X22585Y19105D03*
%LNtop paste component e279d8d45f6048e9*%
X85896Y66890D03*
X86796Y66890D03*
%LNtop paste component dfa9d7292b2a35a7*%
D18*
X32250Y62492D03*
X32250Y63392D03*
%LNtop paste component ec05c047ddfb53dd*%
X42129Y9990D03*
X42129Y10890D03*
%LNtop paste component 2c9d19963eac73e8*%
X20330Y31842D03*
X20330Y32742D03*
%LNtop paste component fae200ceadefa762*%
D23*
X25944Y39049D03*
X25044Y39049D03*
%LNtop paste component 398d6df0609cfbdc*%
D12*
X79484Y32789D03*
X77384Y32789D03*
%LNtop paste component 28dcf01339a34074*%
D18*
X33250Y62492D03*
X33250Y63392D03*
%LNtop paste component 333def8ce290ed47*%
D12*
X9260Y27635D03*
X7160Y27635D03*
%LNtop paste component 816223da94ddce42*%
D10*
X21685Y24755D03*
X22585Y24755D03*
%LNtop paste component 1210e5d02afc38b8*%
D67*
X116659Y25856D03*
X116659Y21656D03*
%LNtop paste component 508762a1ba1dc963*%
D10*
X20515Y39049D03*
X21415Y39049D03*
%LNtop paste component 6ec3e93b289073ff*%
D41*
X90380Y56500D03*
X93530Y56500D03*
%LNtop paste component 14ee5db84be4efac*%
D12*
X10800Y56735D03*
X8700Y56735D03*
%LNtop paste component 777e85f40f63b617*%
D44*
X60650Y49850D03*
X60650Y52150D03*
X60650Y54450D03*
D45*
X54850Y52150D03*
%LNtop paste component a5a82ebd41b34ddd*%
D49*
X6200Y33435D03*
X6200Y31915D03*
M02*